<?xml version="1.0" encoding="utf-8"?>
<!-- Generator: Adobe Illustrator 22.1.0, SVG Export Plug-In . SVG Version: 6.00 Build 0)  -->
<svg version="1.1" id="Layer_1" xmlns="http://www.w3.org/2000/svg" xmlns:xlink="http://www.w3.org/1999/xlink" x="0px" y="0px"
	 viewBox="0 0 1366 768" style="enable-background:new 0 0 1366 768;" xml:space="preserve">
<style type="text/css">
	.st0{clip-path:url(#SVGID_2_);}
	.st1{fill:url(#SVGID_3_);}
	.st2{fill:url(#SVGID_4_);}
	.st3{fill:#F3F3F3;}
	.st4{clip-path:url(#SVGID_6_);}
	.st5{fill:url(#SVGID_7_);}
	.st6{fill:url(#SVGID_8_);}
</style>
<g>
	<defs>
		<path id="SVGID_1_" d="M361.2,584.3c-37.9,60.5-6.7,104.2,25.7,110.5c45.9,9,59.8-18,75,68.9c5.2,29.5,20.2,57.2,43.4,68.8
			c17,8.6,37.3,7.4,53.1-3.2c9.1-6.1,16.7-14.9,25.3-21.9c8.6-7.1,18.8-12.6,28.8-10.4c9.6,2,17.2,10.7,22.9,20.2
			c13.6,22.9,19,52.4,34.4,73.7c13,18,33.5,32,53.8,32.2c26.5,0.3,50.2-21.2,69.6-41.9c22.8-24.3,41.5-54.1,55.7-86.5
			c18.2-41.5,29.2-87.2,34.5-133.4c4.7-41.1,5.2-83.2-2.6-123c-12.2-63-52.7-141.3-115-122.3c-75,22.8-58.5,119-107.6,63.6
			c-29.4-33.1-94.2-62.4-130.4,34C491.6,610,415.8,497.2,361.2,584.3z"/>
	</defs>
	<clipPath id="SVGID_2_">
		<use xlink:href="#SVGID_1_"  style="overflow:visible;"/>
	</clipPath>
	<g class="st0">
		
			<linearGradient id="SVGID_3_" gradientUnits="userSpaceOnUse" x1="883.806" y1="256.0598" x2="801.8359" y2="96.6599" gradientTransform="matrix(0.9884 -0.1521 -0.1521 -0.9884 -173.9307 951.2191)">
			<stop  offset="0.26" style="stop-color:#4B0071"/>
			<stop  offset="0.87" style="stop-color:#37253F"/>
		</linearGradient>
		<path class="st1" d="M369.4,667.4c-5.8-68.9,37.1-87.3,65.6-75c40.5,17.4,40.7,46.5,88.3-15.1c16.2-20.9,39.5-35.1,62.9-32
			c16.8,2.2,32.6,13.6,41.3,31c4.8,9.7,7.4,20.9,11.4,31.2c4,10.2,10,20.2,18.9,23.8c8.5,3.5,18.1,0.6,26.6-4
			c20.3-11.1,36.6-31.8,57.6-40.8c17.8-7.5,39.9-7.7,56.3,3c21.4,14,31.7,43.9,38.8,71c8.4,31.7,11.3,65.7,9.5,99.3
			c-2.3,43.2-12.1,85.8-26.6,125.7c-12.9,35.5-29.7,69.5-52.1,97.4c-35.5,44-99.8,85.2-142.1,36.6c-51-58.5,1.5-126.8-60.5-108.8
			c-37.1,10.8-101.1-0.4-90.9-97.2S377.8,766.6,369.4,667.4z"/>
		
			<linearGradient id="SVGID_4_" gradientUnits="userSpaceOnUse" x1="837.9363" y1="230.8613" x2="738.9462" y2="23.6613" gradientTransform="matrix(0.9884 -0.1521 -0.1521 -0.9884 -173.9307 951.2191)">
			<stop  offset="0.26" style="stop-color:#4B0071"/>
			<stop  offset="0.87" style="stop-color:#37253F"/>
		</linearGradient>
		<path class="st2" d="M336.8,678.7c13.9-69.7,59.8-69.5,83.5-45.4c33.6,34.1,25.4,62.6,88.1,22.5c21.3-13.6,47.4-17.6,68.7-4.7
			c15.4,9.3,27.2,27,30.5,47.7c1.8,11.5,1.1,23.5,2,35.2c0.9,11.7,3.9,23.9,11.2,31.2c7.1,7,17.1,8.3,26.4,7.3
			c22.4-2.2,43.7-15.6,66.2-15.4c19,0.2,40.1,9.4,52.6,26.7c16.4,22.7,17.7,56.2,16.8,85.7c-1.2,34.4-7.6,68.4-19,100.9
			c-14.3,41.1-35.6,78.4-60.7,111.3c-22.3,29.2-47.8,55.3-77,73c-46.1,27.9-118.8,41-145.3-24.3c-31.9-78.6,37.2-123.1-26.8-131.7
			c-38.3-5.1-95.9-43.1-58.9-133.2S316.7,779.1,336.8,678.7z"/>
	</g>
</g>
<path class="st3" d="M617.9,14.6c-72,30.6-19.2,56,38.3,61.2c81.4,7.4,108.1-6.4,129.3,41.4c7.2,16.2,32.1,32,72.8,39.6
	c29.3,5.5,65.2,6.2,95.1,1.2c16.6-2.8,31-7.1,46.8-10.4s34.6-5.7,52.2-4c13.9,1.2,27.3,5.3,39.5,12.2c22.8,13.1,30.3,29.4,56.4,41.8
	c22,10.5,57.7,19.2,93.9,20.4c47.4,1.6,91.2-8.7,127.4-18.8c42.3-11.9,77.8-26.9,105.5-43.7c35.4-21.4,58.2-45.5,71-70.2
	c11.4-22,15-44.7,3.9-66.6c-17.5-34.7-84.3-79.3-197-72.6c-135.7,8.1-112.8,61-196.8,28.4c-50.3-19.5-164.2-39-235.5,11.1
	S721.6-29.4,617.9,14.6z"/>
<g>
	<defs>
		<path id="SVGID_5_" d="M564.2,814.9C611,731.5,563.5,676.5,518,671c-64.5-7.8-81.2,29.2-110.6-84.5c-10-38.6-33.5-73.8-66.8-87.2
			c-24.4-9.9-52.4-6.5-73.3,9c-12,8.8-21.8,21.2-33,31.3c-11.2,10.1-24.9,18.3-38.9,16.4c-13.5-1.8-24.9-12.6-33.6-24.7
			c-21.1-29.1-31.4-67.6-54.8-94.5c-19.7-22.7-49.6-39.3-77.7-37.8c-36.8,2-67.6,32.5-92.5,61.7c-29.2,34.2-52.3,75.3-68.9,119.4
			c-21.3,56.6-32.1,118-35.1,179.5c-2.6,54.8,0.8,110.5,15.4,162.5c23,82.3,86.6,182.2,171.2,151.6
			c101.9-36.8,69.6-162.6,143.2-93.7c44,41.2,136.7,74.2,177.6-56.6S496.8,935,564.2,814.9z"/>
	</defs>
	<clipPath id="SVGID_6_">
		<use xlink:href="#SVGID_5_"  style="overflow:visible;"/>
	</clipPath>
	<g class="st4">
		
			<linearGradient id="SVGID_7_" gradientUnits="userSpaceOnUse" x1="1183.4763" y1="-71.0335" x2="1101.5063" y2="-230.4335" gradientTransform="matrix(-1.356 0.2889 0.3058 1.2941 1777.4125 618.6652)">
			<stop  offset="0.26" style="stop-color:#4B0071"/>
			<stop  offset="0.87" style="stop-color:#37253F"/>
		</linearGradient>
		<path class="st5" d="M544.8,705.7c14.6,90.6-43,118.7-83.8,105c-57.8-19.4-60.9-57.9-121,27.8c-20.4,29.1-51.4,49.9-84.1,47.9
			c-23.5-1.4-46.6-15.1-60.3-37.4c-7.6-12.4-12.3-27-18.8-40.2c-6.6-13.2-15.8-25.8-28.5-29.8c-12.2-3.9-25.2,0.8-36.5,7.6
			c-27,16.4-47.6,45.3-76,59.1c-23.9,11.5-54.6,13.7-78.3,1c-31-16.6-48.2-55.3-60.7-90.5c-14.7-41.2-21.9-85.9-22.7-130.5
			c-1-57.4,8.5-114.6,24.8-168.7c14.5-48.2,34.5-94.6,62.9-133.4c45-61.4,130.2-121.6,193.6-61c76.3,72.9,10.1,167.9,94.4,138.5
			c50.5-17.6,140.2-8.4,135.3,120.6C380.5,650.7,523.7,575.2,544.8,705.7z"/>
		
			<linearGradient id="SVGID_8_" gradientUnits="userSpaceOnUse" x1="1137.6066" y1="-96.2321" x2="1038.6166" y2="-303.4321" gradientTransform="matrix(-1.356 0.2889 0.3058 1.2941 1777.4125 618.6652)">
			<stop  offset="0.26" style="stop-color:#4B0071"/>
			<stop  offset="0.87" style="stop-color:#37253F"/>
		</linearGradient>
		<path class="st6" d="M589.1,687.9c-12.6,93.4-76.2,97.2-111.4,67.5c-49.8-42.1-41.3-80.5-124.3-22c-28.2,19.9-64,27.4-94.8,12.3
			c-22.2-10.9-40.3-33.3-46.8-60.4c-3.7-15.1-3.8-31-6.2-46.4s-7.6-31.3-18.6-40.3c-10.5-8.7-24.5-9.4-37.3-7.4
			c-30.8,4.9-59.1,24.6-90.4,26.3c-26.4,1.4-56.5-8.8-75.5-30.6c-24.9-28.5-29.9-72.8-31.6-111.8c-1.7-45.6,3.9-91.2,16.7-135.1
			c15.9-55.6,41.9-106.9,73.4-152.6c28.1-40.7,61-77.4,99.7-103.3c61.3-41.1,160.8-64.7,203.8,19.3
			c51.8,101.2-39.8,166.2,49.8,171.8c53.6,3.4,137.1,48.5,94.4,171S607.2,553.3,589.1,687.9z"/>
	</g>
</g>
</svg>
