<svg xmlns="http://www.w3.org/2000/svg" viewBox="0 0 410 410.5"><defs><style>.cls-1{isolation:isolate;}.cls-2{fill:#ecf0f1;}.cls-3,.cls-65{fill:#bdc3c7;}.cls-4{fill:#34495e;}.cls-5{fill:#f1c40f;}.cls-6{fill:#f39c12;}.cls-7{fill:#e74c3c;}.cls-8{fill:#ff8c80;}.cls-9{fill:#c0392b;}.cls-10{fill:#2c3e50;}.cls-11{fill:#d35400;}.cls-12{fill:#b84900;}.cls-13{fill:#e67e22;}.cls-14{fill:#dde3e8;}.cls-15,.cls-47{fill:#b3b9bd;}.cls-16{fill:#edb302;}.cls-17{fill:#152636;}.cls-18{fill:#21354a;}.cls-19,.cls-47,.cls-62{opacity:0.5;}.cls-19,.cls-28,.cls-47,.cls-62,.cls-65,.cls-72{mix-blend-mode:multiply;}.cls-20{fill:#aeb4b8;}.cls-21{fill:#95a5a6;}.cls-22,.cls-62{fill:#7f8c8d;}.cls-23{fill:#638bb3;}.cls-24{fill:#233a50;}.cls-25{fill:#1e3044;}.cls-26{fill:#e3e7e8;}.cls-27{fill:#ab2315;}.cls-28{opacity:0.6;}.cls-29{fill:#eaa90d;}.cls-30{fill:#ec8810;}.cls-31{fill:#f1dc89;}.cls-32{fill:#e3cd76;}.cls-33{fill:#faefc1;}.cls-34{fill:#f7ebb7;}.cls-35{fill:#ede0a8;}.cls-36{fill:#e0c885;}.cls-37{fill:#d1b86c;}.cls-38{fill:#7d6335;}.cls-39{fill:#233140;}.cls-40{fill:#2980b9;}.cls-41{fill:#186aa1;}.cls-42{fill:#f1e8c3;}.cls-43{fill:#3498db;}.cls-44{fill:#dee2e3;}.cls-45{fill:#579;}.cls-46{fill:#6a7475;}.cls-48{fill:#c4cacf;}.cls-49{fill:#e1e5e6;}.cls-50{fill:#d6dadb;}.cls-51{fill:#f5ebc4;}.cls-52{fill:#e8deba;}.cls-53{fill:#f1db85;}.cls-54{fill:#e0c96e;}.cls-55{fill:#e8a30f;}.cls-56{fill:#ffdd54;}.cls-57{fill:#2ecc71;}.cls-58{fill:#a3b4b5;}.cls-59{fill:#e4e7e8;}.cls-60{fill:#ced4d9;}.cls-61{fill:#ff8275;}.cls-63{fill:#16a085;}.cls-64{fill:#148c74;}.cls-66{fill:#d7dadb;}.cls-67{fill:#38f789;}.cls-68{fill:#f2ca98;}.cls-69{fill:#246fa1;}.cls-70{fill:#fed8a9;}.cls-71{fill:#752f00;}.cls-72{fill:#bd9e90;opacity:0.3;}.cls-73{fill:#2e8fcf;}.cls-74{fill:#c9cfd4;}.cls-75{fill:#afc1c2;}</style></defs><title>completesolution</title><g class="cls-1"><g id="Layer_2" data-name="Layer 2"><g id="Layer_1-2" data-name="Layer 1"><rect class="cls-2" x="20.14" y="0.5" width="44.73" height="14.86"/><rect class="cls-3" x="20.14" y="7.93" width="44.73" height="7.43"/><path class="cls-4" d="M44.16,60.26h-3.3V23.89a5,5,0,0,1,4.94-4.95H66.6a1.65,1.65,0,0,0,1.65-1.65V11.23A1.65,1.65,0,0,0,66.6,9.58H64.87V6.28H66.6a5,5,0,0,1,4.94,5v6.06a5,5,0,0,1-4.94,4.95H45.8a1.65,1.65,0,0,0-1.64,1.65Z"/><polygon class="cls-5" points="38.76 26.33 36.96 60.26 48.05 60.26 46.26 26.33 38.76 26.33"/><polygon class="cls-6" points="42.51 26.33 42.51 60.26 48.05 60.26 46.26 26.33 42.51 26.33"/><path class="cls-7" d="M20.14.5h6.19a0,0,0,0,1,0,0V15a3.09,3.09,0,0,1-3.09,3.09h0A3.09,3.09,0,0,1,20.14,15V.5a0,0,0,0,1,0,0Z"/><path class="cls-7" d="M26.33.5h6.19a0,0,0,0,1,0,0V6.22a3.09,3.09,0,0,1-3.09,3.09h0a3.09,3.09,0,0,1-3.09-3.09V.5A0,0,0,0,1,26.33.5Z"/><path class="cls-7" d="M32.52.5H38.7a0,0,0,0,1,0,0V1.94A3.09,3.09,0,0,1,35.61,5h0a3.09,3.09,0,0,1-3.09-3.09V.5A0,0,0,0,1,32.52.5Z"/><path class="cls-7" d="M38.7.5h6.19a0,0,0,0,1,0,0V8.55a3.09,3.09,0,0,1-3.09,3.09h0A3.09,3.09,0,0,1,38.7,8.55V.5A0,0,0,0,1,38.7.5Z"/><path class="cls-7" d="M44.89.5h6.19a0,0,0,0,1,0,0V4A3.09,3.09,0,0,1,48,7.13h0A3.09,3.09,0,0,1,44.89,4V.5A0,0,0,0,1,44.89.5Z"/><path class="cls-7" d="M26.33,28a3.1,3.1,0,1,0-3.09,3.09A3.09,3.09,0,0,0,26.33,28Z"/><polygon class="cls-7" points="20.29 27.05 23.24 20.91 26.18 27.05 20.29 27.05"/><path class="cls-8" d="M22.9,27.36a1.07,1.07,0,1,1-1.07-1.06A1.07,1.07,0,0,1,22.9,27.36Z"/><rect class="cls-2" x="2.14" y="35.88" width="30.37" height="37.12"/><rect class="cls-3" x="17.32" y="35.88" width="15.19" height="37.12"/><path class="cls-5" d="M32.78,73H1.87A.91.91,0,0,1,1,72.09H1a.91.91,0,0,1,.91-.92H32.78a.92.92,0,0,1,.91.92h0A.91.91,0,0,1,32.78,73Z"/><path class="cls-6" d="M32.78,73H17.32V71.17H32.78a.92.92,0,0,1,.91.92h0A.91.91,0,0,1,32.78,73Z"/><path class="cls-5" d="M32.78,37.71H1.87A.91.91,0,0,1,1,36.79H1a.91.91,0,0,1,.91-.91H32.78a.91.91,0,0,1,.91.91h0A.92.92,0,0,1,32.78,37.71Z"/><path class="cls-6" d="M32.78,37.71H17.32V35.88H32.78a.91.91,0,0,1,.91.91h0A.92.92,0,0,1,32.78,37.71Z"/><rect class="cls-7" x="2.14" y="44.16" width="30.37" height="17.77"/><rect class="cls-9" x="17.32" y="44.16" width="15.19" height="17.77"/><path class="cls-2" d="M20.89,54.43h0l-.05-.11a4,4,0,0,0-.37-.78L17.32,47l-3.16,6.59a3.49,3.49,0,0,0-.37.78l0,.11h0a3.9,3.9,0,0,0-.19,1.15,3.77,3.77,0,0,0,7.53,0A3.6,3.6,0,0,0,20.89,54.43Z"/><path class="cls-3" d="M17.32,59.34a3.76,3.76,0,0,0,3.77-3.76,3.6,3.6,0,0,0-.2-1.15h0l-.05-.11a4,4,0,0,0-.37-.78L17.32,47Z"/><polygon class="cls-3" points="134.15 25.29 134.94 28.28 138.02 27.99 138.81 30.98 141.88 30.68 142.67 33.67 145.74 33.38 146.53 36.36 149.6 36.07 150.39 39.06 153.46 38.77 154.25 41.75 157.32 41.46 158.11 44.45 161.18 44.15 161.97 47.14 165.04 46.84 167.41 43.44 136.53 21.88 134.15 25.29"/><polygon class="cls-2" points="165.04 46.84 128.9 21.7 137.54 11.89 170.35 40.81 165.04 46.84"/><polygon class="cls-3" points="165.04 46.84 128.9 21.7 133.56 20.51 165.52 46.3 165.04 46.84"/><path class="cls-4" d="M129.43,3.59a2,2,0,0,0-2.82.18l-11,12.51a2,2,0,0,0,.18,2.82l4.71,4.16a8,8,0,0,0,11.29-.71L140.14,13ZM125.18,22a1,1,0,0,1-1.41.09l-4.6-4a1,1,0,0,1-.08-1.42l8.27-9.38a1,1,0,0,1,1.41-.09l4.6,4.05a1,1,0,0,1,.09,1.41Z"/><path class="cls-10" d="M129.57,17l-4.39,5a1,1,0,0,1-1.41.09l-4.6-4a1,1,0,0,1-.08-1.42l4.38-5-2.13-1.88-5.76,6.54a2,2,0,0,0,.18,2.82l4.71,4.16a8,8,0,0,0,11.29-.71l1.8-2Z"/><rect class="cls-11" x="123.47" y="59.17" width="50.57" height="5.32"/><rect class="cls-12" x="148.75" y="59.17" width="25.28" height="5.32"/><rect class="cls-11" x="118.36" y="39.83" width="5.1" height="33.17"/><rect class="cls-12" x="174.03" y="39.83" width="5.1" height="33.17"/><rect class="cls-13" x="112.5" y="34.51" width="72.5" height="5.32"/><rect class="cls-11" x="148.75" y="34.51" width="36.25" height="5.32"/><rect class="cls-14" x="243.92" y="5.64" width="33.97" height="33.97"/><rect class="cls-3" x="260.91" y="5.64" width="16.99" height="33.97"/><polygon class="cls-2" points="262.9 24.62 243.92 39.61 258.9 20.62 262.9 24.62"/><polygon class="cls-2" points="258.9 24.62 243.92 5.64 262.9 20.62 258.9 24.62"/><polygon class="cls-2" points="258.9 20.62 277.89 5.64 262.9 24.62 258.9 20.62"/><polygon class="cls-2" points="262.9 20.62 277.89 39.61 258.9 24.62 262.9 20.62"/><circle class="cls-2" cx="260.91" cy="22.62" r="11.28" transform="translate(11.43 102.28) rotate(-22.66)"/><path class="cls-15" d="M270.25,22.62a9.35,9.35,0,1,1-9.34-9.34A9.35,9.35,0,0,1,270.25,22.62Z"/><path class="cls-4" d="M258.26,22.62a1.93,1.93,0,1,1-1.93-1.93A1.93,1.93,0,0,1,258.26,22.62Z"/><path class="cls-4" d="M263.55,22.62a1.94,1.94,0,1,0,1.93-1.93A1.93,1.93,0,0,0,263.55,22.62Z"/><path class="cls-4" d="M292.5,74.5H264.9a5.51,5.51,0,0,1-5.5-5.5V67.86a1.5,1.5,0,0,1,3,0V69a2.5,2.5,0,0,0,2.5,2.5h27.6A2.5,2.5,0,0,0,295,69V5.5A2.5,2.5,0,0,0,292.5,3H230a2.5,2.5,0,0,0-2.5,2.5V73a1.5,1.5,0,0,1-3,0V5.5A5.51,5.51,0,0,1,230,0h62.5A5.51,5.51,0,0,1,298,5.5V69A5.51,5.51,0,0,1,292.5,74.5Z"/><rect class="cls-5" x="251.56" y="51.28" width="18.69" height="2.17"/><rect class="cls-5" x="257.81" y="65.69" width="6.19" height="2.17"/><path class="cls-5" d="M260.91,66.78h0a8.3,8.3,0,0,1-8.3-8.29v-5H269.2v5A8.29,8.29,0,0,1,260.91,66.78Z"/><rect class="cls-16" x="260.9" y="51.28" width="9.35" height="2.17"/><rect class="cls-16" x="260.9" y="65.69" width="3.1" height="2.17"/><path class="cls-16" d="M260.9,53.45V66.78h0a8.29,8.29,0,0,0,8.29-8.29v-5Z"/><path class="cls-3" d="M256.33,42.28h0a1.93,1.93,0,0,1,1.93,1.93v7.07a0,0,0,0,1,0,0H254.4a0,0,0,0,1,0,0V44.21a1.93,1.93,0,0,1,1.93-1.93Z"/><path class="cls-3" d="M265.48,42.28h0a1.93,1.93,0,0,1,1.93,1.93v7.07a0,0,0,0,1,0,0h-3.87a0,0,0,0,1,0,0V44.21A1.93,1.93,0,0,1,265.48,42.28Z"/><path class="cls-2" d="M257.29,44.11a1,1,0,1,1-1-1A1,1,0,0,1,257.29,44.11Z"/><path class="cls-2" d="M266.45,44.11a1,1,0,1,1-1.93,0,1,1,0,0,1,1.93,0Z"/><rect class="cls-13" x="256.33" y="55.6" width="9.15" height="1.42" rx="0.71" ry="0.71"/><rect class="cls-13" x="256.33" y="57.85" width="9.15" height="1.42" rx="0.71" ry="0.71"/><rect class="cls-13" x="256.33" y="60.11" width="9.15" height="1.42" rx="0.71" ry="0.71"/><path class="cls-2" d="M346.42,63.91l1.3.36,12.61-46.13-1.3-.36A6,6,0,0,0,351.66,22l-9.45,34.55A6,6,0,0,0,346.42,63.91Z"/><path class="cls-3" d="M359,17.78a5.87,5.87,0,0,0-2.31-.16L344.34,62.88a6,6,0,0,0,2.08,1l1.3.36,12.61-46.13Z"/><path class="cls-5" d="M349.23,58.74a3.62,3.62,0,1,1-2.54-4.45A3.62,3.62,0,0,1,349.23,58.74Z"/><path class="cls-4" d="M347,58.13a1.3,1.3,0,1,1-.91-1.59A1.31,1.31,0,0,1,347,58.13Z"/><polygon class="cls-4" points="347.72 64.27 345.61 71.98 345.98 63.77 347.72 64.27"/><path class="cls-2" d="M372.77,16.32h1.35a0,0,0,0,1,0,0V64.14a0,0,0,0,1,0,0h-1.35a6,6,0,0,1-6-6V22.32a6,6,0,0,1,6-6Z" transform="translate(738.38 -18.64) rotate(164.71)"/><path class="cls-3" d="M361.89,17.78a5.87,5.87,0,0,1,2.31-.16l12.38,45.26a6,6,0,0,1-2.08,1l-1.3.36L360.59,18.14Z"/><path class="cls-5" d="M371.69,58.74a3.62,3.62,0,1,0,2.54-4.45A3.62,3.62,0,0,0,371.69,58.74Z"/><path class="cls-4" d="M373.93,58.13a1.3,1.3,0,1,0,.91-1.59A1.31,1.31,0,0,0,373.93,58.13Z"/><polygon class="cls-4" points="373.2 64.27 375.31 71.98 374.94 63.77 373.2 64.27"/><path class="cls-10" d="M360.46.5h0a3.63,3.63,0,0,1,3.63,3.63v8.31a0,0,0,0,1,0,0h-7.26a0,0,0,0,1,0,0V4.13A3.63,3.63,0,0,1,360.46.5Z"/><path class="cls-17" d="M360.49.5V12.44h3.6V4.13A3.64,3.64,0,0,0,360.49.5Z"/><path class="cls-4" d="M355.16,12.38h10.59A3.65,3.65,0,0,1,369.41,16v5.9a0,0,0,0,1,0,0H351.51a0,0,0,0,1,0,0V16A3.65,3.65,0,0,1,355.16,12.38Z"/><path class="cls-18" d="M365.75,12.38h-5.26v9.55h8.92V16A3.65,3.65,0,0,0,365.75,12.38Z"/><path class="cls-5" d="M358.31,17.18a1.49,1.49,0,1,1-1.48-1.48A1.49,1.49,0,0,1,358.31,17.18Z"/><path class="cls-5" d="M365.58,17.18a1.49,1.49,0,1,1-1.49-1.48A1.49,1.49,0,0,1,365.58,17.18Z"/><path class="cls-5" d="M401.21.5h-14.5V73h14.5a4,4,0,0,0,4-4V4.5A4,4,0,0,0,401.21.5ZM396,69.68A2.64,2.64,0,1,1,398.6,67,2.64,2.64,0,0,1,396,69.68Z"/><rect class="cls-4" x="386.71" y="5.88" width="5.28" height="1.16"/><rect class="cls-4" x="386.71" y="9.07" width="3.53" height="1.16"/><rect class="cls-4" x="386.71" y="12.26" width="3.53" height="1.16"/><rect class="cls-4" x="386.71" y="15.45" width="3.53" height="1.16"/><rect class="cls-4" x="386.71" y="18.64" width="5.28" height="1.16"/><rect class="cls-4" x="386.71" y="21.82" width="3.53" height="1.16"/><rect class="cls-4" x="386.71" y="25.01" width="3.53" height="1.16"/><rect class="cls-4" x="386.71" y="28.2" width="3.53" height="1.16"/><rect class="cls-4" x="386.71" y="31.39" width="5.28" height="1.16"/><rect class="cls-4" x="386.71" y="34.58" width="3.53" height="1.16"/><rect class="cls-4" x="386.71" y="37.77" width="3.53" height="1.16"/><rect class="cls-4" x="386.71" y="40.95" width="5.28" height="1.16"/><rect class="cls-4" x="386.71" y="44.14" width="3.53" height="1.16"/><rect class="cls-4" x="386.71" y="47.33" width="3.53" height="1.16"/><rect class="cls-4" x="386.71" y="50.52" width="3.53" height="1.16"/><rect class="cls-4" x="386.71" y="53.71" width="5.28" height="1.16"/><rect class="cls-4" x="386.71" y="56.9" width="3.53" height="1.16"/><rect class="cls-4" x="386.71" y="60.08" width="3.53" height="1.16"/><rect class="cls-4" x="386.71" y="63.27" width="3.53" height="1.16"/><rect class="cls-4" x="386.71" y="66.46" width="5.28" height="1.16"/><path class="cls-6" d="M401.21.5H392V73h9.22a4,4,0,0,0,4-4V4.5A4,4,0,0,0,401.21.5ZM396,69.68A2.64,2.64,0,1,1,398.6,67,2.64,2.64,0,0,1,396,69.68Z"/><rect class="cls-7" x="58.67" y="113" width="13.83" height="9.14"/><rect class="cls-3" x="58.67" y="122.14" width="13.83" height="2.94"/><rect class="cls-7" x="58.67" y="125.08" width="13.83" height="9.14"/><rect class="cls-3" x="58.67" y="134.22" width="13.83" height="2.94"/><rect class="cls-7" x="58.67" y="137.17" width="13.83" height="9.14"/><rect class="cls-3" x="58.67" y="146.31" width="13.83" height="2.94"/><rect class="cls-7" x="58.67" y="149.25" width="13.83" height="9.14"/><rect class="cls-3" x="58.67" y="158.39" width="13.83" height="2.94"/><rect class="cls-7" x="58.67" y="161.33" width="13.83" height="9.14"/><rect class="cls-3" x="58.67" y="170.47" width="13.83" height="2.94"/><rect class="cls-7" x="58.67" y="173.42" width="13.83" height="9.14"/><rect class="cls-3" x="58.67" y="182.56" width="13.83" height="2.94"/><g class="cls-19"><rect class="cls-7" x="65.58" y="113" width="6.92" height="9.14"/><rect class="cls-3" x="65.58" y="122.14" width="6.92" height="2.94"/><rect class="cls-7" x="65.58" y="125.08" width="6.92" height="9.14"/><rect class="cls-3" x="65.58" y="134.22" width="6.92" height="2.94"/><rect class="cls-7" x="65.58" y="137.17" width="6.92" height="9.14"/><rect class="cls-3" x="65.58" y="146.31" width="6.92" height="2.94"/><rect class="cls-7" x="65.58" y="149.25" width="6.92" height="9.14"/><rect class="cls-3" x="65.58" y="158.39" width="6.92" height="2.94"/><rect class="cls-7" x="65.58" y="161.33" width="6.92" height="9.14"/><rect class="cls-3" x="65.58" y="170.47" width="6.92" height="2.94"/><rect class="cls-7" x="65.58" y="173.42" width="6.92" height="9.14"/><rect class="cls-3" x="65.58" y="182.56" width="6.92" height="2.94"/></g><path class="cls-5" d="M3,117.9a3,3,0,0,0-3,3v15.22a3,3,0,0,0,3,3H21.4V117.9Zm7.13,15.65a1,1,0,0,1-1,1H5.21a1,1,0,0,1-1-1V123.47a1,1,0,0,1,1-1H9.13a1,1,0,0,1,1,1Z"/><path class="cls-5" d="M3,117.9a3,3,0,0,0-3,3v15.22a3,3,0,0,0,3,3H21.4V117.9Zm7.13,15.65a1,1,0,0,1-1,1H5.21a1,1,0,0,1-1-1V123.47a1,1,0,0,1,1-1H9.13a1,1,0,0,1,1,1Z"/><rect class="cls-5" x="10.13" y="133.55" width="11.27" height="8.51"/><rect class="cls-4" x="10.13" y="142.07" width="11.27" height="2.7"/><rect class="cls-10" x="15.76" y="142.07" width="5.63" height="2.7"/><polygon class="cls-6" points="28.51 129.98 21.4 134.55 21.4 117.9 28.51 117.9 28.51 129.98"/><rect class="cls-3" x="28.51" y="119.16" width="4.72" height="9.56"/><rect class="cls-20" x="28.51" y="123.94" width="4.72" height="4.78"/><rect class="cls-4" x="33.23" y="117.9" width="5.57" height="12.08"/><rect class="cls-4" x="40.62" y="119.38" width="5.57" height="9.12"/><polygon class="cls-21" points="57.85 125.41 48 125.41 48 122.47 57.85 122.47 58.67 123.94 57.85 125.41"/><polygon class="cls-22" points="48 123.93 48 125.41 57.85 125.41 58.67 123.94 58.66 123.93 48 123.93"/><polygon class="cls-4" points="40.62 128.5 38.8 129.98 38.8 117.9 40.62 119.38 40.62 128.5"/><polygon class="cls-4" points="48 127.38 46.19 128.5 46.19 119.38 48 120.5 48 127.38"/><rect class="cls-10" x="33.23" y="124.04" width="5.57" height="5.94"/><rect class="cls-10" x="40.62" y="124.04" width="5.57" height="4.46"/><polygon class="cls-10" points="38.8 124.05 38.8 129.98 40.62 128.5 40.62 124.05 38.8 124.05"/><polygon class="cls-10" points="46.19 124.05 46.19 128.5 48 127.38 48 124.05 46.19 124.05"/><path class="cls-3" d="M49.83,126h0a.56.56,0,0,1-.37-.68l.84-3a.55.55,0,0,1,.68-.37h0a.53.53,0,0,1,.37.67l-.84,3A.54.54,0,0,1,49.83,126Z"/><path class="cls-3" d="M52.44,126h0a.56.56,0,0,1-.38-.68l.85-3a.53.53,0,0,1,.67-.37h0a.54.54,0,0,1,.38.67l-.84,3A.56.56,0,0,1,52.44,126Z"/><path class="cls-3" d="M55.06,126h0a.55.55,0,0,1-.37-.68l.84-3a.54.54,0,0,1,.67-.37h0a.53.53,0,0,1,.37.67l-.84,3A.54.54,0,0,1,55.06,126Z"/><path class="cls-21" d="M49.84,123.91l-.39,1.36a.56.56,0,0,0,.38.68h0a.54.54,0,0,0,.67-.38l.47-1.66Z"/><path class="cls-21" d="M52.45,123.91l-.39,1.36a.56.56,0,0,0,.38.68h0a.56.56,0,0,0,.68-.38l.47-1.66Z"/><path class="cls-21" d="M55.07,123.91l-.39,1.36a.55.55,0,0,0,.37.68h0a.54.54,0,0,0,.67-.38l.47-1.66Z"/><rect class="cls-22" x="29.42" y="118.56" width="2.75" height="10.99"/><rect class="cls-10" x="29.42" y="124.06" width="2.75" height="9.26"/><rect class="cls-4" x="29.04" y="134.78" width="3.5" height="9.99"/><path class="cls-4" d="M33.38,134.78H28.2a.74.74,0,0,1-.73-.74h0a.73.73,0,0,1,.73-.73h5.18a.73.73,0,0,1,.73.73h0A.73.73,0,0,1,33.38,134.78Z"/><rect class="cls-10" x="30.81" y="134.78" width="1.73" height="9.99"/><path class="cls-10" d="M33.38,133.31H30.81v1.47h2.57a.74.74,0,0,0,0-1.47Z"/><path class="cls-23" d="M33.05,134H28.53a.23.23,0,0,1-.24-.23h0a.24.24,0,0,1,.24-.24h4.52a.24.24,0,0,1,.24.24h0A.23.23,0,0,1,33.05,134Z"/><path class="cls-4" d="M32.6,144.76H29a.51.51,0,0,1-.51-.51h0a.51.51,0,0,1,.51-.51H32.6a.51.51,0,0,1,.51.51h0A.51.51,0,0,1,32.6,144.76Z"/><path class="cls-10" d="M32.6,143.74H30.81v1H32.6a.51.51,0,0,0,.51-.51A.51.51,0,0,0,32.6,143.74Z"/><path class="cls-3" d="M30.11,124.06a.68.68,0,0,1,.68-.69.69.69,0,0,1,.69.69Z"/><rect class="cls-21" x="29.42" y="124.06" width="2.75" height="0.4"/><polygon class="cls-22" points="57.46 127.55 56.33 129.33 55.47 128.5 57.46 127.55"/><polygon class="cls-22" points="55.63 131.04 54.28 133.03 55.63 133.54 55.63 131.04"/><polygon class="cls-22" points="57.18 120.35 55.82 118.15 55.47 119.25 57.18 120.35"/><polygon class="cls-22" points="53.53 129.75 51.37 130.42 52.04 131.4 53.53 129.75"/><rect class="cls-6" x="15.76" y="117.9" width="5.63" height="24.17"/><rect class="cls-4" y="157.46" width="55.43" height="3.87"/><rect class="cls-24" x="27.47" y="157.46" width="27.96" height="3.87"/><rect class="cls-10" x="-5.96" y="171.5" width="24.21" height="3.87" transform="translate(179.59 167.29) rotate(90)"/><rect class="cls-10" x="36.93" y="171.5" width="24.21" height="3.87" transform="translate(222.47 124.4) rotate(90)"/><rect class="cls-10" x="3.61" y="171.19" width="47.37" height="3.87" transform="translate(-12.6 343.79) rotate(-157.88)"/><polygon class="cls-25" points="27.48 171.11 27.48 175.29 48.51 183.84 49.97 180.25 27.48 171.11"/><rect class="cls-10" x="3.61" y="171.19" width="47.37" height="3.87" transform="translate(117.77 323.23) rotate(157.88)"/><polygon class="cls-25" points="27.48 175.15 49.97 166 48.51 162.41 27.48 170.96 27.48 175.15"/><path class="cls-5" d="M50.1,164.41A1.07,1.07,0,1,1,49,163.34,1.07,1.07,0,0,1,50.1,164.41Z"/><circle class="cls-5" cx="49.03" cy="181.95" r="1.06"/><path class="cls-5" d="M7.21,164.41a1.06,1.06,0,1,1-1.06-1.07A1.06,1.06,0,0,1,7.21,164.41Z"/><path class="cls-5" d="M7.21,182a1.06,1.06,0,1,1-1.06-1.07A1.06,1.06,0,0,1,7.21,182Z"/><rect class="cls-26" x="125.76" y="113.22" width="56.62" height="72.32"/><rect class="cls-3" x="154.07" y="113.22" width="28.31" height="72.32"/><rect class="cls-7" x="125.76" y="129.68" width="56.62" height="39.4"/><rect class="cls-9" x="154.07" y="129.68" width="28.31" height="39.4"/><rect class="cls-9" x="124.23" y="113.22" width="59.68" height="4.04"/><rect class="cls-9" x="124.23" y="181.45" width="59.68" height="4.04"/><rect class="cls-27" x="154.07" y="113.22" width="29.84" height="4.04"/><rect class="cls-27" x="154.07" y="181.45" width="29.84" height="4.04"/><path class="cls-2" d="M160.93,151.84h0l-.1-.21a8.14,8.14,0,0,0-.71-1.49l-6.09-12.67L148,150.14a7.15,7.15,0,0,0-.72,1.5l-.09.2h0a7.32,7.32,0,0,0-.38,2.21,7.24,7.24,0,0,0,14.48,0A7,7,0,0,0,160.93,151.84Z"/><path class="cls-3" d="M154.07,161.29a7.24,7.24,0,0,0,7.24-7.24,7,7,0,0,0-.38-2.21h0l-.1-.21a8.14,8.14,0,0,0-.71-1.49l-6.09-12.67Z"/><g class="cls-28"><path class="cls-22" d="M130.66,119.38h0a4.8,4.8,0,0,0-4.8,4.81v30h9.61v-30A4.8,4.8,0,0,0,130.66,119.38Zm0,7.71a2.24,2.24,0,1,1,2.23-2.24A2.23,2.23,0,0,1,130.66,127.09Z"/><path class="cls-22" d="M118.49,154.18h24.33a2.29,2.29,0,0,1,2.29,2.29v9.16a0,0,0,0,1,0,0H116.2a0,0,0,0,1,0,0v-9.16A2.29,2.29,0,0,1,118.49,154.18Z"/><path class="cls-22" d="M130.66,119.38h0v3.24h0a2.24,2.24,0,0,1,0,4.47h0v27.1h4.84v-30A4.8,4.8,0,0,0,130.66,119.38Z"/><path class="cls-22" d="M142.82,154.18h-12.2v11.44h14.49v-9.16A2.28,2.28,0,0,0,142.82,154.18Z"/><rect class="cls-22" x="116.2" y="165.62" width="28.91" height="5.36"/><path class="cls-22" d="M145.27,167.36H116a.51.51,0,0,1-.51-.51h0a.51.51,0,0,1,.51-.51h29.23a.51.51,0,0,1,.51.51h0A.51.51,0,0,1,145.27,167.36Z"/><path class="cls-22" d="M145.27,170.1H116a.51.51,0,0,1-.51-.51h0a.51.51,0,0,1,.51-.51h29.23a.51.51,0,0,1,.51.51h0A.51.51,0,0,1,145.27,170.1Z"/><path class="cls-22" d="M143.52,180.3V171H117.79v9.31a5.3,5.3,0,0,0,5.31,5.3h25.73A5.3,5.3,0,0,1,143.52,180.3Z"/><rect class="cls-22" x="122.37" y="170.98" width="1.15" height="13.34"/><rect class="cls-22" x="127.51" y="170.98" width="1.15" height="13.34"/><rect class="cls-22" x="132.66" y="170.98" width="1.15" height="13.34"/><rect class="cls-22" x="137.81" y="170.98" width="1.15" height="13.34"/><path class="cls-22" d="M123.1,185.6h25.57a5.28,5.28,0,0,1-5.08-4.66,2.6,2.6,0,0,0-.07.56,2.57,2.57,0,1,0-5.14,0v-2.77a2.58,2.58,0,0,0-5.15,0v1.84a2.57,2.57,0,0,0-5.14,0v2.23a2.58,2.58,0,0,0-5.15,0v.92a2.57,2.57,0,0,0-4.74-1.38A5.3,5.3,0,0,0,123.1,185.6Z"/></g><path class="cls-29" d="M127.38,119.38h0a4.8,4.8,0,0,0-4.8,4.81v30h9.61v-30A4.8,4.8,0,0,0,127.38,119.38Zm0,7.71a2.24,2.24,0,1,1,2.23-2.24A2.24,2.24,0,0,1,127.38,127.09Z"/><path class="cls-5" d="M115.21,154.18h24.33a2.29,2.29,0,0,1,2.29,2.29v9.16a0,0,0,0,1,0,0H112.92a0,0,0,0,1,0,0v-9.16A2.29,2.29,0,0,1,115.21,154.18Z"/><path class="cls-30" d="M127.38,119.38h0v3.24h0a2.24,2.24,0,0,1,0,4.47h0v27.1h4.84v-30A4.8,4.8,0,0,0,127.38,119.38Z"/><path class="cls-6" d="M139.54,154.18h-12.2v11.44h14.49v-9.16A2.29,2.29,0,0,0,139.54,154.18Z"/><rect class="cls-3" x="112.92" y="165.62" width="28.91" height="5.36"/><path class="cls-2" d="M142,167.36H112.76a.51.51,0,0,1-.51-.51h0a.51.51,0,0,1,.51-.51H142a.51.51,0,0,1,.51.51h0A.51.51,0,0,1,142,167.36Z"/><path class="cls-2" d="M142,170.1H112.76a.51.51,0,0,1-.51-.51h0a.51.51,0,0,1,.51-.51H142a.51.51,0,0,1,.51.51h0A.51.51,0,0,1,142,170.1Z"/><path class="cls-31" d="M140.24,180.3V171H114.51v9.31a5.3,5.3,0,0,0,5.31,5.3h25.73A5.3,5.3,0,0,1,140.24,180.3Z"/><rect class="cls-32" x="119.08" y="170.98" width="1.15" height="13.34"/><rect class="cls-32" x="124.23" y="170.98" width="1.15" height="13.34"/><rect class="cls-32" x="129.38" y="170.98" width="1.15" height="13.34"/><rect class="cls-32" x="134.52" y="170.98" width="1.15" height="13.34"/><path class="cls-7" d="M119.82,185.6h25.57a5.28,5.28,0,0,1-5.08-4.66,2.6,2.6,0,0,0-.07.56,2.57,2.57,0,1,0-5.14,0v-2.77a2.58,2.58,0,0,0-5.15,0v1.84a2.58,2.58,0,0,0-5.15,0v2.23a2.57,2.57,0,0,0-5.14,0v.92a2.57,2.57,0,0,0-4.74-1.38A5.29,5.29,0,0,0,119.82,185.6Z"/><rect class="cls-33" x="237.88" y="144.91" width="59.62" height="37.73"/><path class="cls-34" d="M237.88,125.71A12.88,12.88,0,0,0,225,138.59v31.17h25.75V138.59A12.88,12.88,0,0,0,237.88,125.71Z"/><path class="cls-35" d="M237.88,125.71h-.16v44h13V138.59A12.88,12.88,0,0,0,237.88,125.71Z"/><path class="cls-36" d="M237.88,156.88a12.88,12.88,0,1,0,12.87,12.88A12.88,12.88,0,0,0,237.88,156.88Zm0,17a4.1,4.1,0,1,1,4.1-4.1A4.09,4.09,0,0,1,237.88,173.86Z"/><path class="cls-37" d="M232.39,181.4l.56.26Z"/><path class="cls-37" d="M248.41,171.38a10.8,10.8,0,0,0,.11-1.61,11.89,11.89,0,0,0-.14-1.56,11.27,11.27,0,0,0-7.26-8.85,11.58,11.58,0,0,0-10.31,1.27,11.79,11.79,0,0,0-5.11,7.63,12.07,12.07,0,0,0,0,4.15,11.73,11.73,0,0,0,1.18,3.6,11.93,11.93,0,0,0,3.14,3.9,12.15,12.15,0,0,0,2.25,1.41,12.17,12.17,0,0,1-5.24-5.39,11.45,11.45,0,0,1-1.12-3.55,11.64,11.64,0,0,1,.08-4.07,11.47,11.47,0,0,1,5.05-7.38,11.15,11.15,0,0,1,10-1.12,11,11,0,0,1,4.52,3.21,10.81,10.81,0,0,1,2.37,5.28,12.13,12.13,0,0,1,.13,1.5,10.81,10.81,0,0,1-.11,1.5,9.59,9.59,0,0,1-.88,2.94,10.29,10.29,0,0,1-4.24,4.55,10.12,10.12,0,0,1-6.31,1.18,9.54,9.54,0,0,1-5.8-3.1,9.79,9.79,0,0,1-2.47-6.29,9.13,9.13,0,0,1,8.93-9.21,8.66,8.66,0,0,1,6.48,2.8,8.45,8.45,0,0,1,2.19,6.82,8.14,8.14,0,0,1-4,6,7.91,7.91,0,0,1-7.25.35,7.67,7.67,0,0,1-4.33-5.86,9.08,9.08,0,0,1-.08-1c0-.31,0-.61.05-.93a7.43,7.43,0,0,1,.47-1.84,7.26,7.26,0,0,1,2.27-3,7,7,0,0,1,7.19-.93,6.83,6.83,0,0,1,4,6,6.46,6.46,0,0,1-3.83,6,7.31,7.31,0,0,1-1.83.5,6.55,6.55,0,0,1-1.88-.05,6.13,6.13,0,0,1-3.27-1.79,5.94,5.94,0,0,1-1-7,5.76,5.76,0,0,1,2.75-2.48,5.65,5.65,0,0,1,3.67-.29,5.43,5.43,0,0,1,3.83,3.75,5.18,5.18,0,0,1-4.54,6.68,4.9,4.9,0,0,1-5.25-4.11,4.61,4.61,0,0,1,.78-3.44,4.66,4.66,0,0,1,2.94-1.91,4.3,4.3,0,0,1,1.07-.06,2.66,2.66,0,0,1,.28,0,4.08,4.08,0,0,1,3.55,6.12,4.44,4.44,0,0,1-.54.92,4.23,4.23,0,0,1-3,1.55,4,4,0,0,1-4.21-4.31,4.65,4.65,0,0,1,.16-.72,4.08,4.08,0,0,1,2.31-3.16,4.42,4.42,0,0,0-3.16,3.82,4.69,4.69,0,0,0,5,5.1,4.93,4.93,0,0,0,4.57-5.69,5.17,5.17,0,0,0-2.13-3.44,5,5,0,0,0-1.9-.84,4.51,4.51,0,0,0-1.05-.12,4,4,0,0,0-.5,0h-.12l-.15,0-.26,0a5.47,5.47,0,0,0-4.39,6.25,5.74,5.74,0,0,0,6.11,4.82,6,6,0,0,0,3.83-1.76,6.06,6.06,0,0,0,1.73-4.92,6.87,6.87,0,0,0-.22-1.08,6.33,6.33,0,0,0-4.44-4.38,6.56,6.56,0,0,0-4.28.31,6.76,6.76,0,0,0-3.2,2.87,6.89,6.89,0,0,0,1.07,8.11,7.08,7.08,0,0,0,3.78,2.09,7.7,7.7,0,0,0,2.19.07,8.05,8.05,0,0,0,2.11-.58,7.41,7.41,0,0,0,4.39-7,7.77,7.77,0,0,0-4.6-6.82,8,8,0,0,0-8.14,1.07,8,8,0,0,0-3.05,5.46,9.64,9.64,0,0,0-.06,1.08,10.38,10.38,0,0,0,.1,1,8.49,8.49,0,0,0,4.84,6.49,8.72,8.72,0,0,0,8-.4,9,9,0,0,0,4.37-6.6,8.58,8.58,0,0,0,0-2,9.8,9.8,0,0,0-.41-2,9.25,9.25,0,0,0-2-3.43,9.36,9.36,0,0,0-7.08-3,9.81,9.81,0,0,0-9.54,10,10.34,10.34,0,0,0,2.66,6.67,10.23,10.23,0,0,0,6.19,3.28A10.76,10.76,0,0,0,243,179.3a11,11,0,0,0,4.46-4.82A10.41,10.41,0,0,0,248.41,171.38Z"/><path class="cls-37" d="M237.68,174.11A4.08,4.08,0,0,0,240.4,173a4.07,4.07,0,0,1-6.59-2.88,3.8,3.8,0,0,0,3.87,4Z"/><path class="cls-4" d="M237.88,164a5.74,5.74,0,1,0,5.74,5.74A5.74,5.74,0,0,0,237.88,164Zm0,9.84a4.1,4.1,0,1,1,4.1-4.1A4.09,4.09,0,0,1,237.88,173.86Z"/><path class="cls-38" d="M237.88,173.86a4.1,4.1,0,1,1,4.1-4.1A4.09,4.09,0,0,1,237.88,173.86Z"/><rect class="cls-36" x="237.88" y="180.62" width="59.62" height="2.02"/><rect class="cls-5" x="279.62" y="144.91" width="17.88" height="17.88"/><rect class="cls-5" x="250.75" y="144.91" width="11.04" height="17.88"/><rect class="cls-5" x="261.79" y="162.74" width="17.88" height="17.88"/><path class="cls-5" d="M282.31,117.12h6.19a8,8,0,0,1,8,8v8a3,3,0,0,1-3,3H274.31a0,0,0,0,1,0,0v-11A8,8,0,0,1,282.31,117.12Z"/><path class="cls-4" d="M288.5,116.12h-6.33v3.42h.94v8.84h1.51v-.94h9.83v5.39h3.05v-7.72A9,9,0,0,0,288.5,116.12Z"/><rect class="cls-4" x="273.53" y="132.15" width="0.78" height="3.97"/><path class="cls-39" d="M288.5,118.4h-6.33v3.43h.94v8.83h1.51v-.94h9.83v5.39h3.05V127.4A9,9,0,0,0,288.5,118.4Z"/><path class="cls-6" d="M282.31,119.4h6.19a8,8,0,0,1,8,8v8a3,3,0,0,1-3,3H274.31a0,0,0,0,1,0,0v-11A8,8,0,0,1,282.31,119.4Z"/><path class="cls-13" d="M288.5,119.4h-3.16v19h8.16a3,3,0,0,0,3-3v-8A8,8,0,0,0,288.5,119.4Z"/><path class="cls-2" d="M292.62,128.9a7.22,7.22,0,1,1-7.22-7.21A7.22,7.22,0,0,1,292.62,128.9Z"/><path class="cls-3" d="M285.4,121.69h0v14.43h0a7.22,7.22,0,1,0,0-14.43Z"/><path class="cls-4" d="M285.42,135.37v-2a3.94,3.94,0,0,0,.77-.07l.35,2A5.91,5.91,0,0,1,285.42,135.37Zm-3.23-.85a6.66,6.66,0,0,1-.93-.64l1.28-1.54a4.55,4.55,0,0,0,.64.44Zm7.38-.67-1.29-1.53a3.58,3.58,0,0,0,.55-.55l1.54,1.29A7.46,7.46,0,0,1,289.57,133.85Zm-10.24-2.7a5.84,5.84,0,0,1-.29-1.09l2-.35a3.86,3.86,0,0,0,.2.74ZM291.78,130l-2-.34a5.12,5.12,0,0,0,.06-.78l1.59-.05h.41A7.09,7.09,0,0,1,291.78,130Zm-10.59-2.62-1.88-.67a6,6,0,0,1,.47-1l1.73,1A5.69,5.69,0,0,0,281.19,127.4Zm8.06-.77a4.09,4.09,0,0,0-.45-.64l1.52-1.3a7.18,7.18,0,0,1,.65.91Zm-6.11-1.58-1-1.73a6.23,6.23,0,0,1,1-.48l.7,1.87A4.52,4.52,0,0,0,283.14,125.05Zm3.76-.36a5,5,0,0,0-.76-.2l.33-2a6.7,6.7,0,0,1,1.09.28Z"/><rect class="cls-39" x="273.53" y="134.43" width="0.78" height="3.97"/><rect class="cls-26" x="255.75" y="136.12" width="17.78" height="2.28"/><rect class="cls-39" x="255.09" y="137.26" width="0.66" height="2.28"/><rect class="cls-4" x="255.09" y="136.12" width="0.66" height="2.28"/><rect class="cls-22" x="272.04" y="136.53" width="1.24" height="0.41" transform="translate(409.39 -135.92) rotate(90)"/><rect class="cls-22" x="270.92" y="136.53" width="1.24" height="0.41" transform="translate(408.28 -134.81) rotate(90)"/><rect class="cls-22" x="269.81" y="136.53" width="1.24" height="0.41" transform="translate(407.16 -133.69) rotate(90)"/><rect class="cls-22" x="268.39" y="136.84" width="1.85" height="0.41" transform="translate(406.35 -132.27) rotate(90)"/><rect class="cls-22" x="267.58" y="136.53" width="1.24" height="0.41" transform="translate(404.93 -131.46) rotate(90)"/><rect class="cls-22" x="266.46" y="136.53" width="1.24" height="0.41" transform="translate(403.81 -130.34) rotate(90)"/><rect class="cls-22" x="265.35" y="136.53" width="1.24" height="0.41" transform="translate(402.7 -129.23) rotate(90)"/><rect class="cls-22" x="264.23" y="136.53" width="1.24" height="0.41" transform="translate(401.58 -128.11) rotate(90)"/><rect class="cls-22" x="263.11" y="136.53" width="1.24" height="0.41" transform="translate(400.47 -127) rotate(90)"/><rect class="cls-22" x="262" y="136.53" width="1.24" height="0.41" transform="translate(399.35 -125.88) rotate(90)"/><rect class="cls-22" x="260.58" y="136.84" width="1.85" height="0.41" transform="translate(398.54 -124.46) rotate(90)"/><rect class="cls-22" x="259.77" y="136.53" width="1.24" height="0.41" transform="translate(397.12 -123.65) rotate(90)"/><rect class="cls-22" x="258.65" y="136.53" width="1.24" height="0.41" transform="translate(396 -122.53) rotate(90)"/><rect class="cls-22" x="257.53" y="136.53" width="1.24" height="0.41" transform="translate(394.89 -121.42) rotate(90)"/><rect class="cls-22" x="256.11" y="136.84" width="1.85" height="0.41" transform="translate(394.08 -120) rotate(90)"/><path class="cls-2" d="M353.67,175.33a5.19,5.19,0,0,1-5.19-5.2v-11.3a5.19,5.19,0,0,1,5.19-5.2h8.23a3.75,3.75,0,0,1,3.15,1.71,10.94,10.94,0,0,0,18.35,0,3.76,3.76,0,0,1,3.15-1.71h7.28a13.7,13.7,0,0,0,13.7-13.7V128.62a13.71,13.71,0,0,0-13.7-13.7H339.5v8.51h54.33a5.19,5.19,0,0,1,5.19,5.19v11.31a5.19,5.19,0,0,1-5.19,5.2h-7.28a3.76,3.76,0,0,1-3.15-1.71,10.94,10.94,0,0,0-18.35,0,3.75,3.75,0,0,1-3.15,1.71h-8.23a13.7,13.7,0,0,0-13.7,13.7v11.3a13.7,13.7,0,0,0,13.7,13.7H408v-8.5Z"/><path class="cls-3" d="M357.33,175.33h-3.66a5.19,5.19,0,0,1-5.19-5.2v-11.3a5.19,5.19,0,0,1,5.19-5.2h8.23a3.75,3.75,0,0,1,3.15,1.71,10.94,10.94,0,0,0,18.35,0,3.76,3.76,0,0,1,3.15-1.71h3.28v-8.5h-3.28a3.76,3.76,0,0,1-3.15-1.71,10.94,10.94,0,0,0-18.35,0,3.75,3.75,0,0,1-3.15,1.71h-8.23a13.7,13.7,0,0,0-13.7,13.7v11.3a13.7,13.7,0,0,0,13.7,13.7h3.66Z"/><rect class="cls-3" x="357" y="175.33" width="0.33" height="8.5"/><path class="cls-2" d="M389.83,149.83v-4.7h-3.28a3.76,3.76,0,0,1-3.15-1.71,10.94,10.94,0,0,0-18.35,0,3.75,3.75,0,0,1-3.15,1.71H357v4.7Z"/><path class="cls-3" d="M393.83,114.92h-3.66v5.63a9.22,9.22,0,0,1,4.16-1.2c4.59-.21,8.49,4.05,8.49,8.48v13.5a8.64,8.64,0,0,1-8.49,8.49,7.47,7.47,0,0,1-1.5-.11v3.92h1a13.7,13.7,0,0,0,13.7-13.7V128.62A13.71,13.71,0,0,0,393.83,114.92Z"/><path class="cls-2" d="M358.17,178.52a9.22,9.22,0,0,1-4.84,1.63c-4.58.21-8.48-4.05-8.48-8.48v-13a8.64,8.64,0,0,1,8.48-8.49,7.65,7.65,0,0,1,4.84,1.54v-6.59h-4.5a13.7,13.7,0,0,0-13.7,13.7v11.3a13.7,13.7,0,0,0,13.7,13.7h4.5Z"/><rect class="cls-3" x="344.07" y="119.49" width="48.43" height="3.94"/><path class="cls-3" d="M358.24,179.89l-.24,0v4h50v-3.94Z"/><rect class="cls-5" x="339.5" y="113.4" width="6.45" height="11.54"/><rect class="cls-6" x="339.5" y="119.29" width="6.45" height="5.66"/><rect class="cls-5" x="387.53" y="113.4" width="6.45" height="11.54"/><rect class="cls-6" x="387.53" y="119.29" width="6.45" height="5.66"/><rect class="cls-5" x="354.47" y="174.09" width="6.45" height="11.54"/><rect class="cls-6" x="354.47" y="179.97" width="6.45" height="5.66"/><rect class="cls-5" x="401.55" y="174.09" width="6.45" height="11.54"/><rect class="cls-6" x="401.55" y="179.97" width="6.45" height="5.66"/><rect class="cls-5" x="387.53" y="143.61" width="6.45" height="11.54"/><rect class="cls-6" x="387.53" y="149.49" width="6.45" height="5.66"/><rect class="cls-5" x="354.47" y="143.61" width="6.45" height="11.54"/><rect class="cls-6" x="354.47" y="149.49" width="6.45" height="5.66"/><path class="cls-22" d="M375.21,140.92a9.44,9.44,0,1,0,9.43,9.43A9.44,9.44,0,0,0,375.21,140.92Zm0,16.56a7.13,7.13,0,1,1,7.12-7.13A7.13,7.13,0,0,1,375.21,157.48Z"/><path class="cls-22" d="M378.4,150.35a3.2,3.2,0,1,1-3.2-3.19A3.2,3.2,0,0,1,378.4,150.35Z"/><rect class="cls-22" x="377.05" y="149.71" width="6.48" height="1.3"/><rect class="cls-22" x="371.96" y="144.62" width="6.48" height="1.3" transform="translate(229.94 520.47) rotate(-90)"/><rect class="cls-22" x="366.87" y="149.71" width="6.49" height="1.3" transform="translate(740.23 300.71) rotate(180)"/><rect class="cls-22" x="371.96" y="154.8" width="6.49" height="1.3" transform="translate(530.65 -219.76) rotate(90)"/><path class="cls-22" d="M377.74,150.35a2.54,2.54,0,1,1-2.54-2.53A2.54,2.54,0,0,1,377.74,150.35Z"/><polygon class="cls-22" points="374.11 152.25 373.02 150.35 374.11 148.46 376.3 148.46 377.39 150.35 376.3 152.25 374.11 152.25"/><path class="cls-22" d="M376.18,150.35a1,1,0,1,1-1.95,0,1,1,0,0,1,1.95,0Z"/><path class="cls-9" d="M374.23,140a9.43,9.43,0,1,0,9.43,9.43A9.43,9.43,0,0,0,374.23,140Zm0,16.55a7.13,7.13,0,1,1,7.12-7.12A7.13,7.13,0,0,1,374.23,156.5Z"/><path class="cls-9" d="M377.43,149.38a3.2,3.2,0,1,1-3.2-3.2A3.21,3.21,0,0,1,377.43,149.38Z"/><rect class="cls-9" x="376.08" y="148.73" width="6.49" height="1.3"/><rect class="cls-9" x="370.99" y="143.64" width="6.48" height="1.3" transform="translate(229.94 518.52) rotate(-90)"/><rect class="cls-9" x="365.9" y="148.73" width="6.48" height="1.3" transform="translate(738.28 298.76) rotate(180)"/><rect class="cls-9" x="370.99" y="153.82" width="6.48" height="1.3" transform="translate(528.7 -219.76) rotate(90)"/><path class="cls-21" d="M376.76,149.38a2.54,2.54,0,1,1-2.53-2.54A2.53,2.53,0,0,1,376.76,149.38Z"/><polygon class="cls-3" points="373.14 151.27 372.04 149.38 373.14 147.49 375.32 147.49 376.41 149.38 375.32 151.27 373.14 151.27"/><path class="cls-2" d="M375.2,149.38a1,1,0,0,1-1.95,0,1,1,0,1,1,1.95,0Z"/><path class="cls-40" d="M342.73,132.82h0l0-.1a3.49,3.49,0,0,0-.34-.7l-2.86-6-2.86,6a3.24,3.24,0,0,0-.34.7l0,.1h0a3.53,3.53,0,0,0-.17,1,3.4,3.4,0,1,0,6.8,0A3.53,3.53,0,0,0,342.73,132.82Z"/><path class="cls-41" d="M342.73,132.82h0l0-.1a3.49,3.49,0,0,0-.34-.7l-2.86-6-.06.12v11.07h.06a3.4,3.4,0,0,0,3.4-3.41A3.53,3.53,0,0,0,342.73,132.82Z"/><path class="cls-2" d="M339.13,133.17A1.18,1.18,0,1,1,338,132,1.17,1.17,0,0,1,339.13,133.17Z"/><polygon class="cls-3" points="55.93 227.41 55.93 239 37.36 239 37.36 248.74 0.22 248.74 0.22 297 72.5 297 72.5 227.41 55.93 227.41"/><rect class="cls-7" x="37.36" y="239" width="16.57" height="7.55"/><rect class="cls-7" x="55.93" y="239" width="16.57" height="7.55"/><rect class="cls-7" x="55.93" y="229.33" width="16.57" height="7.55"/><rect class="cls-7" x="0.22" y="248.68" width="16.57" height="7.55"/><rect class="cls-7" x="55.93" y="248.68" width="16.57" height="7.55"/><rect class="cls-7" x="0.22" y="258.36" width="16.57" height="7.55"/><rect class="cls-7" x="55.93" y="258.36" width="16.57" height="7.55"/><rect class="cls-7" x="0.22" y="268.03" width="16.57" height="7.55"/><rect class="cls-7" x="55.93" y="268.03" width="16.57" height="7.55"/><rect class="cls-7" x="0.22" y="277.71" width="16.57" height="7.55"/><rect class="cls-7" x="18.79" y="277.71" width="16.57" height="7.55"/><rect class="cls-7" x="37.36" y="277.71" width="16.57" height="7.55"/><rect class="cls-7" x="55.93" y="277.71" width="16.57" height="7.55"/><rect class="cls-7" x="0.22" y="287.39" width="16.57" height="7.55"/><rect class="cls-7" x="18.79" y="287.39" width="16.57" height="7.55"/><rect class="cls-7" x="37.36" y="287.39" width="16.57" height="7.55"/><rect class="cls-7" x="55.93" y="287.39" width="16.57" height="7.55"/><rect class="cls-42" x="18.79" y="248.68" width="35.14" height="36.58"/><rect class="cls-40" x="21.07" y="252.4" width="30.58" height="29.14" transform="translate(303.33 230.61) rotate(90)"/><polygon class="cls-43" points="44.28 251.68 21.79 251.68 21.79 282.26 23.38 282.26 44.28 251.68"/><rect class="cls-42" x="34.87" y="249.38" width="2.98" height="34.43"/><path class="cls-44" d="M23.79,247h0a7,7,0,0,1-7-7v-5.61a7,7,0,0,1,7-7h0a4.17,4.17,0,0,1,2.78,1.06l9.79,8.74L26.57,246A4.17,4.17,0,0,1,23.79,247Z"/><path class="cls-3" d="M16.79,237.14V240a7,7,0,0,0,7,7A4.17,4.17,0,0,0,26.57,246l9.79-8.75-.09-.07Z"/><path class="cls-22" d="M26.57,246l9.79-8.75-5.61-5a3.85,3.85,0,0,0-.69-.06,3.94,3.94,0,0,0-3.94,3.94,3.88,3.88,0,0,0,.77,2.31,3.45,3.45,0,0,0-1.64,2.93,3.74,3.74,0,0,0,.12.89l-.12,0a3.46,3.46,0,0,0-3.46,3.46,3.53,3.53,0,0,0,.2,1.13,7.17,7.17,0,0,0,1.8.24A4.17,4.17,0,0,0,26.57,246Z"/><path class="cls-4" d="M10.6,238.32h6.55a1.1,1.1,0,0,0,1.1-1.11h0a1.1,1.1,0,0,0-1.1-1.1H10.6Z"/><polygon class="cls-5" points="0.22 239.58 10.6 238.97 10.6 235.46 0.22 234.85 0.22 239.58"/><polygon class="cls-6" points="0.22 237.06 0.22 239.58 10.6 238.97 10.6 237.06 0.22 237.06"/><path class="cls-4" d="M128.67,225.87l3.84,3.84a3,3,0,0,1,0,4.24l-3,3a3,3,0,0,1-4.24,0l-3.84-3.84a10.34,10.34,0,1,0,7.21-7.21Z"/><path class="cls-4" d="M134.18,297.35l-3.83-3.83a3,3,0,0,1,0-4.24l3-3a3,3,0,0,1,4.24,0l3.83,3.83a10.34,10.34,0,1,0-7.21,7.21Z"/><rect class="cls-4" x="127.18" y="242.78" width="8.5" height="39.28"/><path class="cls-45" d="M131.43,282.06h0a2.36,2.36,0,0,1-2.36-2.36V245.14a2.36,2.36,0,0,1,2.36-2.36h0a2.36,2.36,0,0,1,2.36,2.36V279.7A2.36,2.36,0,0,1,131.43,282.06Z"/><path class="cls-45" d="M128.75,225.8a24.57,24.57,0,0,1,3.39,2l.75.52.38.29.09.07,0,0,0,0h0l.06.06.18.16a4.18,4.18,0,0,1,1.29,2.79,4.43,4.43,0,0,1-1,3.2c-.22.26-.31.34-.45.49l-.39.42-.79.83-1.73,1.62a4.45,4.45,0,0,1-3.21,1.06,4.22,4.22,0,0,1-2.76-1.26l-.24-.26-.15-.2a3.37,3.37,0,0,1-.28-.38l-.52-.75a23.75,23.75,0,0,1-2-3.38l.14-.15,2.73,2.68c.41.4.85.86,1.32,1.29a2.84,2.84,0,0,0,3.7-.07c.53-.51,1.07-1.08,1.6-1.62l1.62-1.6a2.84,2.84,0,0,0,.07-3.7c-.43-.47-.89-.91-1.29-1.32-1.6-1.64-2.68-2.73-2.68-2.73Z"/><path class="cls-45" d="M134.11,297.42a23.37,23.37,0,0,1-3.39-2l-.75-.52a4.61,4.61,0,0,1-.38-.28l-.1-.07-.05,0,0,0h0l-.05,0-.19-.16a4.2,4.2,0,0,1-1.29-2.79,4.46,4.46,0,0,1,1-3.2l.46-.5.39-.41.79-.83,1.73-1.63a4.47,4.47,0,0,1,3.2-1.05,4.13,4.13,0,0,1,2.76,1.26l.24.26.16.19c.09.13.19.25.28.39l.52.74a24.57,24.57,0,0,1,2,3.39l-.14.14-2.72-2.68c-.41-.39-.85-.85-1.32-1.28a2.87,2.87,0,0,0-1.81-.66,2.83,2.83,0,0,0-1.9.73c-.52.51-1.06,1.07-1.6,1.61l-1.61,1.6a2.85,2.85,0,0,0-.73,1.9,2.87,2.87,0,0,0,.66,1.8c.43.48.89.92,1.28,1.33l2.68,2.72Z"/><polygon class="cls-5" points="157.46 226.41 165.57 226.41 166.33 297.73 156.7 297.73 157.46 226.41"/><polygon class="cls-6" points="157.46 226.41 161.52 226.41 161.52 297.73 156.7 297.73 157.46 226.41"/><path class="cls-4" d="M145.07,232.59l8.13-3.34a1,1,0,0,1,1.06,1V230h2.25a6.1,6.1,0,0,1,10,0h2.25v.25a1,1,0,0,1,1.06-1l5.64.36a1,1,0,0,1,.94,1v5.81a1,1,0,0,1-.94,1l-5.64.36a1,1,0,0,1-1.06-1V237h-2.25a6.1,6.1,0,0,1-10,0h-2.25v-.25a1,1,0,0,1-1.06,1l-8.13-3.34A1,1,0,0,1,145.07,232.59Z"/><path class="cls-10" d="M176.41,233.4v3a1,1,0,0,1-.94,1l-5.64.36a1,1,0,0,1-1.06-1V237h-2.25a6.1,6.1,0,0,1-10,0h-2.25v-.25a1,1,0,0,1-1.06,1l-8.13-3.34a1,1,0,0,1-.61-1Z"/><path class="cls-45" d="M159.45,235.51h4.13a2,2,0,0,0,2-2h0a2,2,0,0,0-2-2h-4.13a2,2,0,0,0-2,2h0A2,2,0,0,0,159.45,235.51Z"/><rect class="cls-4" x="158.35" y="225.5" width="6.34" height="0.91" transform="translate(323.03 451.91) rotate(180)"/><rect class="cls-22" x="173.78" y="251.57" width="1.77" height="43.84"/><rect class="cls-46" x="174.66" y="251.57" width="0.88" height="43.84"/><path class="cls-21" d="M174.66,294.53a.88.88,0,0,0-.88.88l.88,2.36.89-2.36A.88.88,0,0,0,174.66,294.53Z"/><rect class="cls-21" x="172.03" y="250.13" width="5.27" height="1.45"/><rect class="cls-22" x="174.66" y="250.13" width="2.63" height="1.45"/><polygon class="cls-22" points="172.03 251.57 174.66 252.4 177.3 251.57 172.03 251.57"/><polygon class="cls-46" points="174.66 251.57 174.66 252.4 177.3 251.57 174.66 251.57"/><rect class="cls-22" x="180.78" y="265.08" width="1.77" height="30.33"/><rect class="cls-46" x="181.67" y="265.08" width="0.88" height="30.33"/><path class="cls-21" d="M181.67,294.53a.88.88,0,0,0-.89.88l.89,2.36.88-2.36A.88.88,0,0,0,181.67,294.53Z"/><rect class="cls-21" x="179.03" y="263.64" width="5.27" height="1.45"/><rect class="cls-22" x="181.67" y="263.64" width="2.64" height="1.45"/><polygon class="cls-22" points="179.03 265.08 181.67 265.91 184.3 265.08 179.03 265.08"/><polygon class="cls-46" points="181.67 265.08 181.67 265.91 184.3 265.08 181.67 265.08"/><rect class="cls-15" x="114.18" y="261.75" width="4.35" height="34.83"/><rect class="cls-22" x="114.18" y="295.75" width="4.35" height="0.84"/><rect class="cls-22" x="114.18" y="294.11" width="4.35" height="0.84"/><rect class="cls-22" x="114.18" y="292.47" width="4.35" height="0.84"/><rect class="cls-22" x="114.18" y="290.83" width="4.35" height="0.84"/><rect class="cls-22" x="114.18" y="289.19" width="4.35" height="0.84"/><rect class="cls-22" x="114.18" y="287.55" width="4.35" height="0.84"/><rect class="cls-22" x="114.18" y="285.92" width="4.35" height="0.84"/><rect class="cls-22" x="114.18" y="284.28" width="4.35" height="0.84"/><rect class="cls-22" x="114.18" y="282.64" width="4.35" height="0.84"/><rect class="cls-22" x="114.18" y="281" width="4.35" height="0.84"/><rect class="cls-22" x="114.18" y="279.36" width="4.35" height="0.84"/><rect class="cls-22" x="114.18" y="277.72" width="4.35" height="0.84"/><rect class="cls-22" x="114.18" y="276.09" width="4.35" height="0.84"/><rect class="cls-22" x="114.18" y="274.45" width="4.35" height="0.84"/><rect class="cls-47" x="116.36" y="261.75" width="2.17" height="34.83"/><rect class="cls-48" x="112.96" y="258.21" width="6.79" height="3.54"/><rect class="cls-49" x="114.52" y="258.21" width="3.68" height="3.54"/><path class="cls-15" d="M151.54,244.56a3.71,3.71,0,1,0,3.71,3.71A3.71,3.71,0,0,0,151.54,244.56Zm0,5.66a2,2,0,1,1,2-1.95A1.95,1.95,0,0,1,151.54,250.22Z"/><path class="cls-47" d="M151.6,244.57v1.76a1.95,1.95,0,0,1,0,3.89V252a3.71,3.71,0,0,0,0-7.41Z"/><path class="cls-15" d="M141.13,269.62a3.71,3.71,0,1,0,3.71,3.71A3.71,3.71,0,0,0,141.13,269.62Zm0,5.66a1.95,1.95,0,1,1,2-1.95A2,2,0,0,1,141.13,275.28Z"/><path class="cls-47" d="M141.19,269.62v1.76a1.95,1.95,0,0,1,0,3.89V277a3.71,3.71,0,0,0,0-7.41Z"/><path class="cls-21" d="M151.19,256.55h-4.93l-2.46,4.27,2.46,4.26h4.93l2.47-4.26Zm-2.46,6.23a2,2,0,1,1,2-2A2,2,0,0,1,148.73,262.78Z"/><path class="cls-50" d="M148.75,256.55a4.27,4.27,0,1,0,4.27,4.27A4.27,4.27,0,0,0,148.75,256.55Zm0,6.23a2,2,0,1,1,2-2A2,2,0,0,1,148.73,262.78Z"/><path class="cls-47" d="M148.75,256.55h0v2.31h0a2,2,0,0,1,0,3.93h0v2.3h0a4.27,4.27,0,1,0,0-8.53Z"/><rect class="cls-51" x="225" y="225.5" width="72.5" height="72.5"/><rect class="cls-52" x="261.25" y="225.5" width="36.25" height="72.5"/><path class="cls-4" d="M295,295.5H227.5V228H295Zm-66.5-1H294V229H228.5Z"/><path class="cls-4" d="M279.63,277.43H242.87V247.3h36.76Zm-34.76-2h32.76V249.3H244.87Z"/><path class="cls-4" d="M269.37,269.08H253.13V255.65h16.24Zm-14.24-2h12.24v-9.43H255.13Z"/><path class="cls-4" d="M284.93,249.3H237.66l23.21-16.68Zm-41.06-2h34.67l-17.65-12.23Z"/><path class="cls-4" d="M295,295.5H227.5V284H295Zm-66.5-1H294V285H228.5Z"/><path class="cls-4" d="M295,295.5H260.75v-6.26H295Zm-33.25-1H294v-4.26H261.75Z"/><path class="cls-4" d="M295,295.5H260.75V284H295Zm-33.25-1H294V285H261.75Z"/><path class="cls-4" d="M261.75,280.64h-1v-3h1Zm0-4h-1v-1h1Zm0-2h-1v-3h1Zm0-4h-1v-1h1Zm0-2h-1v-3h1Zm0-4h-1v-1h1Zm0-2h-1v-3h1Zm0-4h-1v-1h1Zm0-2h-1v-3h1Zm0-4h-1v-1h1Zm0-2h-1v-3h1Zm0-4h-1v-1h1Zm0-2h-1v-3h1Zm0-4h-1v-1h1Zm0-2h-1v-3h1Zm0-4h-1v-1h1Zm0-2h-1v-3h1Z"/><g class="cls-19"><rect class="cls-22" x="233.56" y="239.95" width="8.62" height="39.67"/><rect class="cls-22" x="235.78" y="239.95" width="4.18" height="39.67"/><rect class="cls-22" x="233.15" y="234.95" width="9.44" height="5"/><path class="cls-22" d="M236.53,232.44h2.69a2.5,2.5,0,0,1,2.5,2.5v0a0,0,0,0,1,0,0H234a0,0,0,0,1,0,0v0A2.5,2.5,0,0,1,236.53,232.44Z"/><rect class="cls-22" x="237.87" y="234.95" width="4.72" height="5"/><polygon class="cls-22" points="233.56 279.61 237.87 291.06 242.18 279.61 233.56 279.61"/><polygon class="cls-22" points="236.76 288.11 238.98 288.11 242.18 279.61 233.56 279.61 236.76 288.11"/><polygon class="cls-22" points="237.81 279.61 237.81 288.11 238.98 288.11 242.18 279.61 237.81 279.61"/></g><rect class="cls-6" x="229.75" y="239.95" width="8.62" height="39.67"/><rect class="cls-5" x="231.97" y="239.95" width="4.18" height="39.67"/><rect class="cls-2" x="229.34" y="234.95" width="9.44" height="5"/><path class="cls-7" d="M232.72,232.44h2.69a2.5,2.5,0,0,1,2.5,2.5v0a0,0,0,0,1,0,0h-7.69a0,0,0,0,1,0,0v0A2.5,2.5,0,0,1,232.72,232.44Z"/><rect class="cls-3" x="234.06" y="234.95" width="4.72" height="5"/><polygon class="cls-11" points="229.75 279.61 234.06 291.06 238.37 279.61 229.75 279.61"/><polygon class="cls-53" points="232.95 288.11 235.17 288.11 238.37 279.61 229.75 279.61 232.95 288.11"/><polygon class="cls-54" points="234 279.61 234 288.11 235.17 288.11 238.37 279.61 234 279.61"/><g class="cls-19"><path class="cls-22" d="M294,232.44H285.5v58.62H294a3.24,3.24,0,0,0,3.24-3.24V235.68A3.24,3.24,0,0,0,294,232.44Zm-1,55.93a2.14,2.14,0,1,1,2.14-2.13A2.13,2.13,0,0,1,293,288.37Z"/><rect class="cls-22" x="285.5" y="236.79" width="4.27" height="0.94"/><rect class="cls-22" x="285.5" y="239.37" width="2.85" height="0.94"/><rect class="cls-22" x="285.5" y="241.95" width="2.85" height="0.94"/><rect class="cls-22" x="285.5" y="244.53" width="2.85" height="0.94"/><rect class="cls-22" x="285.5" y="247.1" width="4.27" height="0.94"/><rect class="cls-22" x="285.5" y="249.68" width="2.85" height="0.94"/><rect class="cls-22" x="285.5" y="252.26" width="2.85" height="0.94"/><rect class="cls-22" x="285.5" y="254.84" width="2.85" height="0.94"/><rect class="cls-22" x="285.5" y="257.42" width="4.27" height="0.94"/><rect class="cls-22" x="285.5" y="259.99" width="2.85" height="0.94"/><rect class="cls-22" x="285.5" y="262.57" width="2.85" height="0.94"/><rect class="cls-22" x="285.5" y="265.15" width="2.85" height="0.94"/><rect class="cls-22" x="285.5" y="267.72" width="2.85" height="0.94"/><rect class="cls-22" x="285.5" y="270.3" width="2.85" height="0.94"/><rect class="cls-22" x="285.5" y="272.88" width="2.85" height="0.94"/><rect class="cls-22" x="285.5" y="275.46" width="4.27" height="0.94"/><rect class="cls-22" x="285.5" y="278.04" width="2.85" height="0.94"/><rect class="cls-22" x="285.5" y="280.61" width="2.85" height="0.94"/><rect class="cls-22" x="285.5" y="283.19" width="2.85" height="0.94"/><rect class="cls-22" x="285.5" y="285.77" width="4.27" height="0.94"/><path class="cls-22" d="M294,232.44h-4.22v58.62H294a3.24,3.24,0,0,0,3.24-3.24V235.68A3.24,3.24,0,0,0,294,232.44Zm-1,55.93a2.14,2.14,0,1,1,2.14-2.13A2.13,2.13,0,0,1,293,288.37Z"/></g><path class="cls-5" d="M292,232.44H283.5v58.62H292a3.24,3.24,0,0,0,3.24-3.24V235.68A3.24,3.24,0,0,0,292,232.44Zm-1,55.93a2.14,2.14,0,1,1,2.14-2.13A2.13,2.13,0,0,1,291,288.37Z"/><rect class="cls-4" x="283.5" y="236.79" width="4.27" height="0.94"/><rect class="cls-4" x="283.5" y="239.37" width="2.85" height="0.94"/><rect class="cls-4" x="283.5" y="241.95" width="2.85" height="0.94"/><rect class="cls-4" x="283.5" y="244.53" width="2.85" height="0.94"/><rect class="cls-4" x="283.5" y="247.1" width="4.27" height="0.94"/><rect class="cls-4" x="283.5" y="249.68" width="2.85" height="0.94"/><rect class="cls-4" x="283.5" y="252.26" width="2.85" height="0.94"/><rect class="cls-4" x="283.5" y="254.84" width="2.85" height="0.94"/><rect class="cls-4" x="283.5" y="257.42" width="4.27" height="0.94"/><rect class="cls-4" x="283.5" y="259.99" width="2.85" height="0.94"/><rect class="cls-4" x="283.5" y="262.57" width="2.85" height="0.94"/><rect class="cls-4" x="283.5" y="265.15" width="4.13" height="0.94"/><rect class="cls-4" x="283.5" y="267.72" width="2.85" height="0.94"/><rect class="cls-4" x="283.5" y="270.3" width="2.85" height="0.94"/><rect class="cls-4" x="283.5" y="272.88" width="2.85" height="0.94"/><rect class="cls-4" x="283.5" y="275.46" width="4.27" height="0.94"/><rect class="cls-4" x="283.5" y="278.04" width="2.85" height="0.94"/><rect class="cls-4" x="283.5" y="280.61" width="2.85" height="0.94"/><rect class="cls-4" x="283.5" y="283.19" width="2.85" height="0.94"/><rect class="cls-4" x="283.5" y="285.77" width="4.27" height="0.94"/><path class="cls-6" d="M292,232.44h-4.22v58.62H292a3.24,3.24,0,0,0,3.24-3.24V235.68A3.24,3.24,0,0,0,292,232.44Zm-1,55.93a2.14,2.14,0,1,1,2.14-2.13A2.13,2.13,0,0,1,291,288.37Z"/><rect class="cls-5" x="341.14" y="228.72" width="65.22" height="13.91"/><rect class="cls-55" x="373.75" y="228.72" width="32.61" height="13.91"/><rect class="cls-56" x="341.14" y="238.68" width="65.22" height="1.08"/><rect class="cls-56" x="341.14" y="231.59" width="65.22" height="1.08"/><rect class="cls-4" x="402.31" y="227.87" width="4.05" height="15.62"/><rect class="cls-4" x="341.14" y="227.87" width="4.05" height="15.62"/><rect class="cls-10" x="402.31" y="235.73" width="4.05" height="7.76"/><rect class="cls-10" x="341.14" y="235.73" width="4.05" height="7.76"/><path class="cls-4" d="M379.16,235.68a5.41,5.41,0,1,1-5.41-5.41A5.41,5.41,0,0,1,379.16,235.68Z"/><circle class="cls-2" cx="373.75" cy="235.68" r="3.73"/><path class="cls-57" d="M377.47,235.66H370v0a3.73,3.73,0,0,0,7.46,0Zm-2.85,1.26h-1.93a.6.6,0,0,1,0-1.19h1.93A.6.6,0,0,1,374.62,236.92Z"/><path class="cls-4" d="M373.73,238.9v-1a1.72,1.72,0,0,0,.39,0l.17,1A3.43,3.43,0,0,1,373.73,238.9Zm-1.62-.43a2.91,2.91,0,0,1-.46-.32l.64-.77a2.27,2.27,0,0,0,.32.22Zm3.7-.33-.64-.77a1.72,1.72,0,0,0,.27-.27l.77.64A3,3,0,0,1,375.81,238.14Zm-5.13-1.36a2.55,2.55,0,0,1-.15-.54l1-.18a2.24,2.24,0,0,0,.1.37Zm6.24-.56-1-.17a1.72,1.72,0,0,0,0-.39l.79,0H377A3.68,3.68,0,0,1,376.92,236.22Zm-5.31-1.32-.94-.33a3,3,0,0,1,.23-.52l.87.5A3.73,3.73,0,0,0,371.61,234.9Zm4.05-.38a2.62,2.62,0,0,0-.23-.32l.76-.66a4.84,4.84,0,0,1,.33.46Zm-3.07-.8-.51-.86a2.38,2.38,0,0,1,.51-.24l.35.93Zm1.88-.18-.38-.1.17-1a5.54,5.54,0,0,1,.55.14Z"/><rect class="cls-4" x="394.71" y="229.37" width="2.14" height="0.84" transform="translate(625.57 -165.99) rotate(90)"/><rect class="cls-4" x="392.75" y="229.01" width="1.43" height="0.84" transform="translate(622.9 -164.02) rotate(90)"/><rect class="cls-4" x="390.43" y="229.01" width="1.43" height="0.84" transform="translate(620.58 -161.71) rotate(90)"/><rect class="cls-4" x="388.11" y="229.01" width="1.43" height="0.84" transform="translate(618.26 -159.39) rotate(90)"/><rect class="cls-4" x="385.44" y="229.37" width="2.14" height="0.84" transform="translate(616.29 -156.71) rotate(90)"/><rect class="cls-4" x="383.47" y="229.01" width="1.43" height="0.84" transform="translate(613.62 -154.75) rotate(90)"/><rect class="cls-4" x="381.15" y="229.01" width="1.43" height="0.84" transform="translate(611.3 -152.43) rotate(90)"/><rect class="cls-4" x="378.83" y="229.01" width="1.43" height="0.84" transform="translate(608.98 -150.11) rotate(90)"/><rect class="cls-4" x="376.16" y="229.37" width="2.14" height="0.84" transform="translate(607.02 -147.44) rotate(90)"/><rect class="cls-4" x="374.19" y="229.01" width="1.43" height="0.84" transform="translate(604.35 -145.47) rotate(90)"/><rect class="cls-4" x="371.88" y="229.01" width="1.43" height="0.84" transform="translate(602.03 -143.15) rotate(90)"/><rect class="cls-4" x="369.2" y="229.37" width="2.14" height="0.84" transform="translate(600.06 -140.48) rotate(90)"/><rect class="cls-4" x="367.24" y="229.01" width="1.43" height="0.84" transform="translate(597.39 -138.52) rotate(90)"/><rect class="cls-4" x="364.92" y="229.01" width="1.43" height="0.84" transform="translate(595.07 -136.2) rotate(90)"/><rect class="cls-4" x="362.6" y="229.01" width="1.43" height="0.84" transform="translate(592.75 -133.88) rotate(90)"/><rect class="cls-4" x="359.93" y="229.37" width="2.14" height="0.84" transform="translate(590.79 -131.21) rotate(90)"/><rect class="cls-4" x="357.96" y="229.01" width="1.43" height="0.84" transform="translate(588.11 -129.24) rotate(90)"/><rect class="cls-4" x="355.64" y="229.01" width="1.43" height="0.84" transform="translate(585.79 -126.92) rotate(90)"/><rect class="cls-4" x="353.33" y="229.01" width="1.43" height="0.84" transform="translate(583.48 -124.6) rotate(90)"/><rect class="cls-4" x="350.65" y="229.37" width="2.14" height="0.84" transform="translate(581.51 -121.93) rotate(90)"/><rect class="cls-44" x="337.5" y="243.49" width="72.5" height="8.77"/><path class="cls-58" d="M341.14,252.26h65.22a0,0,0,0,1,0,0v10.93a20,20,0,0,1-20,20H361.14a20,20,0,0,1-20-20V252.26A0,0,0,0,1,341.14,252.26Z"/><rect class="cls-3" x="373.6" y="243.49" width="36.4" height="8.77"/><path class="cls-21" d="M373.6,252.26v30.93h12.76a20,20,0,0,0,20-20V252.26Z"/><path class="cls-10" d="M354.14,275.93h5.28a2,2,0,0,1,2,2V293a0,0,0,0,1,0,0h-9.28a0,0,0,0,1,0,0V277.93A2,2,0,0,1,354.14,275.93Z"/><path class="cls-10" d="M386.08,275.93h9.28a0,0,0,0,1,0,0V291a2,2,0,0,1-2,2h-5.28a2,2,0,0,1-2-2V275.93A0,0,0,0,1,386.08,275.93Z" transform="translate(781.44 568.93) rotate(180)"/><polygon class="cls-4" points="362.98 290.06 350.58 290.06 349.93 293.01 363.63 293.01 362.98 290.06"/><polygon class="cls-4" points="396.92 290.06 384.52 290.06 383.87 293.01 397.57 293.01 396.92 290.06"/><path class="cls-11" d="M337.5,293.11H410a0,0,0,0,1,0,0v0a3.89,3.89,0,0,1-3.89,3.89H341.39a3.89,3.89,0,0,1-3.89-3.89v0A0,0,0,0,1,337.5,293.11Z"/><rect class="cls-21" x="121.09" y="391.88" width="55.32" height="10.7"/><rect class="cls-22" x="121.09" y="397.23" width="55.32" height="5.35"/><rect class="cls-21" x="121.09" y="344.3" width="55.32" height="10.7"/><rect class="cls-22" x="121.09" y="349.65" width="55.32" height="5.35"/><path class="cls-59" d="M130.76,410.5h0a6.27,6.27,0,0,1-6.27-6.27v-60a6.27,6.27,0,0,1,6.27-6.27h0a6.27,6.27,0,0,1,6.27,6.27v60A6.27,6.27,0,0,1,130.76,410.5Z"/><path class="cls-3" d="M130.76,338h-.08v72.5h.08a6.27,6.27,0,0,0,6.27-6.27v-60A6.27,6.27,0,0,0,130.76,338Z"/><path class="cls-59" d="M148.75,410.5h0a6.27,6.27,0,0,1-6.27-6.27v-60a6.27,6.27,0,0,1,6.27-6.27h0a6.27,6.27,0,0,1,6.27,6.27v60A6.27,6.27,0,0,1,148.75,410.5Z"/><path class="cls-3" d="M148.75,338h-.08v72.5h.08a6.27,6.27,0,0,0,6.27-6.27v-60A6.27,6.27,0,0,0,148.75,338Z"/><path class="cls-59" d="M166.74,410.5h0a6.27,6.27,0,0,1-6.27-6.27v-60a6.27,6.27,0,0,1,6.27-6.27h0a6.27,6.27,0,0,1,6.27,6.27v60A6.27,6.27,0,0,1,166.74,410.5Z"/><path class="cls-3" d="M166.74,338h-.07v72.5h.07a6.27,6.27,0,0,0,6.27-6.27v-60A6.27,6.27,0,0,0,166.74,338Z"/><rect class="cls-21" x="121.09" y="391.88" width="3.4" height="10.7"/><rect class="cls-22" x="121.09" y="397.23" width="3.4" height="5.35"/><rect class="cls-21" x="121.09" y="344.3" width="3.4" height="10.7"/><rect class="cls-22" x="121.09" y="349.65" width="3.4" height="5.35"/><path class="cls-3" d="M121.09,399.23H118.5a6,6,0,0,1-6-6V353.65a6,6,0,0,1,6-6h2.59v4H118.5a2,2,0,0,0-2,2v39.58a2,2,0,0,0,2,2h2.59Z"/><path class="cls-59" d="M114.77,394V353.35c0-3.66,4.78-4.22,6.28-1.7h0v-4H118.5a6,6,0,0,0-6,6v39.58a6,6,0,0,0,6,6h2.59v-3.57C119.65,398.26,114.77,397.73,114.77,394Z"/><rect class="cls-5" x="118.92" y="393.86" width="2.17" height="6.74"/><rect class="cls-6" x="118.92" y="397.23" width="2.17" height="3.37"/><rect class="cls-5" x="118.92" y="346.28" width="2.17" height="6.74"/><rect class="cls-6" x="118.92" y="349.65" width="2.17" height="3.37"/><rect class="cls-21" x="173.01" y="391.88" width="3.4" height="10.7" transform="translate(349.42 794.47) rotate(180)"/><rect class="cls-22" x="173.01" y="397.23" width="3.4" height="5.35" transform="translate(349.42 799.82) rotate(180)"/><rect class="cls-21" x="173.01" y="344.3" width="3.4" height="10.7" transform="translate(349.42 699.3) rotate(180)"/><rect class="cls-22" x="173.01" y="349.65" width="3.4" height="5.35" transform="translate(349.42 704.65) rotate(180)"/><path class="cls-3" d="M176.41,399.23H179a6,6,0,0,0,6-6V353.65a6,6,0,0,0-6-6h-2.59v4H179a2,2,0,0,1,2,2v39.58a2,2,0,0,1-2,2h-2.59Z"/><path class="cls-59" d="M182.73,394V353.35c0-3.66-4.78-4.22-6.28-1.7h0v-4H179a6,6,0,0,1,6,6v39.58a6,6,0,0,1-6,6h-2.59v-3.57C177.85,398.26,182.73,397.73,182.73,394Z"/><rect class="cls-5" x="176.41" y="393.86" width="2.17" height="6.74" transform="translate(354.99 794.47) rotate(180)"/><rect class="cls-6" x="176.41" y="397.23" width="2.17" height="3.37" transform="translate(354.99 797.84) rotate(180)"/><rect class="cls-5" x="176.41" y="346.28" width="2.17" height="6.74" transform="translate(354.99 699.3) rotate(180)"/><rect class="cls-6" x="176.41" y="349.65" width="2.17" height="3.37" transform="translate(354.99 702.67) rotate(180)"/><rect class="cls-5" x="180.14" y="365.33" width="6.17" height="16.21"/><rect class="cls-6" x="183.22" y="365.33" width="3.09" height="16.21"/><path class="cls-9" d="M189.78,373.44a6.56,6.56,0,1,1-6.56-6.56A6.56,6.56,0,0,1,189.78,373.44Z"/><path class="cls-2" d="M188.23,373.44a5,5,0,1,1-5-5A5,5,0,0,1,188.23,373.44Z"/><path class="cls-60" d="M183.22,368.44a5,5,0,1,1,0,10Z"/><path class="cls-4" d="M183.94,373.44a.72.72,0,1,1-.72-.71A.71.71,0,0,1,183.94,373.44Z"/><path class="cls-4" d="M183.2,378.33v-1.52a2.88,2.88,0,0,0,.59-.06l.27,1.5A4.8,4.8,0,0,1,183.2,378.33Zm-2.46-.65a4.88,4.88,0,0,1-.7-.49l1-1.17a3.3,3.3,0,0,0,.49.34Zm5.61-.51-1-1.16a5.44,5.44,0,0,0,.41-.42l1.17,1A4.93,4.93,0,0,1,186.35,377.17Zm-7.78-2.05a4.87,4.87,0,0,1-.23-.83l1.5-.27a4,4,0,0,0,.16.57Zm9.46-.86-1.5-.26a2.94,2.94,0,0,0,.05-.59l1.21,0h.31A4.19,4.19,0,0,1,188,374.26Zm-8.05-2-1.43-.51a5.51,5.51,0,0,1,.36-.78l1.32.76A3.65,3.65,0,0,0,180,372.26Zm6.13-.58a3.43,3.43,0,0,0-.34-.48l1.15-1a4.34,4.34,0,0,1,.5.69Zm-4.65-1.2-.77-1.31a4.93,4.93,0,0,1,.77-.37l.54,1.42A3.36,3.36,0,0,0,181.46,370.48Zm2.86-.28q-.28-.09-.57-.15l.25-1.5a4.5,4.5,0,0,1,.82.22Z"/><path class="cls-4" d="M185.1,371.44l-1.51,2.12-.6-.42L184.5,371a.37.37,0,0,1,.51-.08h0A.36.36,0,0,1,185.1,371.44Z"/><path class="cls-5" d="M184.84,371.37l-1.45,2.05-.2-.14,1.46-2a.12.12,0,0,1,.16,0h0A.12.12,0,0,1,184.84,371.37Z"/><path class="cls-5" d="M183.47,373.44a.25.25,0,1,1-.25-.25A.25.25,0,0,1,183.47,373.44Z"/><path class="cls-44" d="M229,364.78h64.5a4,4,0,0,1,4,4v3.11a0,0,0,0,1,0,0H225a0,0,0,0,1,0,0v-3.11A4,4,0,0,1,229,364.78Z"/><path class="cls-3" d="M279.54,398.32H243a12,12,0,0,1-11.85-10.11l-2.61-16.32H294l-2.61,16.32A12,12,0,0,1,279.54,398.32Z"/><path class="cls-21" d="M261.33,371.89v26.43h18.21a12,12,0,0,0,11.85-10.11L294,371.89Z"/><path class="cls-4" d="M244.52,405.69h-6L240.8,397a2,2,0,0,1,1.94-1.5h3.73Z"/><path class="cls-4" d="M278,405.69h6L281.7,397a2,2,0,0,0-1.94-1.5H276Z"/><rect class="cls-2" x="227.56" y="366.29" width="67.08" height="3.35" rx="1.67" ry="1.67"/><rect class="cls-2" x="278.27" y="348.55" width="3.2" height="2.95"/><path class="cls-5" d="M278.92,345.6h1.89a1,1,0,0,1,1,1v2.68a0,0,0,0,1,0,0h-3.89a0,0,0,0,1,0,0V346.6A1,1,0,0,1,278.92,345.6Z"/><path class="cls-2" d="M279.78,349.72h.17a4,4,0,0,1,4,4v10.13a1,1,0,0,1-1,1h-6.17a1,1,0,0,1-1-1V353.72A4,4,0,0,1,279.78,349.72Z"/><path class="cls-5" d="M275.78,356v7.89a1,1,0,0,0,1,1H283a1,1,0,0,0,1-1V356Z"/><path class="cls-56" d="M279.1,358.21a.92.92,0,1,1-.92-.92A.92.92,0,0,1,279.1,358.21Z"/><path class="cls-56" d="M281.81,362.5a1.07,1.07,0,1,1-1.07-1.07A1.07,1.07,0,0,1,281.81,362.5Z"/><path class="cls-56" d="M278.18,361.14a.6.6,0,0,1-.6.59.6.6,0,0,1,0-1.19A.6.6,0,0,1,278.18,361.14Z"/><path class="cls-56" d="M282.73,358.79a.92.92,0,1,1-.92-.92A.92.92,0,0,1,282.73,358.79Z"/><path class="cls-47" d="M281.46,350v-.74h.35V346.6a1,1,0,0,0-1-1h-.95v19.25H283a1,1,0,0,0,1-1V353.72A4,4,0,0,0,281.46,350Z"/><rect class="cls-2" x="286.51" y="353.54" width="2.22" height="2.04"/><path class="cls-7" d="M287,351.49h1.32a.69.69,0,0,1,.69.69V354a0,0,0,0,1,0,0h-2.7a0,0,0,0,1,0,0v-1.86A.69.69,0,0,1,287,351.49Z"/><path class="cls-2" d="M287.56,354.35h.12a2.78,2.78,0,0,1,2.78,2.78v7a.69.69,0,0,1-.69.69h-4.28a.69.69,0,0,1-.69-.69v-7A2.78,2.78,0,0,1,287.56,354.35Z"/><path class="cls-7" d="M284.78,358.68v5.48a.69.69,0,0,0,.7.69h4.28a.69.69,0,0,0,.69-.69v-5.48Z"/><path class="cls-61" d="M287.08,360.24a.64.64,0,1,1-.63-.64A.64.64,0,0,1,287.08,360.24Z"/><path class="cls-61" d="M289,363.22a.75.75,0,1,1-.75-.75A.75.75,0,0,1,289,363.22Z"/><path class="cls-61" d="M286.45,362.27a.42.42,0,0,1-.42.42.41.41,0,0,1-.41-.42.41.41,0,0,1,.41-.41A.41.41,0,0,1,286.45,362.27Z"/><path class="cls-61" d="M289.61,360.64A.64.64,0,1,1,289,360,.64.64,0,0,1,289.61,360.64Z"/><path class="cls-47" d="M288.73,354.56V354H289v-1.85a.7.7,0,0,0-.7-.7h-.67v13.36h2.16a.69.69,0,0,0,.69-.69v-7A2.78,2.78,0,0,0,288.73,354.56Z"/><path class="cls-5" d="M231.58,362.27h-.07a2.51,2.51,0,0,0-2.51,2.51h5.09A2.51,2.51,0,0,0,231.58,362.27Z"/><path class="cls-6" d="M231.58,362.27v2.51h2.51A2.51,2.51,0,0,0,231.58,362.27Z"/><path class="cls-6" d="M232.54,363.53h-2V349.89a6.47,6.47,0,0,1,12.93,0v.5h-2v-.5a4.47,4.47,0,0,0-8.93,0Z"/><path class="cls-5" d="M237,343.43a6.47,6.47,0,0,0-6.46,6.46v13.64h1.05V349.88c0-7,10.83-7,10.83,0v.51h1.05v-.5A6.47,6.47,0,0,0,237,343.43Z"/><polygon class="cls-43" points="243.42 364.78 241.52 364.78 241.78 350.37 243.15 350.37 243.42 364.78"/><path class="cls-43" d="M246.34,363.12a.85.85,0,1,1-.84-.85A.85.85,0,0,1,246.34,363.12Z"/><path class="cls-43" d="M240.64,363.53a.94.94,0,1,1-.94-.95A.94.94,0,0,1,240.64,363.53Z"/><path class="cls-43" d="M240.87,361a.47.47,0,1,1-.47-.47A.47.47,0,0,1,240.87,361Z"/><path class="cls-43" d="M245,361.25a.61.61,0,1,1-.6-.61A.6.6,0,0,1,245,361.25Z"/><path class="cls-62" d="M280.22,382.79v-1.13a2,2,0,0,0-2-2h-5.79v-.53h-1.07V378a2,2,0,0,0-2-2H258.72a2,2,0,0,0-2,2v1.13h-1.13v.53h-5.78a2,2,0,0,0-2,2v1.13h-.68v4.34h.68l1.81,17.66a1,1,0,0,0,1,.9h16.11c0-.06,0-.11,0-.17v0c0-.17-.09-.34-.13-.51-.15-.62-.25-1.25-.34-1.88s-.19-1.38-.27-2.07c0-.33-.07-.53-.08-.62s0,.1,0,.15c0-.21,0-.25,0-.15-.39-2.95.78-5.54,3.8-6.52,2.44-.79,5.92.83,6.58,3.43.25.65,1.58,7.74,1.7,8.39a1,1,0,0,0,.42-.9l1.82-17.66h.67v-4.34Zm-10.4-3.66h-1.15v.53h-9.32v-.53h-1.09v-.8a1,1,0,0,1,1-1h9.56a1,1,0,0,1,1,1Z"/><path class="cls-63" d="M277.45,387.13h-32.4l1.81,17.66a1,1,0,0,0,1,.9h26.8a1,1,0,0,0,1-.9Z"/><rect class="cls-4" x="244.37" y="382.79" width="33.77" height="4.34"/><rect class="cls-4" x="252.83" y="388.05" width="2.24" height="3.59"/><rect class="cls-4" x="267.43" y="388.05" width="2.24" height="3.59"/><path class="cls-5" d="M254.42,389.48h-.94a1.84,1.84,0,0,1-1.84-1.84h0a1.84,1.84,0,0,1,1.84-1.83h.94a1.83,1.83,0,0,1,1.84,1.83h0A1.84,1.84,0,0,1,254.42,389.48Z"/><path class="cls-5" d="M268.08,389.48H269a1.84,1.84,0,0,0,1.84-1.84h0a1.84,1.84,0,0,0-1.84-1.83h-.94a1.83,1.83,0,0,0-1.84,1.83h0A1.84,1.84,0,0,0,268.08,389.48Z"/><path class="cls-63" d="M247,379.66h28.41a2,2,0,0,1,2,2v1.13a0,0,0,0,1,0,0H245a0,0,0,0,1,0,0v-1.13A2,2,0,0,1,247,379.66Z"/><rect class="cls-64" x="248.59" y="392.98" width="25.47" height="11.23" rx="5.61" ry="5.61"/><path class="cls-4" d="M254,378v1.66h1.54v-1.33a1,1,0,0,1,1-1h9.57a1,1,0,0,1,1,1v1.33h1.54V378a2,2,0,0,0-2-2H256A2,2,0,0,0,254,378Z"/><rect class="cls-10" x="252.83" y="379.13" width="3.75" height="0.53"/><rect class="cls-10" x="265.91" y="379.13" width="3.75" height="0.53"/><path class="cls-4" d="M271.46,397.81l-1.09,1.09a.85.85,0,0,1-1.2,0l-.84-.84a.83.83,0,0,1,0-1.2l1.08-1.09a2.93,2.93,0,1,0,2,2Z"/><path class="cls-4" d="M251.2,399.38l1.08-1.09a.86.86,0,0,1,1.21,0l.84.84a.85.85,0,0,1,0,1.2l-1.09,1.09a2.93,2.93,0,1,0-2-2Z"/><rect class="cls-4" x="259.89" y="393.03" width="2.41" height="11.13" transform="translate(659.69 137.5) rotate(90)"/><path class="cls-47" d="M277.45,382.79v-1.13a2,2,0,0,0-2-2h-5.78v-.53H268.6V378a2,2,0,0,0-2-2h-5.23v1.33h4.69a1,1,0,0,1,1,1v.8h-1.15v.53h-4.54v26h13.28a1,1,0,0,0,1-.9l1.81-17.66h.68v-4.34Z"/><rect class="cls-22" x="392.79" y="396.79" width="9.92" height="6.68" transform="translate(-142.11 236.26) rotate(-28.29)"/><rect class="cls-9" x="399.98" y="394.26" width="2.28" height="8.11" transform="translate(-140.89 237.78) rotate(-28.3)"/><path class="cls-3" d="M406.12,377.91H363.73c1.54,8.72,6.26,15.41,11.91,18.79a1.11,1.11,0,0,1,.38,1.58,10.46,10.46,0,0,0-2.22,7.53h22.25a10.46,10.46,0,0,0-2.22-7.53,1.11,1.11,0,0,1,.38-1.58C399.86,393.32,404.58,386.63,406.12,377.91Z"/><path class="cls-21" d="M394.21,396.7c5.65-3.38,10.37-10.07,11.91-18.79H385.41l-.1,27.9h10.74a10.46,10.46,0,0,0-2.22-7.53A1.11,1.11,0,0,1,394.21,396.7Z"/><path class="cls-65" d="M405.05,382.22a34.36,34.36,0,0,0,1.07-4.31H363.73a32.71,32.71,0,0,0,1.08,4.31Z"/><path class="cls-26" d="M399.46,344.42h2.26a5.93,5.93,0,0,1,5.93,5.93v22.52a2.37,2.37,0,0,1-2.37,2.37H393.53a0,0,0,0,1,0,0V350.35A5.93,5.93,0,0,1,399.46,344.42Z"/><path class="cls-66" d="M401.72,344.42h-1.28v30.82h4.84a2.37,2.37,0,0,0,2.37-2.37V350.35A5.93,5.93,0,0,0,401.72,344.42Z"/><rect class="cls-26" x="362.2" y="375.24" width="45.45" height="4.77" rx="2.38" ry="2.38"/><path class="cls-66" d="M405.27,375.24H385.41V380h19.86a2.39,2.39,0,0,0,2.38-2.38h0A2.39,2.39,0,0,0,405.27,375.24Z"/><path class="cls-2" d="M367.9,378.49H402a1.34,1.34,0,0,0,1.34-1.34h0a1.34,1.34,0,0,0-1.34-1.33H367.9a1.34,1.34,0,0,0-1.34,1.33h0A1.34,1.34,0,0,0,367.9,378.49Z"/><path class="cls-5" d="M388.57,372.38H367.45a2.86,2.86,0,0,0-2.87,2.86h26.86A2.87,2.87,0,0,0,388.57,372.38Z"/><path class="cls-2" d="M397,362.14h0a2.22,2.22,0,0,1-2.23-2.22v-9.28a2.23,2.23,0,0,1,2.23-2.23h0a2.22,2.22,0,0,1,2.22,2.23v9.28A2.21,2.21,0,0,1,397,362.14Z"/><rect class="cls-2" x="357.72" y="385.83" width="3.92" height="3.61"/><path class="cls-43" d="M358.52,382.22h2.32a1.23,1.23,0,0,1,1.23,1.23v3.28a0,0,0,0,1,0,0h-4.77a0,0,0,0,1,0,0v-3.28A1.23,1.23,0,0,1,358.52,382.22Z"/><path class="cls-2" d="M359.58,387.27h.2a4.9,4.9,0,0,1,4.9,4.9v12.41a1.22,1.22,0,0,1-1.22,1.22H355.9a1.22,1.22,0,0,1-1.22-1.22V392.17A4.9,4.9,0,0,1,359.58,387.27Z"/><path class="cls-57" d="M354.68,394.91v9.67a1.22,1.22,0,0,0,1.22,1.23h7.56a1.23,1.23,0,0,0,1.22-1.23v-9.67Z"/><circle class="cls-67" cx="357.61" cy="397.67" r="1.13"/><path class="cls-67" d="M362.06,402.93a1.31,1.31,0,1,1-1.31-1.32A1.31,1.31,0,0,1,362.06,402.93Z"/><path class="cls-67" d="M357.61,401.26a.73.73,0,1,1-.73-.73A.73.73,0,0,1,357.61,401.26Z"/><path class="cls-67" d="M363.19,398.38a1.13,1.13,0,1,1-1.13-1.13A1.12,1.12,0,0,1,363.19,398.38Z"/><path class="cls-47" d="M361.64,387.64v-.91h.42v-3.28a1.22,1.22,0,0,0-1.22-1.23h-1.17v23.59h3.79a1.23,1.23,0,0,0,1.22-1.23V392.17A4.9,4.9,0,0,0,361.64,387.64Z"/><path class="cls-5" d="M348,401.92h-3.83l-.47-39.58a2.39,2.39,0,0,1,2.38-2.41h0a2.39,2.39,0,0,1,2.38,2.41Z"/><path class="cls-6" d="M346.29,360v42H348l.47-39.58A2.39,2.39,0,0,0,346.29,360Z"/><path class="cls-4" d="M344.28,398h3.39a5.75,5.75,0,0,1,5.75,5.75V405a0,0,0,0,1,0,0h-14.9a0,0,0,0,1,0,0V403.8A5.75,5.75,0,0,1,344.28,398Z"/><path class="cls-10" d="M347.67,398H346v7h7.46V403.8A5.75,5.75,0,0,0,347.67,398Z"/><rect class="cls-10" x="338.13" y="405.02" width="15.7" height="0.79"/><rect class="cls-39" x="345.98" y="405.02" width="7.85" height="0.79"/><rect class="cls-10" x="343.65" y="395.95" width="4.77" height="2.13"/><rect class="cls-39" x="345.98" y="395.95" width="2.44" height="2.13"/><circle class="cls-2" cx="341.84" cy="400.85" r="1.37"/><path class="cls-68" d="M65.83,395.83a6.82,6.82,0,0,0-4.91-6.07l-9.28-2.69a3.41,3.41,0,0,1-2.46-3.28v-8.48H30.31v8.48a3.41,3.41,0,0,1-2.46,3.28l-9.29,2.69a6.85,6.85,0,0,0-4.91,6.07l-1,14.67H66.88Z"/><path class="cls-2" d="M65.83,395.83a6.82,6.82,0,0,0-4.91-6.07l-9.28-2.69a2.93,2.93,0,0,1-.4-.19,16.74,16.74,0,0,1-23,0,3.62,3.62,0,0,1-.4.19l-9.29,2.69a6.85,6.85,0,0,0-4.91,6.07l-1,14.67H66.88Z"/><path class="cls-69" d="M28.25,386.88a3.62,3.62,0,0,1-.4.19l-9.29,2.69a6.85,6.85,0,0,0-4.91,6.07l-1,14.67H66.88l-1-14.67a6.82,6.82,0,0,0-4.91-6.07l-9.28-2.69a2.93,2.93,0,0,1-.4-.19l-11.5,13.94Z"/><polygon class="cls-6" points="55.14 388.08 51.42 404.59 28.07 404.59 24.35 388.08 19.75 389.61 21.32 406.59 21.68 410.5 57.8 410.5 58.17 406.59 59.74 389.61 55.14 388.08"/><path class="cls-5" d="M27,407.3a1.69,1.69,0,1,1-1.68-1.69A1.69,1.69,0,0,1,27,407.3Z"/><path class="cls-5" d="M52.51,407.3a1.69,1.69,0,1,0,1.68-1.69A1.69,1.69,0,0,0,52.51,407.3Z"/><path class="cls-70" d="M39.74,382.85h0A16.81,16.81,0,0,1,22.93,366v-7.89a16.82,16.82,0,0,1,16.81-16.81h0a16.81,16.81,0,0,1,16.81,16.81V366A16.8,16.8,0,0,1,39.74,382.85Z"/><circle class="cls-70" cx="56.55" cy="366.64" r="4.05"/><circle class="cls-70" cx="22.93" cy="366.64" r="4.05"/><polygon class="cls-71" points="23.08 368.65 21.71 356.88 26.98 357.53 24.49 368.65 23.08 368.65"/><polygon class="cls-71" points="56.41 368.65 57.78 356.88 52.51 357.53 55 368.65 56.41 368.65"/><path class="cls-5" d="M57.8,361.18c0,1.5-8.08,2.71-18.06,2.71s-18.06-1.21-18.06-2.71,8.09-2.7,18.06-2.7S57.8,359.69,57.8,361.18Z"/><path class="cls-6" d="M57.8,361.18v-3.57a18.06,18.06,0,0,0-36.12,0v3.57Z"/><path class="cls-5" d="M32.71,340h0a1.85,1.85,0,0,0-1.85,1.84v19.34h3.69V341.84A1.85,1.85,0,0,0,32.71,340Z"/><path class="cls-5" d="M46.78,340h0a1.84,1.84,0,0,1,1.84,1.84v19.34H44.94V341.84A1.84,1.84,0,0,1,46.78,340Z"/><path class="cls-5" d="M39.74,338.71h0a1.84,1.84,0,0,0-1.84,1.84v20.63h3.69V340.55A1.84,1.84,0,0,0,39.74,338.71Z"/><path class="cls-71" d="M37.7,373.44h4.09a4,4,0,0,1,4,4v1a0,0,0,0,1,0,0H33.7a0,0,0,0,1,0,0v-1A4,4,0,0,1,37.7,373.44Z"/><path class="cls-72" d="M65.83,395.83a6.82,6.82,0,0,0-4.91-6.07l-9.28-2.69a3.41,3.41,0,0,1-2.46-3.28V380a16.87,16.87,0,0,0,6.73-9.33,4.48,4.48,0,0,0,.64.06,4,4,0,0,0,.56-8l.09-.77c.39-.23.6-.46.6-.7v-3.57a18,18,0,0,0-9.18-15.71v-.06A1.84,1.84,0,0,0,46.78,340a1.88,1.88,0,0,0-1.27.51,18.06,18.06,0,0,0-4.18-.88,1.87,1.87,0,0,0-1.46-.91V410.5h27Z"/><rect class="cls-68" x="8.21" y="391.92" width="6.4" height="5.32"/><polygon class="cls-68" points="8.21 391.92 6.5 387.77 11.07 384.81 15.65 388.56 14.61 391.92 8.21 391.92"/><polygon class="cls-73" points="16.3 397.23 6.5 397.23 6.5 410.5 17.3 410.5 16.3 397.23"/><polygon class="cls-40" points="16.3 397.23 11.41 397.23 11.41 410.5 17.3 410.5 16.3 397.23"/><rect class="cls-2" x="7.15" y="394.58" width="8.5" height="2.66"/><rect class="cls-3" x="11.41" y="394.58" width="4.24" height="2.66"/><path class="cls-7" d="M12.53,377.67h-3L9.1,390.88a1.94,1.94,0,0,0,2,2h0a2,2,0,0,0,1.95-2Z"/><path class="cls-9" d="M12.53,377.67H11V392.9h.07a2,2,0,0,0,1.95-2Z"/><path class="cls-70" d="M9.21,389.48h2.46a1,1,0,0,0,1-1v-5.4a1,1,0,0,0-1-1H9.21a3,3,0,0,0-3,3v1.4A3,3,0,0,0,9.21,389.48Z"/><rect class="cls-22" x="10.17" y="368.97" width="1.75" height="8.7"/><path class="cls-70" d="M15.66,388.6h0a1.79,1.79,0,0,1-2.4-.87l-.33-.7a1.55,1.55,0,0,1,.75-2.06h0a.25.25,0,0,1,.34.12Z"/><path class="cls-74" d="M5.32,358.05l.45,10.59a5.12,5.12,0,0,0,5.28,4.68,5.12,5.12,0,0,0,5.28-4.68l.45-10.59Z"/><path class="cls-75" d="M11,358.05v15.26h.07a5.12,5.12,0,0,0,5.28-4.68l.45-10.59Z"/><path class="cls-22" d="M9.13,358.05H5.32l0,.54a2,2,0,0,0,2,1.86h0a1.82,1.82,0,0,0,1.83-1.75l0,1.48A1.86,1.86,0,0,0,11,362h0a1.86,1.86,0,0,0,1.87-1.82l0-2.13H9.13Z"/><path class="cls-22" d="M13,358.05l0,2.92a1.79,1.79,0,0,0,1.81,1.8h0a1.91,1.91,0,0,0,1.91-1.8l.13-2.92Z"/></g></g></g></svg>