<svg xmlns="http://www.w3.org/2000/svg" viewBox="0 0 219.78 159.11"><defs><style>.cls-1{fill:#f4cdaf;}.cls-2{fill:#5966d6;}.cls-3{fill:#242449;}.cls-4{fill:#f17187;}.cls-5{fill:#131330;}.cls-6{fill:#dbdee2;}.cls-7{fill:#bababa;}.cls-8{fill:#424dbf;}.cls-9{fill:#f6d5d5;}.cls-10{fill:#232020;opacity:0.1;}.cls-11{font-size:45.74px;fill:#442f4d;font-family:TimesNewRomanPS-BoldMT, Times New Roman;font-weight:700;}.cls-12{letter-spacing:-0.06em;}.cls-13{letter-spacing:-0.02em;}</style></defs><title>hammer-man-text</title><g id="Layer_2" data-name="Layer 2"><g id="Layer_1-2" data-name="Layer 1"><path class="cls-1" d="M54.4,46.34a1.67,1.67,0,0,0-.23-.12c-.78-.21-1.31.16-2.11.17-.36,0-.87-.79-1.27-.13-.14.25-.42.9-.73,1.42a5.2,5.2,0,0,1-2.35,1.84A36.19,36.19,0,0,1,36.57,51.9a1.26,1.26,0,0,1-.64,0c-.36-.15-.52-.58-.66-1a31.33,31.33,0,0,0-2.33-5.1A11.34,11.34,0,0,0,29.8,42a4.71,4.71,0,0,0-4.59-.62,4,4,0,0,0-2.16,2.85c-.56,3.07,3.08,5.6,4.91,7.47a53.8,53.8,0,0,0,5.53,4.93,2.29,2.29,0,0,0,.79.44,2.19,2.19,0,0,0,.95,0,108.25,108.25,0,0,0,11.9-3.3c1.08-.35,1.85-1.25,2.85-1.57.64-.2,1.29.13,1.93.07a6.09,6.09,0,0,0,2-.57c1.13-.58,1.36-1.92,1.68-3.06a1.43,1.43,0,0,0,.07-.76,2,2,0,0,0-.71-1A3.87,3.87,0,0,0,54.4,46.34Z"/><path class="cls-2" d="M27.8,50.51,34.22,47c-.14.08-4.53-10.47-4.81-11.09-1.08-2.36-2.21-4.8-4.13-6.47A5.67,5.67,0,0,0,16,34.94a31.51,31.51,0,0,0,9,16.61.78.78,0,0,0,.33.21.8.8,0,0,0,.51-.13Z"/><path class="cls-1" d="M35.66,155.35a23.12,23.12,0,0,0,2.88-.36c.79-9.18,1.55-18.76,1.45-28-2.44.2-6.23.41-8.67.61,1.54,4.87-.54-2.19,0,2.93C31.41,131.38,35.52,155.35,35.66,155.35Z"/><path class="cls-3" d="M38.89,153.2a1.43,1.43,0,0,1,1.34.47c.23.2.38.48.65.62a2.14,2.14,0,0,0,.89.18c1.75.11,5.8-.09,3.55,2.82-2,2.65-7.21,1.79-10.19,1.19a1,1,0,0,1-.55-.21,1.18,1.18,0,0,1-.28-.57c-.31-1.2-.73-2.7.83-3.26.67-.24,1.26.16,2-.09S38.28,153.33,38.89,153.2Z"/><path class="cls-3" d="M42.29,132.49l-13.61-.28q-5.5-27.41-9.7-55.08a10.44,10.44,0,0,1,0-4.31c.75-2.62,3.43-4.12,6-4.63,4-.78,11.35.31,13.4,4.66,2.17,4.6,1.81,12.81,2.33,17.88A321.73,321.73,0,0,1,42.29,132.49Z"/><path class="cls-1" d="M9.82,155a27.22,27.22,0,0,1-3-.27c-.45-9.06-1.71-18.55-1.36-27.65,2.23.12,6.54.25,8.76.37-1.55,4.86-1.9,10-2.55,15C11.58,143.24,10,154.94,9.82,155Z"/><path class="cls-3" d="M6.56,152.92a1.31,1.31,0,0,0-1.23.51c-.22.2-.36.49-.62.63a1.87,1.87,0,0,1-.81.21c-1.61.17-5.31.1-3.34,2.9,1.79,2.55,6.55,1.54,9.29.85a1.06,1.06,0,0,0,.51-.22,1.37,1.37,0,0,0,.27-.57c.32-1.2.74-2.7-.67-3.2-.6-.22-1.15.2-1.79,0S7.11,153,6.56,152.92Z"/><path class="cls-3" d="M2.57,132.49l13.61-.28q5.51-27.41,9.7-55.08a10.11,10.11,0,0,0,0-4.31c-.74-2.62-3.43-4.12-6-4.63-4-.78-11.35.31-13.4,4.66-2.17,4.6-1.8,12.81-2.33,17.88A323.51,323.51,0,0,0,2.57,132.49Z"/><path class="cls-4" d="M14.2,32.28a34.27,34.27,0,0,0-8,13.09c-2.91,8.54-3,17.65-3,26.57l0,8.92c0,2.92.24,3.55,3.28,3.16,5.63-.71,11.48-1.93,16.58-4.54a75.8,75.8,0,0,1,7.25-3.8C34,74.26,37.78,74.9,41.45,74c-.93-2.93-2.32-5.62-3-8.7a66.94,66.94,0,0,1-1.15-9.38c-.36-5.5-1-11-1.41-16.46-.28-3.93.21-7.14-3.78-9.72-2.18-1.4-6.13-3.8-9.2-3.15C19.68,27.25,16.24,30.26,14.2,32.28Z"/><path class="cls-1" d="M27.33,19.77a32.21,32.21,0,0,1-2.72,4.31,9.91,9.91,0,0,0-1.45,4.29c-.17,1.16-.57,2.08-1.92,2.28C19,31,19.31,28.31,18.5,27c-1.2-1.9-3.71-2-5.23-4-1.41-1.79-2-4.33-2.79-6.45A8.16,8.16,0,0,1,9.69,12c.53-2.43,3-3.71,5.25-4.65,3.82-1.62,8.17-2.46,10.91,1.51C27.81,11.71,28.77,16.48,27.33,19.77Z"/><path class="cls-5" d="M14.83,14.75a3.55,3.55,0,0,0-2.41.7c-.63.6-.55,1.93.28,2.08s1.73-.69,2.2-.08c.27.36,0,.88-.16,1.3a8,8,0,0,0-.62,5.17c-.31.31-.8,0-1.07-.34a17.18,17.18,0,0,1-3.16-5.45A3.17,3.17,0,0,1,8.76,19.3,4.16,4.16,0,0,0,8.67,17c-.66-2.82-1.12-6.12.71-8.41a6.67,6.67,0,0,1,4-2.2A19.06,19.06,0,0,1,18,6.23c.65,0,1.46.2,1.62.84A7.24,7.24,0,0,0,16,10.28C15.75,10.72,14.92,14.75,14.83,14.75Z"/><path class="cls-3" d="M17.81,8l-.15.12a6.48,6.48,0,0,1-2,1.38c-1.13.32-2.36-.27-3.47.13s-2.05,2-2.95,3c-.29.3-1.08,1.3-1.53,1.17C7,13.61,6.9,12.14,7,11.62c.14-.81.68-1.51.75-2.34a5.58,5.58,0,0,0-.62-2.43,2.66,2.66,0,0,1,0-2.43c.24-.34.65-.58.73-1a3.78,3.78,0,0,0-.06-.82C7.74,1.16,9.74.27,10.78.06c1.31-.26,2.63.37,3.94.65A7.61,7.61,0,0,0,18,.69a12.81,12.81,0,0,1,2.9-.61,4.83,4.83,0,0,1,3.67,2.27,11,11,0,0,1,1.61,7.19c.06-.37-1.1-1.69-1.34-2A3.2,3.2,0,0,0,23,6.29,7.65,7.65,0,0,0,17.81,8Z"/><path class="cls-6" d="M66.86,40.31l6.52-.19a1,1,0,0,0,.92-1L73.86,22.4a1,1,0,0,0-1-1l-6.53.19Z"/><path class="cls-6" d="M41.52,24l14.66-.42L56.58,39l-15.07.43C32.37,31.94,23,38.76,23,38.76L21.8,37C26.82,27.05,41.52,24,41.52,24Z"/><path class="cls-7" d="M57.39,24.21c5.86,3.09,9-2.58,9-2.58l.21,8.12V30l0,2v.23l.22,8.13s-3.42-5.5-9.11-2.07L56.58,39l-.18-6.71,0-2-.17-6.72Z"/><polygon class="cls-7" points="45.59 84.34 54.9 84.07 53.73 39.03 44.42 39.3 45.59 84.34"/><path class="cls-8" d="M51.6,136.48h0a7,7,0,0,0,6.67-7.36l-1.1-42.64-2.34-5.23-9.31.26-2.07,5.36,1.11,42.64A7,7,0,0,0,51.6,136.48Z"/><ellipse class="cls-9" cx="51.41" cy="129.06" rx="2.65" ry="2.77"/><path class="cls-10" d="M57.55,132.67a6.82,6.82,0,0,1-5.67,3.8c-3.93.11-7.2-2.36-7.36-8.63l-.91-35S45.84,132.09,57.55,132.67Z"/><polygon class="cls-10" points="53.73 39.03 44.52 43.05 44.42 39.3 53.73 39.03"/><path class="cls-1" d="M52.55,54.72a.75.75,0,0,0-.25-.09c-.79-.13-1.28.31-2.07.42-.35,0-.95-.69-1.27,0-.12.26-.32.94-.57,1.49a5.3,5.3,0,0,1-2.14,2.11,26.59,26.59,0,0,1-3.57,1.81,43.67,43.67,0,0,1-8.17,2.29,12.72,12.72,0,0,0-8.9-9.64,2.86,2.86,0,0,0-1.39-.1,2.53,2.53,0,0,0-1,.63c-3.14,2.93-.35,5.91,1.81,8.41a42.94,42.94,0,0,0,4.34,4.4c2.17,1.87,4.59,1.7,7.22.89a40.11,40.11,0,0,0,8.16-3.24,31.89,31.89,0,0,0,3.41-2.48c1.12-.86,1.42-.29,2.58-.77a11.6,11.6,0,0,0,2-.82c1.06-.7,1.15-2.06,1.33-3.24a1.5,1.5,0,0,0,0-.76,2,2,0,0,0-.82-.93A3.82,3.82,0,0,0,52.55,54.72Z"/><path class="cls-4" d="M26.58,62l6-4.28c-.13.1-5.64-9.86-6-10.44-1.33-2.22-2.72-4.51-4.81-5.94A5.71,5.71,0,0,0,13.14,48,31.07,31.07,0,0,0,23.85,63.39a.84.84,0,0,0,.35.18.73.73,0,0,0,.49-.2Z"/><text class="cls-11" transform="translate(81.3 67.96) scale(0.95 1)">Who<tspan class="cls-12" x="0" y="54.89">W</tspan><tspan x="43.22" y="54.89">e</tspan><tspan class="cls-12" x="63.52" y="54.89"> </tspan><tspan x="72.43" y="54.89">A</tspan><tspan class="cls-13" x="105.46" y="54.89">r</tspan><tspan x="124.94" y="54.89">e</tspan></text></g></g></svg>