<?xml version="1.0" encoding="utf-8"?>
<!-- Generator: Adobe Illustrator 22.1.0, SVG Export Plug-In . SVG Version: 6.00 Build 0)  -->
<svg version="1.1" id="Layer_1" xmlns="http://www.w3.org/2000/svg" xmlns:xlink="http://www.w3.org/1999/xlink" x="0px" y="0px"
	 viewBox="0 0 361 203" style="enable-background:new 0 0 361 203;" xml:space="preserve">
<style type="text/css">
	.st0{fill:none;}
	.st1{fill:#23002A;}
	.st2{font-family:'MyriadPro-Regular';}
	.st3{font-size:36px;}
	.st4{fill:#2A000B;}
	.st5{font-family:'TimesNewRomanPSMT';}
	.st6{font-size:23.8785px;}
	.st7{fill:#F7C1A3;}
	.st8{fill:#F17187;}
	.st9{fill:#242449;}
	.st10{fill:#FFFFFF;}
	.st11{fill:#F4CDAF;}
	.st12{fill:#7EACF1;}
	.st13{fill:#8A8D97;}
	.st14{fill:#DBDEE2;}
	.st15{fill:#424DBF;}
	.st16{opacity:0.1;fill:#232020;}
	.st17{fill:#DEDAE8;}
</style>
<title>message</title>
<rect x="398" y="103" class="st0" width="200.4" height="112.9"/>
<g>
	<rect x="3.4" y="5" class="st0" width="293.6" height="92"/>
	<text transform="matrix(1 0 0 1 11.1885 42.5)" class="st1 st2 st3">Stuck Somewhere</text>
	<text transform="matrix(1 0 0 1 11.1885 87)" class="st1 st2 st3">Need Help !</text>
</g>
<text transform="matrix(1.0051 0 0 1 11.1885 132.3567)"><tspan x="0" y="0" class="st4 st5 st6">We Meet Your Problem </tspan><tspan x="0" y="28.7" class="st4 st5 st6">With Are Solution At </tspan><tspan x="0" y="57.3" class="st4 st5 st6">Price that You can Afford It.</tspan></text>
<rect x="461" y="290" class="st0" width="3" height="3"/>
<g>
	<g>
		<g>
			<path class="st7" d="M274.5,68.6c0.1,0,0.2,0,0.3,0c0.9,0.2,1.2,0.8,2,1.2c0.4,0.2,1.3-0.2,1.4,0.5c0,0.3-0.1,1-0.1,1.6
				c0,0.9,0.6,1.9,1.3,2.7c0.9,1.1,1.9,2.1,3,3.1c2.3,1.9,5.1,3.8,7.7,5.4c3.1-3.7,8.7-5.6,13.9-4.9c0.5,0.1,1.1,0.2,1.5,0.5
				c0.4,0.2,0.6,0.6,0.8,1c2,3.9-2.3,5.4-5.8,6.7c-2.2,0.8-4.4,1.6-6.7,2.1c-3.2,0.8-5.7-0.4-8.2-2.2c-2.6-1.9-5.2-3.9-7.3-6.2
				c-1-1.1-1.7-2.4-2.5-3.6c-0.8-1.2-1.4-0.8-2.4-1.7c-0.6-0.5-1.3-0.9-1.7-1.5c-0.8-1.1-0.3-2.3,0-3.4c0.1-0.3,0.1-0.5,0.3-0.7
				c0.3-0.3,0.8-0.4,1.3-0.5C273.9,68.7,274.2,68.6,274.5,68.6z"/>
		</g>
		<g>
			<path class="st8" d="M299.8,88.9c-1.7,0.5-3.5,0.9-5.1,1.3c-2.5,0.5-5.2,1-7.5,0c-0.9-0.4-1.6-0.9-2.4-1.5
				c-3.5-2.7-7-5.4-10.3-8.2c1.3-1.8,2.8-3.5,4.7-4.9c0.5-0.4,1.1-0.8,1.8-0.8c1,0,1.8,0.8,2.4,1.5c1,1.2,2,2.3,3,3.5
				c0.3,0.4,0.7,0.8,1.2,0.9c0.3,0.1,0.7,0,1-0.1c6.3-1.9,11.2-4.6,16.7-7.8c2.4-1.4,5-2.9,7.9-3.3c6.2-0.9,10.5,5.1,6.3,9.4
				C314.5,83.5,307.1,86.9,299.8,88.9z"/>
		</g>
	</g>
	<g>
		<g>
			<g>
				<polygon class="st9" points="328.8,187.2 328.7,189.8 322.7,192.2 319.8,189.5 322.8,187 328.9,184.6 				"/>
			</g>
			<g>
				<polygon class="st9" points="341.2,109.8 340.9,117.6 327.5,151.1 329.2,186.4 323.2,187.2 311.1,144.2 312,131.5 318.6,105.9 
									"/>
			</g>
		</g>
		<g>
			<g>
				<polygon class="st9" points="303.3,111.1 295.7,143.3 293.5,186 299,186.9 310.9,149.1 326.9,111.9 				"/>
			</g>
			<g>
				<polygon class="st9" points="299.1,186.3 298.5,188.9 292.1,190.4 289.7,187.4 293.2,185.4 				"/>
			</g>
		</g>
		<g>
			<path class="st8" d="M345.9,114.3c0.1,3,0,7-1.4,7.2c-0.3,0-0.5-0.1-0.7-0.2c-2.3-1.1-4-2.6-6.2-3.7c-2.4-1.1-5.1-1.7-7.8-2.1
				c-4-0.6-8.1-1-12.2-1.1c-3.2,0-6.4,0.2-9.6,0.4c-2.7,0.2-5.1,0.9-7.9,0.7c-2.8-0.2-5.5-0.9-7.9-2.2c-0.1,0-0.2-0.1-0.2-0.2
				c0-0.1,0-0.2,0-0.3c0.6-1.3,1-2.7,2-3.8c1.2-1.2,2-2.8,2.8-4.2c1.7-2.9,3.4-6,4.6-9.1c1.8-4.3,3.9-8.4,5.7-12.7
				c1.2-3,2.3-6,4-8.8c1.3-2.2,3.6-5.4,6.4-6.4c0.9-0.3,2-0.4,3-0.4c3.1-0.1,6.2-0.2,9.3-0.2c1.1,0,2.3,0,3.3,0.4
				c1.5,0.6,2.4,2,3.2,3.3c3.4,5.8,5.6,12.1,6.8,18.6c0.6,3.4,1.2,6.8,1.7,10.2c0.5,3.8,0.9,7.6,0.9,11.4
				C345.8,111.7,345.9,112.9,345.9,114.3z"/>
		</g>
		<g>
			<path class="st10" d="M325.3,82.2c-0.1,1.5,0.1,3,0.4,4.5c1.5,9.1,3,18.2,4.6,27.4c-8.3-0.1-16.6-0.1-25-0.2
				c0.3-3.4,0.6-6.8,0.9-10.3c0.2-2.2,0.4-4.4,0.9-6.5c0.9-3.5,2.6-6.7,4.3-10c3.2-6,6.4-11.9,9.6-17.9c0.2-0.3,0.4-0.6,0.7-0.9
				c0.4-0.3,0.9-0.4,1.4-0.4c2.4-0.4,5.1-0.7,7.5-0.4c0.6,1.9-1.6,5.1-2.4,6.9C326.9,76.9,325.5,79.4,325.3,82.2z"/>
		</g>
		<g>
			<g>
				<path class="st11" d="M323.7,69.2c1.7-0.1,3.4-0.1,5.2-0.2c0.1-1.2,0.1-2.4-0.1-3.5c0,0.1,2.8-1.1,3-1.4
					c0.7-0.8,0.8-2.2,1.1-3.2c0.6-2.1,1.2-4.4-0.1-6.2c-1.3-1.9-4.2-2.6-6.7-2.6c-3.2-0.1-6.8,0.7-8.5,3.1c-1.5,2.2,0.4,5.3,0.9,7.6
					c0.3,1.1,0.7,2.4,1.9,2.9c0.6,0.3,1.4,0.2,2,0.6C323.5,66.9,323.3,68.2,323.7,69.2z"/>
			</g>
			<g>
				<path class="st9" d="M312.6,51.1c-0.2-1.5-0.4-3.1-0.6-4.6c-0.1-0.6-0.1-1.2,0.1-1.7c0.4-0.9,1.4-1.5,2.5-1.7
					c1.1-0.2,2.2-0.3,3.3-0.5c1.2-0.2,2.3-0.7,3.5-0.6c2.3,0.1,4,1.9,6.2,2.2c3.1,0.4,5.9-0.8,7.8,2.3c0.3,0.6,0.4,1.2,0.7,1.8
					c0.4,0.8,1.1,1.4,1.7,2c2.4,3,1.6,7.5-1.3,10.1c-1.4,1.2-2,2.3-4,2.7c0.9-1.6-0.3-7.9-2.8-8.6c-0.7-0.2-2.6,0.5-3.3,0.6
					c-1.6,0.2-3.2,0.4-4.7,1c-2.2,0.8-4.7,1.4-7.1,1.5c-0.3,0-0.7,0-0.9-0.1c-0.2-0.2-0.3-0.4-0.3-0.7C313,54.9,312.8,53,312.6,51.1
					z"/>
			</g>
			<path class="st12" d="M319.8,50.9c2.9-0.1,5.8-0.3,8.8,0c3,0.3,6,0.9,9,1.6c1.3,0.3,2.5,0.6,3.8,0.8c0,0,0-2.6,0-2.7
				c-0.1-0.6-0.4-0.9-0.8-1.4c-0.4-0.5-0.3-0.5-0.4-1.1c-0.1-1.3-0.7-2.6-1.2-3.9c-0.7-1.8-1.6-3.5-2.8-5c-4-4.8-10.6-4.6-16.5-2.4
				c-5.3,2-7.1,5.7-7.6,10.3c0,0.2,0,0.5-0.2,0.7c-0.5,0.9-1,0.7-0.9,1.9c0,0.3,0.6,3,0.7,2.9c0.7-0.4,1.6-0.7,2.4-0.9
				c0.6-0.2,1.2-0.3,1.9-0.4C317.1,51,318.5,51,319.8,50.9z"/>
		</g>
	</g>
	<g>
		<polygon class="st13" points="287,77.7 289.9,79.1 297.3,68 294.4,66.6 		"/>
		<polygon class="st14" points="290.4,66.8 288.3,70.1 287.4,71.4 285.3,74.6 287,77.7 290.3,72.8 291.1,71.5 294.4,66.6 		"/>
		<path class="st15" d="M344.7,85.9l-38.5-18.9L298,67l-3.5,5.3l-1.6,2.4l-3.5,5.3l4,8.5c1.2,2.6,3.4,4.8,6.2,6.3l11.3,5.9
			c1.6,0.8,2.4,2.4,2.1,4l-4.2,20.3c-0.5,2.2,0.8,4.4,3,5.5l3.6,1.8c3.7,1.8,8.4-0.1,9.2-3.7l3.4-16.5c0.2-1.1,1.5-1.7,2.7-1.4
			c2.3,0.6,5.8,0.7,8.3-3.2l3.2-4.8l1.9-2.8l0.8-1.2l0.8-1.2l1.9-2.8C349.6,91.6,348.3,87.7,344.7,85.9z"/>
		<polygon class="st13" points="289,69 285.6,67.4 283.3,70.9 286.6,72.5 		"/>
		<polygon class="st13" points="275.6,63.3 249.1,50.3 247.6,52.6 274,65.6 		"/>
		<polygon class="st16" points="248,52 273.8,64.7 273.4,65.3 247.6,52.6 		"/>
		<polygon class="st16" points="283.8,70.1 287.2,71.7 286.6,72.5 283.3,70.9 		"/>
		<polygon class="st14" points="249.2,53.8 247.2,52.8 251.1,50.9 253.1,51.9 		"/>
		<polygon class="st14" points="253.2,55.8 251.2,54.8 255.1,52.8 257.1,53.8 		"/>
		<polygon class="st14" points="257.2,57.8 255.2,56.8 259.2,54.8 261.2,55.8 		"/>
		<polygon class="st14" points="261.2,59.8 259.2,58.8 263.2,56.8 265.2,57.8 		"/>
		<polygon class="st14" points="265.2,61.7 263.2,60.7 267.2,58.7 269.2,59.8 		"/>
		<polygon class="st14" points="269.2,63.7 267.2,62.7 271.2,60.7 273.2,61.7 		"/>
		<polygon class="st14" points="273.2,65.7 271.2,64.7 275.2,62.7 277.2,63.7 		"/>
		<polygon class="st14" points="274.6,69.4 281.9,73 286.9,65.4 279.6,61.8 		"/>
		<polygon class="st13" points="276,61.6 274.5,63.8 273.9,64.6 272.5,66.8 274.6,69.4 276.8,66 277.4,65.2 279.6,61.8 		"/>
		<path class="st17" d="M316.3,125.4l2.6-12.6c0.5-2.3-0.8-4.5-3.1-5.7l-3.1-1.5l-3.9,18.9l4.3,2.1
			C314.4,127.3,316,126.6,316.3,125.4z"/>
		<polygon class="st9" points="298.7,81.2 297.6,80.7 303.9,71.3 305,71.8 		"/>
		<polygon class="st9" points="301.2,82.5 300.2,81.9 306.5,72.5 307.5,73 		"/>
		<path class="st10" d="M339.1,92.1l-13.5-6.6c-0.4-0.2-0.5-0.6-0.3-0.9l1-1.5c0.2-0.3,0.7-0.4,1-0.2l13.5,6.6
			c0.4,0.2,0.5,0.6,0.3,0.9l-1,1.5C339.9,92.2,339.5,92.3,339.1,92.1z"/>
	</g>
	<g>
		<path class="st11" d="M340.1,94.5c0.1,0.3,0.1,0.8-0.3,0.9c-0.2,0.1-0.5,0-0.7-0.1c-0.9-0.2-2,0.2-2.4,0.9c-0.5,0.9-0.1,2,0.7,2.6
			c0.8,0.7,1.9,1,3,1.2c0.7,0.1,1.5,0.1,2-0.2c0.3-0.2,0.5-0.5,0.6-0.7c0.9-1.4,1.6-3.3,0.4-4.7C342.5,93.2,339.4,92.1,340.1,94.5z"
			/>
		<path class="st8" d="M348.2,94.8c-0.1-0.2-0.3-0.3-0.4-0.5c-1.4-1.2-3.2-2.3-5.2-1.9c0.3,3.2-0.7,6.5-2.6,9.2
			c-0.2,0.2-0.3,0.5-0.2,0.7c0.2,0.5,1.8,0.9,2.3,0.9c2.1,0.3,4.5-0.5,5.5-1.8c0.6-0.8,0.8-1.6,1-2.5
			C348.9,97.7,349.1,96,348.2,94.8z"/>
	</g>
</g>
</svg>
