<?xml version="1.0" encoding="utf-8"?>
<!-- Generator: Adobe Illustrator 22.1.0, SVG Export Plug-In . SVG Version: 6.00 Build 0)  -->
<svg version="1.1" id="Layer_1" xmlns="http://www.w3.org/2000/svg" xmlns:xlink="http://www.w3.org/1999/xlink" x="0px" y="0px"
	 viewBox="0 0 470 102" style="enable-background:new 0 0 470 102;" xml:space="preserve">
<style type="text/css">
	.st0{fill:#464747;}
	.st1{fill:#1B002A;}
	.st2{font-family:'TimesNewRomanPS-BoldMT';}
	.st3{font-size:51.5992px;}
	.st4{fill:#F7C1A3;}
	.st5{fill:#F17187;}
	.st6{fill:#242449;}
	.st7{fill:#FFFFFF;}
	.st8{fill:#F4CDAF;}
	.st9{fill:#7EACF1;}
	.st10{fill:#8A8D97;}
	.st11{fill:#DBDEE2;}
	.st12{fill:#424DBF;}
	.st13{opacity:0.1;fill:#232020;enable-background:new    ;}
	.st14{fill:#DEDAE8;}
	.st15{fill:#5966D6;}
	.st16{fill:#CBCCD1;}
	.st17{fill:#2F3787;}
	.st18{fill:#F6D5D5;}
	.st19{opacity:0.1;}
	.st20{fill:#232020;}
	.st21{fill:#DE5C79;}
	.st22{fill:#7E2222;}
	.st23{fill:#1D1717;}
</style>
<title>service-heading</title>
<rect x="66.3" y="35.7" class="st0" width="1.1" height="0.3"/>
<text transform="matrix(0.8427 0 0 1 101 75.8818)" class="st1 st2 st3">What We Do</text>
<g>
	<g>
		<g>
			<path class="st4" d="M87,32.8c-0.1,0-0.2,0-0.2,0c-0.6,0.1-0.8,0.3-1.3,0.5c-0.3,0.1-0.9-0.1-0.9,0.3c0,0.1,0.1,0.4,0.1,0.7
				c0,0.4-0.4,0.9-0.9,1.2c-0.6,0.5-1.3,0.9-2,1.4c-1.5,0.9-3.3,1.7-5.1,2.4c-2.1-1.6-5.7-2.6-9.1-2.2c-0.3,0-0.7,0.1-1,0.3
				c-0.3,0.1-0.4,0.3-0.5,0.4c-1.3,1.7,1.6,2.4,3.8,3c1.4,0.3,2.8,0.7,4.4,0.9c2.1,0.3,3.7-0.2,5.3-0.9c1.7-0.9,3.4-1.7,4.7-2.8
				c0.7-0.5,1.1-1,1.6-1.6c0.5-0.5,0.9-0.3,1.6-0.8c0.3-0.3,0.9-0.4,1.1-0.7c0.5-0.5,0.2-1,0-1.5c-0.1-0.1-0.1-0.2-0.3-0.3
				c-0.3-0.2-0.5-0.2-0.9-0.3C87.4,32.8,87.2,32.8,87,32.8z"/>
		</g>
		<g>
			<path class="st5" d="M70.4,41.9c1.1,0.3,2.2,0.4,3.4,0.6c1.6,0.3,3.4,0.4,4.9,0c0.6-0.2,1.1-0.4,1.6-0.7c2.3-1.2,4.6-2.4,6.7-3.7
				c-0.8-0.9-1.8-1.5-3-2.2c-0.3-0.2-0.7-0.3-1.2-0.3c-0.7,0-1.2,0.3-1.6,0.7c-0.7,0.5-1.3,1-2,1.5c-0.2,0.2-0.4,0.3-0.8,0.4
				c-0.3,0-0.4,0-0.7-0.1c-4.1-0.9-7.3-2.1-10.9-3.5c-1.6-0.6-3.3-1.3-5.2-1.5c-4.1-0.4-6.9,2.3-4.1,4.2
				C60.8,39.4,65.6,41,70.4,41.9z"/>
		</g>
	</g>
	<g>
		<g>
			<g>
				<polygon class="st6" points="51.5,86.1 51.5,87.3 55.5,88.3 57.4,87.1 55.3,86 51.4,85 				"/>
			</g>
			<g>
				<polygon class="st6" points="43.3,51.2 43.5,54.8 52.3,69.9 51.2,85.7 55.1,86.1 63.1,66.7 62.4,61.1 58.2,49.5 				"/>
			</g>
		</g>
		<g>
			<g>
				<polygon class="st6" points="68.1,51.8 73.1,66.3 74.5,85.6 70.9,86 63.1,69 52.7,52.3 				"/>
			</g>
			<g>
				<polygon class="st6" points="70.9,85.7 71.3,86.9 75.5,87.5 77.1,86.2 74.7,85.3 				"/>
			</g>
		</g>
		<g>
			<path class="st5" d="M40.2,53.3c-0.1,1.4,0,3.2,0.9,3.3c0.2,0,0.3,0,0.4-0.1c1.6-0.5,2.6-1.2,4.1-1.6c1.6-0.5,3.4-0.8,5.1-0.9
				c2.6-0.3,5.3-0.4,8-0.5c2.1,0,4.2,0.1,6.3,0.2c1.7,0.1,3.4,0.4,5.2,0.3c1.8-0.1,3.6-0.4,5.2-0.9c0.1,0,0.1-0.1,0.2-0.1v-0.1
				c-0.3-0.6-0.6-1.2-1.3-1.7c-0.8-0.6-1.3-1.3-1.8-1.9c-1.1-1.3-2.2-2.7-3-4.1c-1.2-1.9-2.6-3.8-3.7-5.7c-0.8-1.4-1.6-2.7-2.6-3.9
				c-0.9-1-2.4-2.4-4.2-2.8c-0.6-0.2-1.3-0.2-2-0.2c-2.1,0-4.1-0.1-6.1-0.1c-0.8,0-1.5,0-2.2,0.2c-1,0.3-1.6,0.9-2.1,1.5
				c-2.2,2.7-3.6,5.5-4.5,8.4c-0.4,1.5-0.8,3.1-1.1,4.5c-0.3,1.7-0.6,3.4-0.6,5.1C40.3,52.2,40.2,52.7,40.2,53.3z"/>
		</g>
		<g>
			<path class="st7" d="M53.8,38.8c0.1,0.7-0.1,1.4-0.3,2.1c-1,4.1-2,8.2-3,12.3c5.4,0,10.9-0.1,16.3-0.1c-0.2-1.5-0.4-3.1-0.6-4.6
				c-0.1-1-0.3-2-0.6-2.9c-0.6-1.5-1.7-3-2.8-4.5c-2.1-2.7-4.1-5.4-6.3-8c-0.1-0.2-0.3-0.3-0.4-0.4c-0.3-0.1-0.6-0.2-0.9-0.2
				c-1.6-0.2-3.3-0.3-4.9-0.2c-0.4,0.9,1,2.3,1.6,3.1C52.7,36.5,53.6,37.6,53.8,38.8z"/>
		</g>
		<g>
			<g>
				<path class="st8" d="M54.7,33c-1.1,0-2.2-0.1-3.4-0.1c-0.1-0.5-0.1-1,0-1.6c0,0.1-1.8-0.5-2-0.6c-0.4-0.3-0.5-1-0.7-1.5
					c-0.4-0.9-0.8-2,0-2.8c0.9-0.9,2.8-1.1,4.4-1.2c2.2,0,4.5,0.3,5.6,1.4c0.9,0.9-0.3,2.4-0.6,3.4c-0.2,0.5-0.4,1.1-1.2,1.3
					c-0.4,0.1-0.9,0.1-1.3,0.3C54.9,32,55.1,32.6,54.7,33z"/>
			</g>
			<g>
				<path class="st6" d="M62.1,24.9c0.1-0.7,0.3-1.4,0.3-2.1c0.1-0.3,0.1-0.5-0.1-0.8c-0.3-0.4-0.9-0.7-1.6-0.8
					c-0.7-0.1-1.5-0.1-2.2-0.2c-0.8-0.1-1.5-0.3-2.2-0.3c-1.5,0-2.6,0.9-4.1,0.9c-2,0.2-3.9-0.3-5.1,1c-0.3,0.3-0.3,0.5-0.5,0.9
					c-0.3,0.3-0.7,0.6-1.1,0.9c-1.6,1.4-1.1,3.4,0.9,4.5c0.9,0.5,1.3,1,2.6,1.2c-0.6-0.7,0.2-3.5,1.8-3.9c0.4-0.1,1.7,0.3,2.2,0.3
					c1,0.1,2.1,0.2,3.1,0.4c1.5,0.3,3,0.6,4.7,0.7c0.2,0,0.4,0,0.6-0.1c0.2-0.1,0.2-0.2,0.2-0.3C61.8,26.6,61.9,25.7,62.1,24.9z"/>
			</g>
			<path class="st9" d="M57.3,24.8c-1.9-0.1-3.8-0.1-5.8,0s-4,0.4-5.9,0.7c-0.9,0.1-1.6,0.3-2.5,0.3v-1.2c0.1-0.3,0.3-0.4,0.5-0.6
				c0.3-0.3,0.3-0.3,0.3-0.5c0.1-0.6,0.4-1.2,0.8-1.7c0.5-0.8,1-1.5,1.9-2.2c2.6-2.1,7-2.1,10.8-1.1c3.4,0.9,4.7,2.6,4.9,4.6
				c0,0.1,0,0.2,0.1,0.3c0.3,0.4,0.7,0.3,0.6,0.9c0,0.1-0.3,1.4-0.4,1.3c-0.4-0.2-1-0.3-1.6-0.4c-0.3,0-0.7-0.1-1.1-0.2
				C59.1,24.8,58.2,24.8,57.3,24.8z"/>
		</g>
	</g>
	<g>
		<polygon class="st10" points="78.8,36.9 76.9,37.5 72.1,32.5 74,31.8 		"/>
		<polygon class="st11" points="76.5,31.9 77.9,33.4 78.5,34 79.9,35.4 78.8,36.9 76.6,34.6 76.1,34 74,31.8 		"/>
		<path class="st12" d="M41,40.5L66.2,32l5.4,0.1l2.3,2.4l1,1.1l2.3,2.4l-2.6,3.9C74,43,72.5,44,70.7,44.7l-7.4,2.7
			c-1,0.3-1.6,1.1-1.4,1.8l2.8,9.2c0.3,1-0.5,2-2,2.5l-2.3,0.8c-2.4,0.9-5.5,0-6-1.6l-2.2-7.4c-0.2-0.5-0.9-0.8-1.8-0.6
			c-1.5,0.3-3.8,0.3-5.4-1.5l-2.1-2.1L41.5,47l-0.6-0.7l-0.5-0.5l-1.2-1.3C37.8,43.1,38.7,41.3,41,40.5z"/>
		<polygon class="st10" points="77.5,32.9 79.7,32.2 81.2,33.8 79,34.5 		"/>
		<polygon class="st10" points="86.3,30.4 103.5,24.5 104.6,25.6 87.2,31.4 		"/>
		<polygon class="st13" points="104.3,25.2 87.4,31 87.7,31.3 104.6,25.6 		"/>
		<polygon class="st13" points="80.9,33.4 78.7,34.1 79,34.5 81.2,33.8 		"/>
		<polygon class="st11" points="103.5,26.1 104.8,25.7 102.3,24.7 101,25.2 		"/>
		<polygon class="st11" points="100.9,27 102.3,26.5 99.7,25.7 98.4,26.1 		"/>
		<polygon class="st11" points="98.3,27.9 99.6,27.5 97,26.5 95.7,27 		"/>
		<polygon class="st11" points="95.7,28.7 97,28.3 94.4,27.5 93.1,27.9 		"/>
		<polygon class="st11" points="93,29.7 94.4,29.2 91.8,28.3 90.4,28.7 		"/>
		<polygon class="st11" points="90.4,30.5 91.7,30.1 89.1,29.2 87.8,29.7 		"/>
		<polygon class="st11" points="87.8,31.4 89.1,31 86.6,30.1 85.3,30.5 		"/>
		<polygon class="st11" points="86.9,33.1 82.2,34.7 78.9,31.3 83.6,29.7 		"/>
		<polygon class="st10" points="86,29.6 87,30.5 87.3,31 88.3,31.9 86.9,33.1 85.4,31.6 85.1,31.2 83.6,29.7 		"/>
		<path class="st14" d="M59.6,58.3l-1.7-5.6c-0.3-1,0.5-2.1,2-2.6l2.1-0.7l2.5,8.5l-2.8,0.9C60.9,59.1,59.8,58.9,59.6,58.3z"/>
		<polygon class="st6" points="71.1,38.4 71.8,38.2 67.8,34 67.1,34.1 		"/>
		<polygon class="st6" points="69.5,39 70.2,38.8 66,34.5 65.3,34.7 		"/>
		<path class="st7" d="M44.7,43.3l8.8-3c0.3-0.1,0.3-0.3,0.2-0.4L53,39.3c-0.2-0.2-0.4-0.2-0.7-0.1l-8.8,2.9
			c-0.3,0.1-0.3,0.3-0.2,0.4l0.7,0.7C44.2,43.4,44.5,43.4,44.7,43.3z"/>
	</g>
	<g>
		<path class="st8" d="M44,44.4c-0.1,0.2,0,0.3,0.3,0.4c0.2,0,0.3,0,0.5,0c0.6-0.1,1.3,0.1,1.6,0.4c0.3,0.3,0.1,0.9-0.4,1.2
			s-1.3,0.4-2,0.5c-0.4,0.1-0.9,0.1-1.3-0.1c-0.2-0.1-0.3-0.2-0.4-0.3c-0.5-0.6-1-1.5-0.3-2.1C42.5,43.8,44.6,43.3,44,44.4z"/>
		<path class="st5" d="M38.8,44.6c0.1-0.1,0.2-0.2,0.3-0.2c0.9-0.5,2.1-1,3.4-0.9c-0.2,1.5,0.4,2.9,1.7,4.1c0.1,0.1,0.2,0.2,0.2,0.3
			c-0.1,0.2-1.1,0.4-1.5,0.4c-1.4,0.1-2.9-0.3-3.6-0.8c-0.4-0.3-0.5-0.8-0.7-1.1C38.3,45.9,38.2,45.1,38.8,44.6z"/>
	</g>
</g>
<g>
	<g>
		<g>
			<path class="st4" d="M357.2,34.5L357.2,34.5c0.4-0.3,0.5-0.7,0.4-1c-0.3-0.1-0.5-0.1-0.9-0.2c-0.2,0.3-0.3,0.4-0.6,0.7
				c-0.1,0-0.1,0-0.1,0c-0.1,0-0.1-0.1-0.2-0.1c-0.6-0.7-0.9-1.5-0.9-2.3c0,0.1-0.8-0.1-0.8-0.1c-0.3-0.1-0.4-0.1-0.8,0
				c-0.1,0-0.1,0-0.2,0c-0.2,0.1-0.3,0.1-0.5,0.2c-0.1,0-0.3,0.1-0.3,0.2c-0.1,0.1-0.1,0.2-0.1,0.3c0,0.8,0,1.6,0,2.3
				c0,0.1,0,0.2,0.1,0.3s0.2,0.2,0.3,0.3c0.5,0.3,1,0.6,1.6,0.8c0.1,0,0.3,0.1,0.3,0.2c0.1,0.1,0.1,0.1,0.1,0.2
				c0.2,0.4,0.3,0.9,0.4,1.3c0.7-0.2,1.5-0.3,2.1-0.3c0.1-0.6,0-1.2-0.3-1.7c-0.1-0.2-0.2-0.3-0.2-0.5
				C356.9,34.6,357,34.6,357.2,34.5z"/>
			<polygon class="st15" points="354.2,35.9 357.6,35.4 361,42.9 369.3,41.8 367.5,50.3 357,45.4 			"/>
		</g>
		<g>
			<g>
				<polygon class="st16" points="361.4,59.7 360.4,68 360.1,75.2 364.2,94.2 367,94.3 370.6,76.6 376.2,59 				"/>
			</g>
			<g>
				<polygon class="st6" points="367,94.1 366.9,95.3 363.8,96.3 362.4,95 364,93.9 				"/>
			</g>
		</g>
		<g>
			<g>
				<polygon class="st16" points="379.4,59.4 378.9,75.2 377,93.8 374.1,94 370.6,76.3 365,58.6 				"/>
			</g>
			<g>
				<polygon class="st6" points="374.1,93.7 374.3,95 377.4,95.9 378.9,94.6 377.2,93.6 				"/>
			</g>
		</g>
		<g>
			<path class="st15" d="M382.1,62.6c0,1.4,0,3.2-0.7,3.3c-0.1,0-0.3,0-0.3-0.1c-1.1-0.5-1.9-1.2-3-1.7s-2.5-0.8-3.7-1
				c-1.9-0.3-3.9-0.4-5.8-0.5c-1.5,0-3.1,0.1-4.6,0.2c-1.3,0.1-2.5,0.4-3.8,0.3c-1.3-0.1-2.7-0.4-3.8-1l-0.1-0.1v-0.1
				c0.3-0.6,0.4-1.2,0.9-1.7s0.9-1.3,1.4-1.9c0.9-1.3,1.6-2.8,2.1-4.2c0.9-1.9,1.9-3.8,2.7-5.8c0.6-1.4,1.1-2.7,1.9-4
				c0.6-1,1.7-2.4,3.1-2.9c0.4-0.2,0.9-0.2,1.5-0.2c0.2,0,0.4,0,0.6,0c-0.1,0.3-0.3,0.5-0.1,0.8c0.1,0.3,0.3,0.3,0.7,0.4
				c0.1,0,0.3,0.1,0.3,0.1s0.2,0,0.3,0c0.1,0,0.3-0.1,0.3-0.1c0.5-0.2,0.8-0.6,1-1c0-0.1,0.1-0.1,0.1-0.2c0.1-0.1,0.3-0.1,0.5-0.1
				c0.3,0,0.4,0,0.7,0c0.5,0,1.1,0,1.6,0.2c0.8,0.3,1.1,0.9,1.5,1.5c1.6,2.7,2.7,5.6,3.3,8.6c0.3,1.6,0.6,3.1,0.8,4.6
				c0.3,1.7,0.4,3.5,0.4,5.2C382.1,61.4,382.1,62,382.1,62.6z"/>
		</g>
		<g>
			<g>
				<path class="st4" d="M370.5,42.1c0,0.2,0,0.3,0.1,0.4c0.2,0.4,0.6,0.8,1.1,1c0.3,0.1,0.7,0.1,0.9-0.1c0.1-0.1,0.2-0.2,0.3-0.3
					c0.7-1,0.8-1.8,0.7-2.9c0,0.1,1.4-0.5,1.5-0.6c0.3-0.3,0.4-1,0.5-1.5c0.3-1,0.6-2,0-2.9c-0.7-0.9-2.1-1.1-3.4-1.2
					c-1.6,0-3.4,0.3-4.3,1.4c-0.8,1,0.2,2.4,0.5,3.5c0.2,0.5,0.3,1.1,0.9,1.3c0.3,0.1,0.7,0.1,1,0.3
					C370.8,40.9,370.5,41.6,370.5,42.1z"/>
			</g>
			<path class="st6" d="M369.7,35.4c2.1-0.7,5,0.7,6.9-0.5c1.7-1.1,2.4-3.3,1.9-5c-1.9,0.7-4.1,0.3-6.2,0.4
				c-1.6,0.1-3.3,0.5-4.5,1.3c-2.7,1.8-2,4.3-0.3,6.4c0.4-0.2,0.4-1.1,0.7-1.5C368.5,36,369,35.5,369.7,35.4z"/>
			<path class="st6" d="M375.6,36.2c0.3,0.7,0.3,1.5-0.2,2.2c0.8-0.7,1.4-1.5,1.9-2.3c0.2-0.3,0.3-0.6,0.3-0.9
				c-0.1-0.5-0.6-0.9-1-1.2s-0.9-0.6-1.5-0.8s-1.3-0.1-1.6,0.3c-0.8,0.6,0,1,0.5,1.2C374.7,35.2,375.3,35.5,375.6,36.2z"/>
		</g>
		<g>
			<g>
				<g>
					<path class="st4" d="M386,55.5c0-0.4,0-0.9-0.1-1.3c-0.9,0.1-1.7,0.2-2.6,0.3c0,0.1,0.1,0.3,0.1,0.3c0.3,0.7,0.9,1.7,0.8,2.4
						c0,0.2-0.6,1.4-0.5,1.4l0.3,0.2l0.3-0.3h0.3l-0.4,1l1.4,0.3l1.2-0.9c-0.3-0.8-0.9-1.6-0.9-2.4C385.9,56.2,386,55.8,386,55.5z"
						/>
				</g>
			</g>
			<path class="st15" d="M374.8,46.3c-0.3,0.3,6.8,3.7,6.8,3.7l2.5,6.7h2.3l-0.9-8.1l-9.3-7.3L374.8,46.3z"/>
		</g>
		<g>
			<g>
				<path class="st17" d="M354.9,35.4L354.9,35.4c-1.5,0.3-3.1-0.3-3.5-1.4l-3.9-10.1l5.4-1.3l3.9,10.1
					C357.2,33.8,356.5,35,354.9,35.4z"/>
			</g>
			<g>
				<g>
					<path class="st18" d="M357.2,9.1l-23,5.4c-1.8,0.4-3.7-0.3-4.3-1.7l-0.4-1.2c-0.5-1.4,0.4-2.9,2.2-3.3l23-5.4
						c1.8-0.4,3.7,0.3,4.3,1.7l0.4,1.2C360,7.2,359,8.7,357.2,9.1z"/>
				</g>
				<g class="st19">
					<path class="st20" d="M334.6,14.5l22.2-5.2c2-0.4,3.2-2.1,2.6-3.6l-29.5,7C330.5,14.1,332.6,14.9,334.6,14.5z"/>
				</g>
			</g>
			<g>
				<path class="st10" d="M350.7,23l-1.2,0.3l-0.8-1.8c-0.1-0.3-0.4-0.5-0.8-0.5l-16.8-2.2c-0.9-0.2-1.5-0.6-1.7-1.2l-1.3-3.2
					c-0.3-0.9,0.3-1.9,1.5-2.2l0.3,0.9c-0.6,0.2-0.9,0.6-0.7,1l1.3,3.2c0.1,0.3,0.4,0.5,0.8,0.5l16.9,2.3c0.9,0.2,1.5,0.6,1.7,1.2
					L350.7,23z"/>
			</g>
			<g class="st19">
				<path class="st20" d="M352.4,35c0.7,0.3,1.6,0.5,2.5,0.3c1.5-0.3,2.3-1.6,1.9-2.7l-3.2-8C353.6,24.6,356.7,33.8,352.4,35z"/>
			</g>
			<g>
				<path class="st18" d="M353.3,33.7c-0.2-0.3,0.2-0.8,0.6-0.9c0.5-0.1,1,0.1,1.1,0.4c0.1,0.3-0.2,0.8-0.6,0.9
					C354,34.2,353.5,34,353.3,33.7z"/>
			</g>
		</g>
	</g>
	<g>
		<path class="st5" d="M381.6,74.5c0-0.3,0.3-0.6,0.8-0.6l3.9-0.1c0.4,0,0.8,0.3,0.8,0.6v0.4l16.5-0.2l6.5-5.5c0,0,0,0,0.1,0
			l-0.1-3.7c0-1.1-1-2.1-2.2-2.1l-13.3,0.2V65c0,0.5-0.4,1-1,1s-1-0.4-1-1v-1.4l-11.1,0.1v1.5c0,0.5-0.4,1-0.9,1l0,0
			c-0.5,0-1-0.4-1-1v-1.6l-7.6,0.1c-0.6,0-1.2,0.3-1.6,0.7l-4.3,3.5l-0.8,0.6c-0.3,0.3-0.4,0.8-0.4,1.3L365,75l17.1-0.2L381.6,74.5z
			"/>
		<path class="st21" d="M403.5,74.9L387,75v0.7c0,0.3-0.3,0.6-0.8,0.6l-3.9,0.1c-0.4,0-0.8-0.3-0.8-0.6v-0.7l-17.1,0.2l0.2,10.9
			c0,1.1,1,2.1,2.2,2.1l36.1-0.4c0.4,0,0.9-0.2,1.3-0.3l0.3-0.3l4.6-3.8c0.1-0.1,0.2-0.2,0.3-0.3l0,0c0.4-0.4,0.7-1,0.7-1.6
			L410,69.3L403.5,74.9L403.5,74.9z"/>
		<path class="st22" d="M410.1,69.3C410.1,69.2,410.1,69.2,410.1,69.3l-0.1,0.2L410.1,69.3L410.1,69.3z"/>
		<path class="st22" d="M364.5,75.2C364.5,75.3,364.5,75.3,364.5,75.2L364.5,75.2L364.5,75.2z"/>
		<path class="st22" d="M410,69.2l-6.5,5.5L387,74.9V75l16.5-0.2h0.1l6.5-5.4L410,69.2L410,69.2z"/>
		<polygon class="st22" points="381.6,74.9 364.5,75.1 364.5,75.3 381.6,75.1 		"/>
		<path class="st23" d="M381.2,62c0-0.6,0.5-1.1,1.2-1.1l8.7-0.1c0.7,0,1.2,0.5,1.2,1.1v1.7h2.1v-1.7c0-1.7-1.5-3.1-3.3-3.1
			l-8.7,0.1c-1.8,0-3.2,1.4-3.2,3.1v1.7h2.1L381.2,62z"/>
		<path class="st23" d="M392.3,65c0,0.5,0.5,1,1,1c0.6,0,1-0.4,1-1v-1.4h-2.1L392.3,65z"/>
		<path class="st23" d="M380.2,66.3L380.2,66.3c0.6,0,1-0.4,1-1v-1.5h-2.1v1.6C379.2,65.9,379.7,66.3,380.2,66.3z"/>
		<path class="st23" d="M381.6,75.8c0,0.3,0.3,0.6,0.8,0.6l3.9-0.1c0.4,0,0.8-0.3,0.8-0.6V75l-5.4,0.1L381.6,75.8L381.6,75.8z"/>
		<path class="st23" d="M386.2,73.8l-3.9,0.1c-0.4,0-0.8,0.3-0.8,0.6v0.4l5.4-0.1v-0.4C386.9,74.1,386.6,73.8,386.2,73.8z"/>
	</g>
</g>
</svg>
