<svg xmlns="http://www.w3.org/2000/svg" xmlns:xlink="http://www.w3.org/1999/xlink" viewBox="0 0 357.47 343.24"><defs><style>.cls-1,.cls-42{fill:none;}.cls-2{isolation:isolate;}.cls-3{fill:#eb3d21;}.cls-4{fill:#004a82;}.cls-5{fill:#ffa96e;}.cls-6{fill:#5fb0cf;}.cls-7{fill:#3b1e0b;}.cls-8{fill:#c2260d;}.cls-9{fill:#eb4b31;}.cls-10{fill:#f7ad3e;}.cls-11{fill:#f7890c;}.cls-12{fill:#235982;}.cls-13{fill:#10354f;}.cls-14{fill:#fb975f;}.cls-15{fill:#f29a5c;}.cls-16{fill:#db8446;}.cls-17{fill:url(#linear-gradient);}.cls-18{fill:#fff;}.cls-19{fill:#4c4174;}.cls-20{fill:#26213a;}.cls-21{fill:#38261b;}.cls-22{fill:url(#linear-gradient-2);}.cls-23{clip-path:url(#clip-path);}.cls-24{fill:#a4d8e6;}.cls-25{fill:#5e3920;}.cls-26{clip-path:url(#clip-path-2);}.cls-27,.cls-28,.cls-32{mix-blend-mode:multiply;}.cls-27{fill:url(#radial-gradient);}.cls-28{fill:url(#radial-gradient-2);}.cls-29{fill:#582d11;}.cls-30{fill:#95991a;}.cls-31{fill:#abaf2c;}.cls-33{fill:#e8d6c5;}.cls-34{fill:#def8ff;}.cls-35{fill:#ffef7f;}.cls-36{fill:#00b645;}.cls-37{fill:#009115;}.cls-38{fill:#b3b3b3;}.cls-39{fill:#00a7f4;}.cls-40{fill:#ff735b;}.cls-41{fill:#ff5338;}.cls-42{stroke:#0081be;stroke-linecap:round;stroke-linejoin:round;stroke-width:1.26px;}.cls-43{fill:#ffeb50;}.cls-44{fill:#fac620;}.cls-45{fill:#00dcf5;}.cls-46{fill:#6fecff;}.cls-47{fill:#ff8e39;}.cls-48{fill:#fc7430;}</style><linearGradient id="linear-gradient" x1="217.88" y1="45.98" x2="217.88" y2="35.41" gradientUnits="userSpaceOnUse"><stop offset="0" stop-color="#ffb278"/><stop offset="0.71" stop-color="#ffb076"/><stop offset="0.97" stop-color="#ffaa6f"/><stop offset="1" stop-color="#ffa96e"/></linearGradient><linearGradient id="linear-gradient-2" x1="216.69" y1="45.98" x2="216.69" y2="35.41" xlink:href="#linear-gradient"/><clipPath id="clip-path"><polygon class="cls-1" points="217.63 178.15 218.31 203.42 231.16 203.42 239.52 203.42 239.37 170.23 237.35 146.91 217.63 146.91 217.63 178.15"/></clipPath><clipPath id="clip-path-2"><polygon class="cls-1" points="217.63 178.15 216.94 203.42 204.1 203.42 195.73 203.42 195.89 170.23 197.9 146.91 217.63 146.91 217.63 178.15"/></clipPath><radialGradient id="radial-gradient" cx="349.17" cy="14.85" r="4.43" gradientTransform="translate(-81.64 29.57) scale(0.88 0.93)" gradientUnits="userSpaceOnUse"><stop offset="0" stop-color="#ffd7bf"/><stop offset="1" stop-color="#fff"/></radialGradient><radialGradient id="radial-gradient-2" cx="3742.32" cy="14.85" r="4.43" gradientTransform="matrix(-0.88, 0, 0, 0.93, 3498.81, 29.57)" xlink:href="#radial-gradient"/></defs><title>superMaid_1</title><g class="cls-2"><g id="Layer_2" data-name="Layer 2"><g id="Layer_1-2" data-name="Layer 1"><path class="cls-3" d="M115.71,328.65c12.42.19,33.43,1,43.75,0s13.13-3.28,8.32-6.75-8.89-.47-14.33-1.61-5.29,3.41-18.91,0c-14.5-3.63-15.62,2.3-21.63,1.61S98.51,328.4,115.71,328.65Z"/><path class="cls-4" d="M135.53,307.63c-2.63,7.55-2.08,14.92,2.16,16.91s9.05-2.9,11.67-10.46,2.08-14.92-2.16-16.9S138.15,300.07,135.53,307.63Z"/><path class="cls-5" d="M198.66,146.92s-18,37.27-26.3,61.76-9.1,24.42-15.6,40.07-6.85,34.8-12.57,43.9-8.86,21.85-2.83,24.15c5.14,2,8.83-10.46,11.12-19.35,1-3.93,8.3-18.6,11.49-25.53a224.07,224.07,0,0,0,12.53-34.1c3.43-12.5,24.62-44.17,28.15-49.89S198.66,146.92,198.66,146.92Z"/><path class="cls-5" d="M198.66,146.92s-18,37.27-26.3,61.76-9.1,24.42-15.6,40.07-6.85,34.8-12.57,43.9-8.86,21.85-2.83,24.15c5.14,2,8.83-10.46,11.12-19.35,1-3.93,8.45-19.07,12.29-25.53,5.6-9.4,8.58-21.57,13.33-33.17,5-12.15,24.62-43.24,28.15-49S198.66,146.92,198.66,146.92Z"/><path class="cls-5" d="M233,148.26l1,1c13.42,13.43,40.4,38,48,45,7.77,7.15,16.24,15.19-1.61,41.18-15.31,22.28-26.28,54-29.06,57.49s-5.51-11.31-1.18-17.47-2.14-8.16.85-12.92,4,1.29,6.93-6,3.57-22.48,7.82-33.14c1.76-4.41,7.44-12,7.44-12-7.53-3.49-29.11-11.95-35.92-23.92Z"/><path class="cls-6" d="M178.1,238.75c5-12.15,24.62-43.24,28.15-49s-7.59-42.86-7.59-42.86-18,37.27-26.3,61.76c-7.69,22.59-8.94,24.29-14.18,36.69h0c3.31,6.85,7.47,9.55,13.78,10.2C173.93,250.08,175.81,244.35,178.1,238.75Z"/><path class="cls-6" d="M264.17,227.67c.45-1.42.95-2.86,1.53-4.32,1.76-4.41,7.44-12,7.44-12-7.53-3.49-29.11-11.95-35.92-23.92L233,148.26l1,1c13.42,13.43,40.4,38,48,45,7.77,7.15,16.24,15.19-1.61,41.18-.46.67-.92,1.35-1.37,2h0S268.84,240.17,264.17,227.67Z"/><path class="cls-7" d="M240.7,27.64c.42,14.45-9.78,26.58-22.76,27.07S194.1,43.89,193.69,29.43,201.22,0,217.49,0C233.49,0,240.29,13.17,240.7,27.64Z"/><path class="cls-8" d="M233.13,29.22s-.42,11.83,7.81,13.44C240.94,42.66,240,32,233.13,29.22Z"/><path class="cls-8" d="M233.26,29.5s4.79,6.25,9.65,2.4C242.91,31.9,237.9,27,233.26,29.5Z"/><polygon class="cls-9" points="291.67 83.79 293.92 85.57 300 75.23 297.76 73.46 291.67 83.79"/><polygon class="cls-8" points="298.88 74.34 300 75.23 293.92 85.57 292.79 84.68 298.88 74.34"/><path class="cls-10" d="M295.6,63.69c-2.46,4.17-1.53,9.86,2.07,12.71s8.51,1.78,11-2.4,1.53-9.86-2.07-12.71S298.06,59.52,295.6,63.69Z"/><path class="cls-11" d="M308.64,74c-2.46,4.18-7.37,5.25-11,2.4l8.9-15.11C310.17,64.14,311.09,69.83,308.64,74Z"/><path class="cls-9" d="M296,64.58c1.06.11,2.73-1.23,3.12-.32.47,1.1,0,3.39.87,3.48,1.06.11,2.73-1.23,3.12-.32.47,1.1,0,3.39.88,3.48,1.06.11,2.73-1.23,3.12-.32.47,1.1,0,3.39.87,3.48a1.93,1.93,0,0,0,.66-.07h0a8.81,8.81,0,0,1-1.38,1.77,1.4,1.4,0,0,1-.29,0c-.87-.09-.4-2.38-.87-3.48-.39-.91-2.06.43-3.12.32-.87-.09-.41-2.38-.87-3.49-.39-.9-2.07.44-3.12.33-.87-.09-.41-2.38-.88-3.48-.39-.91-2.06.43-3.12.32a.46.46,0,0,1-.37-.28,9.59,9.59,0,0,1,.88-2.12C295.57,64.28,295.71,64.55,296,64.58Z"/><path class="cls-9" d="M296.58,66.91a.64.64,0,0,0,.13.83.47.47,0,0,0,.71-.16.64.64,0,0,0-.13-.83A.47.47,0,0,0,296.58,66.91Z"/><path class="cls-9" d="M296.38,63a.67.67,0,0,0,.14.83.47.47,0,0,0,.71-.16.67.67,0,0,0-.13-.83A.48.48,0,0,0,296.38,63Z"/><path class="cls-8" d="M307.93,72.12a.67.67,0,0,0,.13.83.48.48,0,0,0,.72-.16.65.65,0,0,0-.14-.83A.47.47,0,0,0,307.93,72.12Z"/><path class="cls-9" d="M300.66,70.14a.64.64,0,0,0,.13.83.47.47,0,0,0,.71-.16.66.66,0,0,0-.13-.83A.46.46,0,0,0,300.66,70.14Z"/><path class="cls-8" d="M304.61,73.27a.67.67,0,0,0,.14.83.47.47,0,0,0,.71-.16.67.67,0,0,0-.13-.83A.48.48,0,0,0,304.61,73.27Z"/><path class="cls-9" d="M300.19,66a.67.67,0,0,0,.13.83.48.48,0,0,0,.72-.16.65.65,0,0,0-.13-.82A.47.47,0,0,0,300.19,66Z"/><path class="cls-8" d="M304.15,69.13a.66.66,0,0,0,.14.83.47.47,0,0,0,.71-.16.67.67,0,0,0-.13-.83A.48.48,0,0,0,304.15,69.13Z"/><path class="cls-10" d="M288.29,84.64a3.44,3.44,0,0,1,5.2-1.13,4.79,4.79,0,0,1,1,6,3.43,3.43,0,0,1-5.19,1.13A4.78,4.78,0,0,1,288.29,84.64Zm1.49,1.17a2.5,2.5,0,0,0,.51,3.13,1.77,1.77,0,0,0,2.69-.59,2.46,2.46,0,0,0-.51-3.12A1.78,1.78,0,0,0,289.78,85.81Z"/><path class="cls-11" d="M294.47,89.53a3.43,3.43,0,0,1-5.19,1.13h0l1-1.72h0a1.77,1.77,0,0,0,2.69-.59,2.46,2.46,0,0,0-.51-3.12h0l1-1.72h0A4.79,4.79,0,0,1,294.47,89.53Z"/><path class="cls-8" d="M303,67.29a.5.5,0,0,1,.07.13c.47,1.1,0,3.39.88,3.48,1.06.11,2.73-1.23,3.12-.32.47,1.1,0,3.39.87,3.48a1.93,1.93,0,0,0,.66-.07h0a8.81,8.81,0,0,1-1.38,1.77,1.4,1.4,0,0,1-.29,0c-.87-.09-.4-2.38-.87-3.48-.39-.91-2.06.43-3.12.32-.87-.09-.41-2.38-.87-3.49L302,69Z"/><path class="cls-8" d="M301.42,70a.66.66,0,0,1,.08.77.47.47,0,0,1-.65.19Z"/><path class="cls-5" d="M300.36,72.15c-.72.49-1.83,2.74-3.56,6.57s-6.07,7.73-4.33,5.1,1.54-6.92-.16-5-5.36,5.73-6.39,8.25c-.37.9-2.32,5.25-4.93,6.51,1.17,2.4,4,4.26,5.09,6.69,1.69-1.08,2.26-3.59,3.33-4.12,8.08-4,9.8-6.73,11.91-16.81C302.47,73.91,301.07,71.64,300.36,72.15Z"/><path class="cls-8" d="M281.26,90.59l-9.42,12.71c-1.11.27-17.48-16.41-17.48-16.41v0c-.12-.18-.23-.35-.33-.52l-2.75,21.73c4.64,3.74,13.13,10.48,16.55,12.83,1.9,1.31,3.43,2.12,4.1,2,2.65-.65,18-24.12,18-24.12Z"/><path class="cls-5" d="M231.74,69.5s5.35-1,7.83-.11,27,6.21,27.71,5.8S265,37.39,263.93,35s-4.22-3.24-5-6.9l12.42-4.44s.74,2.06.76,7.71,6.09,35.32,6.88,40.55,3.19,18.46-6.17,19.57c-9.91,1.18-32-9-30.83-1.48,1.48,9.55-4.7,12.21-4.7,12.21l-16.66,2.15-.3-3Z"/><polygon class="cls-7" points="254.94 29.01 275.05 25.53 274.42 20.28 254.29 23.76 254.94 29.01"/><path class="cls-4" d="M253.16,33.7A2.36,2.36,0,0,0,255.74,36h0a2.66,2.66,0,0,0,1.91-3l-1.76-14.42a2.37,2.37,0,0,0-2.58-2.27h0a2.65,2.65,0,0,0-1.92,3Z"/><path class="cls-4" d="M248.67,34.48a2.36,2.36,0,0,0,2.57,2.27h0a2.66,2.66,0,0,0,1.92-3l-1.77-14.42A2.37,2.37,0,0,0,248.82,17h0a2.67,2.67,0,0,0-1.92,3Z"/><path class="cls-4" d="M278.42,30a2.66,2.66,0,0,1-1.92,3.05h0a2.36,2.36,0,0,1-2.58-2.27l-1.77-14.42a2.66,2.66,0,0,1,1.93-3h0a2.36,2.36,0,0,1,2.57,2.26Z"/><path class="cls-4" d="M282.91,29.24a2.66,2.66,0,0,1-1.92,3h0A2.36,2.36,0,0,1,278.42,30l-1.77-14.42a2.65,2.65,0,0,1,1.92-3h0a2.36,2.36,0,0,1,2.57,2.27Z"/><path class="cls-5" d="M267.86,22.77A1.45,1.45,0,0,0,269.6,24h0A1.63,1.63,0,0,0,271,22.28l-.6-5.46a1.45,1.45,0,0,0-1.74-1.22h0a1.62,1.62,0,0,0-1.43,1.71Z"/><path class="cls-5" d="M264.71,23.24a1.63,1.63,0,0,0,1.86,1.47h0a1.81,1.81,0,0,0,1.49-2l-.68-6.37a1.63,1.63,0,0,0-1.86-1.47h0a1.81,1.81,0,0,0-1.5,2Z"/><path class="cls-5" d="M261.36,23.72a1.62,1.62,0,0,0,1.86,1.46h0a1.81,1.81,0,0,0,1.49-2L264,16.84a1.61,1.61,0,0,0-1.86-1.46h0a1.79,1.79,0,0,0-1.48,2Z"/><path class="cls-5" d="M258.36,24a1.54,1.54,0,0,0,1.77,1.38h0a1.71,1.71,0,0,0,1.41-1.87l-.65-6a1.55,1.55,0,0,0-1.77-1.39h0a1.71,1.71,0,0,0-1.41,1.87Z"/><path class="cls-8" d="M230.32,136.88l.08,0,17.71-4.93a90.67,90.67,0,0,1-4.61-24.61c2.34-4,2.38-8.94,2.05-12.29v0a26.66,26.66,0,0,0-.61-3.93c0-1.46,10.81-.3,10.81-.3l1.49-18.07s-9.52-1.8-13.7-2.32-7.42.4-11.91,2.63a6.09,6.09,0,0,1-1.34.46h0l-7.09,28.54Z"/><path class="cls-5" d="M204.41,74.34s-5-2.37-7.59-2.24-28.69.51-29.29-.07,23.2-14,24.13-16.46c1.14-3-5.07-10.47-6.24-5s-25.57,11.32-28.77,16.92c-4.07,7.13-6.37,12.47,2.5,16.09,9.4,3.84,33.81.93,31.17,7.89-3.37,8.88,2.11,13.15,2.11,13.15l15.76,6.62.9-2.84Z"/><polygon class="cls-12" points="188.92 28.34 188.38 31.69 195.26 49.45 198.59 48.95 188.92 28.34"/><path class="cls-13" d="M199.37,46.55a2,2,0,0,1-.78,2.4h0a1.49,1.49,0,0,1-2.07-.9l-7.45-18.94a1.94,1.94,0,0,1,.78-2.4h0a1.48,1.48,0,0,1,2.07.9Z"/><path class="cls-5" d="M190.06,57.53c1.12-.91,2.87-3,2.52-7.37s-.18-6-.35-6.66,1.49-2.64,2.1-3.45,1.69-.63,1.89-.74,2.35.7,2.75-.17-1.36-1.68-2-2.17-3.23,0-3.56.08A26.12,26.12,0,0,0,191,39.81a13,13,0,0,0,1.67-3.55,16.72,16.72,0,0,0,3-.49s2.25.1,2.86-.8S198,33.79,197,33.52a22.55,22.55,0,0,0-2.39-.45,10.12,10.12,0,0,0,3-1.12c.58-.57,1.32-2.58.6-2.44s-4.1,1-4.44,1.17A5.33,5.33,0,0,0,192.37,32c-.22.32-.79.15-1.14.2s-.59.77-1.48,2.86-3.8,5.43-3.87,5.67-.07,5.84-.16,7.72-.64,3.7-1.15,4.18-4.39,3.26-5.08,4.08c-.08.1-.23.26-.42.46L185.62,54h0C187.34,51.7,189.17,58.25,190.06,57.53Z"/><path class="cls-3" d="M179.37,88s-25.91-2.18-27.14-9.9c-1.31-8.23,1.16-10.71,13.85-19.32C181,48.63,184,46.47,184,46.47l6.5,12.62-19.15,11s25.38-1.74,32.29-.87L191,83.55Z"/><path class="cls-3" d="M236.28,319.47c0,8.14-2.88,14.75-7.46,14.75s-7.45-6.61-7.45-14.75,2.88-14.75,7.45-14.75S236.28,311.32,236.28,319.47Z"/><path class="cls-5" d="M237.08,196.63s.47,24.75-2.06,32.1,3.12,25.33,1,40-5.08,30.17-3.41,35.78a47,47,0,0,1,1.5,18.18c-.66,6.18-2.79,9.66-5.34,9.66V196.63Z"/><path class="cls-5" d="M220.57,196.63s-.47,24.75,2.06,32.1-3.12,25.33-1,40,5.08,30.17,3.41,35.78a47,47,0,0,0-1.5,18.18c.66,6.18,3.5,9.66,5.33,9.66V196.63Z"/><polygon class="cls-13" points="217.63 178.15 218.31 203.42 231.16 203.42 239.52 203.42 239.37 170.23 237.35 146.91 217.63 146.91 217.63 178.15"/><path class="cls-3" d="M232.8,146.91H217.63V134.55h13.82A85.26,85.26,0,0,0,232.8,146.91Z"/><path class="cls-5" d="M243.19,78.5a10.94,10.94,0,0,0-7.72-9.17c-2.59-.91-6.88-1.24-9.6-3.06s-2.28-10.87-2.28-10.87H211.86s.44,9.07-2.28,10.87-7,2.15-9.59,3.06a11,11,0,0,0-7.74,9.17,111.79,111.79,0,0,0-.64,11.18h52.23A106.81,106.81,0,0,0,243.19,78.5Z"/><path class="cls-14" d="M211.37,62.78h0c3.16-.69,9.26-3,12.22-5.56V56.13a1.34,1.34,0,0,1,0-.21v-.25a.53.53,0,0,0,0-.12V55.4H211.89A33.9,33.9,0,0,1,211.37,62.78Z"/><path class="cls-3" d="M233.05,44.32a.84.84,0,1,1-1.66,0,.84.84,0,1,1,1.66,0Z"/><path class="cls-8" d="M201.64,44.32a.84.84,0,1,0,1.67,0,.84.84,0,1,0-1.67,0Z"/><path class="cls-5" d="M232.21,35.75s2.2-11.47-.36-17.85c-2.76-6.88-6.91-9-14.5-9s-11.74,2.13-14.5,9c-2.56,6.38-.36,17.85-.36,17.85-3.06-.85-2.6,2.85-1.52,4.93.89,1.73.55.56,1,2.49.57,2.47,2.05.58,2.05.58.79,4.88,2.53,6.84,6.65,11.49,3.6,4,4.86,4,6.68,4s3.08.05,6.67-4c4.13-4.65,5.86-6.61,6.66-11.49,0,0,1.47,1.89,2-.58.45-1.93.1-.76,1-2.49C234.81,38.6,235.27,34.9,232.21,35.75Z"/><path class="cls-15" d="M217.29,46.7a.9.9,0,0,0,.78-.29c.28-.37,1.38-1.55,1.93-.91s-.27,1.4-1.17,1.75a3,3,0,0,1-1.54.38Z"/><path class="cls-16" d="M218.22,46.86c-.17.34,1.58-.61,1.41-.92S218.54,46.25,218.22,46.86Z"/><path class="cls-17" d="M217.29,46c.74,0,1.43-1.21,1.11-2.77a60.43,60.43,0,0,1-.06-7.8h-1.05Z"/><path class="cls-18" d="M220.82,36.59a4.11,4.11,0,0,1,1.14.33,4.18,4.18,0,0,0,2.53.68A4.47,4.47,0,0,0,227.32,36c.7-.85.61-.66.61-.66a7,7,0,0,0-3.63-.86C222.41,34.67,221.83,35.34,220.82,36.59Z"/><path class="cls-19" d="M225.69,35.65a1.59,1.59,0,0,1-1.35,1.75,1.51,1.51,0,0,1-1.55-1.51,1.59,1.59,0,0,1,1.35-1.75A1.51,1.51,0,0,1,225.69,35.65Z"/><path class="cls-20" d="M224.8,35.72a.61.61,0,0,1-.52.68.58.58,0,0,1-.6-.58.61.61,0,0,1,.52-.68A.58.58,0,0,1,224.8,35.72Z"/><path class="cls-21" d="M220.82,36.61a6.19,6.19,0,0,1,1.45-1.73,4,4,0,0,1,.95-.6,3.9,3.9,0,0,1,1.24-.22,5.63,5.63,0,0,1,1.94.35,3,3,0,0,1,1.66,1.12c-.26.13-.24.25-.53.07a5.73,5.73,0,0,0-1.27-.48,7.87,7.87,0,0,0-1.93-.16,8.54,8.54,0,0,0-.92.12,3.24,3.24,0,0,0-.91.3A6.64,6.64,0,0,0,220.82,36.61Z"/><path class="cls-21" d="M224.49,37.6a4.34,4.34,0,0,0,1.9-.93,8.81,8.81,0,0,0,1.4-1.46l.27.32a8.58,8.58,0,0,1-1.57,1.33A4.32,4.32,0,0,1,224.49,37.6Z"/><path class="cls-18" d="M213.76,36.59a4.11,4.11,0,0,0-1.14.33,4.18,4.18,0,0,1-2.53.68A4.44,4.44,0,0,1,207.26,36c-.71-.85-.61-.66-.61-.66a7,7,0,0,1,3.63-.86C212.17,34.67,212.75,35.34,213.76,36.59Z"/><path class="cls-19" d="M208.89,35.65a1.59,1.59,0,0,0,1.35,1.75,1.51,1.51,0,0,0,1.55-1.51,1.59,1.59,0,0,0-1.35-1.75A1.51,1.51,0,0,0,208.89,35.65Z"/><path class="cls-20" d="M209.78,35.72a.61.61,0,0,0,.52.68.58.58,0,0,0,.6-.58.61.61,0,0,0-.52-.68A.58.58,0,0,0,209.78,35.72Z"/><path class="cls-21" d="M213.75,36.61a6.16,6.16,0,0,0-1.44-1.73,4.48,4.48,0,0,0-.95-.6,3.94,3.94,0,0,0-1.24-.22,5.63,5.63,0,0,0-1.94.35,3,3,0,0,0-1.67,1.12c.27.13.25.25.54.07a5.73,5.73,0,0,1,1.27-.48,7.87,7.87,0,0,1,1.93-.16,8.54,8.54,0,0,1,.92.12,3.24,3.24,0,0,1,.91.3A6.42,6.42,0,0,1,213.75,36.61Z"/><path class="cls-21" d="M210.09,37.6a4.43,4.43,0,0,1-1.91-.93,9.18,9.18,0,0,1-1.39-1.46l-.28.32a9.31,9.31,0,0,0,1.57,1.33A4.4,4.4,0,0,0,210.09,37.6Z"/><path class="cls-21" d="M220.14,32.26a27.18,27.18,0,0,1,4.11-2.1.77.77,0,0,1,.19-.08,2.47,2.47,0,0,1,.36-.11,5.43,5.43,0,0,1,2.69.09,4.23,4.23,0,0,1,2.24,1.54l-.09.1a3.78,3.78,0,0,0-2.26-1A4.88,4.88,0,0,0,225,31l-.24.12c-.05,0-.07.05-.1.06l-.12.09c-.21.15-.4.28-.6.4-.39.24-3.28,2.63-3.8.71Z"/><path class="cls-21" d="M214.43,32.26a26.71,26.71,0,0,0-4.1-2.1,1,1,0,0,0-.19-.08,2.47,2.47,0,0,0-.36-.11,5.43,5.43,0,0,0-2.69.09,4.23,4.23,0,0,0-2.24,1.54l.08.1a3.83,3.83,0,0,1,2.26-1,4.85,4.85,0,0,1,2.34.29l.25.12.1.06.12.09.59.4c.4.24,3.28,2.63,3.81.71Z"/><path class="cls-15" d="M217.29,46.7a.9.9,0,0,1-.78-.29c-.28-.37-1.38-1.55-1.93-.91s.26,1.4,1.17,1.75a3,3,0,0,0,1.54.38Z"/><path class="cls-16" d="M216.35,46.86c.18.34-1.57-.61-1.4-.92S216,46.25,216.35,46.86Z"/><path class="cls-22" d="M217.29,46c-.74,0-1.43-1.21-1.11-2.77a60.43,60.43,0,0,0,.06-7.8h1Z"/><path class="cls-3" d="M217.28,50.36c-.47,0-.25-.53-1.51-.18s-2,.84-3.14.74a4.8,4.8,0,0,1,1.3,1.62,3.52,3.52,0,0,0,3.36,1.7Z"/><path class="cls-3" d="M217.28,50.36c.46,0,.24-.53,1.5-.18s2,.84,3.14.74a4.8,4.8,0,0,0-1.3,1.62,3.52,3.52,0,0,1-3.36,1.7Z"/><path class="cls-8" d="M212.63,50.92a8.41,8.41,0,0,0,2.29.51c.39,0,.78.07,1.17.08a2.25,2.25,0,0,1,.61.06,3.76,3.76,0,0,0,.54.13,4,4,0,0,0,.52-.15,1.55,1.55,0,0,1,.62-.1c.39,0,.78-.05,1.16-.07a9.28,9.28,0,0,0,2.31-.46,5.93,5.93,0,0,1-2.27.85,9.58,9.58,0,0,1-1.18.17c-.4,0-.65.21-1.16.27a2.58,2.58,0,0,1-.62-.14,1.84,1.84,0,0,0-.55-.07,11.56,11.56,0,0,1-1.18-.17A5.59,5.59,0,0,1,212.63,50.92Z"/><path class="cls-8" d="M212.17,50.81c-.28-.07-.25-.53.11-.28s.43.48.85.66C213.13,51.19,212.35,50.86,212.17,50.81Z"/><path class="cls-8" d="M222.38,50.81c.28-.07.25-.53-.11-.28s-.43.48-.85.66C221.42,51.19,222.2,50.86,222.38,50.81Z"/><path class="cls-8" d="M231.05,68.25s6,1.51,7.63,2.11a23.32,23.32,0,0,1,4.4,1.57c1.57.92,5.94,2.09,9.17,20,.26,1.44.49,2.92.7,4.42a2.34,2.34,0,0,1,0,.26c.2,1.49.38,3,.54,4.52,0,.05,0,.11,0,.16.32,3.14.56,6.32.72,9.4l-13.45,1.9c0-.83,0-1.64-.06-2.42a1.34,1.34,0,0,0,0-.2l0-1c0-.11,0-.22,0-.34s0-.54,0-.81c0-.11,0-.22,0-.33,0-.36,0-.71,0-1.06v-.07c0-.3,0-.59,0-.88,0-.12,0-.24,0-.36s0-.37,0-.55,0-.24,0-.35,0-.37,0-.54,0-.18,0-.26q0-.39,0-.72s0,0,0-.06c0-.19,0-.38,0-.55s0-.13,0-.19,0-.24,0-.34,0-.1,0-.16,0-.19,0-.27a.37.37,0,0,1,0-.11c0-.1,0-.19,0-.25,0,.32,0,.69.06,1.11s0,.64,0,1v.32c0,.46,0,.94,0,1.45h0a25.08,25.08,0,0,1-1.62,8.23h0c-.15.35-.29.71-.47,1a24.59,24.59,0,0,0-2.51,7.64h0v0c-.17,1-.3,2.09-.39,3.16v0c-.19,2.16-.23,4.4-.23,6.73,0,.06,0,.14,0,.2,0,1.14,0,14.35,0,15.53H217.63V82C231.27,82.14,231.05,68.25,231.05,68.25Z"/><path class="cls-8" d="M252.89,90.6c-5.86-20.74-8.41-18.15-10-19-2.27-1.29-12-3.32-12-3.32l10.31,11.33L217.63,95.09v36.73l17.45,5c-1.66-6.43-.27-16.2,3-22.13a19.79,19.79,0,0,0,2-11c.42,2.14,10.28,23.44,9.34,27-.72,2.65-8.5,12-12.88,16.35L244,157.44c10-9.79,16.36-16.81,17.2-20.74C263.32,126.94,257.58,107.2,252.89,90.6Z"/><g class="cls-23"><path class="cls-18" d="M220.41,165.35c-.45.62-1,.93-1.25.7s0-.91.4-1.53,1-.94,1.24-.71S220.86,164.73,220.41,165.35Z"/><path class="cls-18" d="M219.26,164.45c.24.77.19,1.48-.1,1.6s-.71-.4-.95-1.16-.19-1.48.09-1.6S219,163.69,219.26,164.45Z"/><path class="cls-18" d="M218,165.16c.69.14,1.2.54,1.14.89s-.65.52-1.34.38-1.2-.54-1.15-.89S217.33,165,218,165.16Z"/><path class="cls-18" d="M217.92,166.76c.46-.62,1-.94,1.24-.71s.07.92-.38,1.54-1,.94-1.25.71S217.47,167.38,217.92,166.76Z"/><path class="cls-18" d="M219.07,167.65c-.24-.76-.19-1.47.09-1.6s.72.4,1,1.16.19,1.48-.09,1.61S219.31,168.42,219.07,167.65Z"/><path class="cls-18" d="M220.31,167c-.68-.14-1.2-.55-1.15-.9s.66-.52,1.35-.37,1.2.54,1.15.89S221,167.09,220.31,167Z"/><path class="cls-3" d="M219.65,166a.53.53,0,0,1-.48.56.53.53,0,0,1-.48-.56.52.52,0,0,1,.48-.56A.53.53,0,0,1,219.65,166Z"/><path class="cls-18" d="M227.45,155.59c-.45.62-1,.93-1.24.7s-.06-.91.39-1.53,1-.94,1.24-.71S227.9,155,227.45,155.59Z"/><path class="cls-18" d="M226.3,154.69c.24.77.2,1.48-.09,1.6s-.72-.39-1-1.16-.2-1.48.09-1.6S226.07,153.93,226.3,154.69Z"/><path class="cls-18" d="M225.06,155.4c.69.14,1.21.54,1.15.89s-.66.52-1.35.38-1.2-.54-1.14-.89S224.37,155.26,225.06,155.4Z"/><path class="cls-18" d="M225,157c.45-.62,1-.93,1.24-.71s.06.92-.39,1.54-1,.94-1.24.71S224.52,157.62,225,157Z"/><path class="cls-18" d="M226.12,157.89c-.24-.76-.2-1.48.09-1.6s.71.4.95,1.16.2,1.48-.09,1.61S226.35,158.66,226.12,157.89Z"/><path class="cls-18" d="M227.36,157.19c-.69-.14-1.2-.54-1.15-.9s.66-.51,1.34-.37,1.21.54,1.15.89S228.05,157.33,227.36,157.19Z"/><path class="cls-3" d="M226.69,156.28a.52.52,0,0,1-.48.56.57.57,0,0,1,0-1.12A.52.52,0,0,1,226.69,156.28Z"/><path class="cls-18" d="M234.5,145.83c-.45.62-1,.93-1.25.71s-.06-.92.39-1.54,1-.94,1.25-.71S235,145.21,234.5,145.83Z"/><path class="cls-18" d="M233.35,144.93c.24.77.19,1.48-.1,1.61s-.71-.4-.95-1.17-.2-1.48.09-1.6S233.11,144.17,233.35,144.93Z"/><path class="cls-18" d="M232.1,145.64c.69.14,1.21.54,1.15.9s-.65.51-1.34.37-1.2-.54-1.15-.89S231.42,145.5,232.1,145.64Z"/><path class="cls-18" d="M232,147.24c.45-.62,1-.93,1.24-.7s.06.91-.39,1.53-1,.94-1.24.71S231.56,147.86,232,147.24Z"/><path class="cls-18" d="M233.16,148.14c-.24-.77-.19-1.48.09-1.6s.72.39,1,1.15.19,1.48-.09,1.61S233.4,148.9,233.16,148.14Z"/><path class="cls-18" d="M234.4,147.43c-.69-.14-1.2-.55-1.15-.89s.66-.52,1.35-.38,1.2.54,1.15.89S235.09,147.57,234.4,147.43Z"/><path class="cls-3" d="M233.74,146.52a.53.53,0,0,1-.48.56.53.53,0,0,1-.48-.56.52.52,0,0,1,.48-.56A.53.53,0,0,1,233.74,146.52Z"/><path class="cls-18" d="M241.54,136.07c-.45.62-1,.94-1.24.7s-.06-.91.39-1.53,1-.94,1.24-.71S242,135.45,241.54,136.07Z"/><path class="cls-18" d="M240.39,135.17c.24.77.2,1.48-.09,1.6s-.72-.39-1-1.16-.19-1.48.09-1.6S240.15,134.41,240.39,135.17Z"/><path class="cls-18" d="M239.15,135.88c.69.14,1.2.54,1.15.89s-.66.52-1.35.38-1.2-.54-1.15-.89S238.46,135.74,239.15,135.88Z"/><path class="cls-18" d="M239.06,137.48c.45-.62,1-.93,1.24-.71s.06.92-.39,1.54-1,.94-1.25.71S238.6,138.1,239.06,137.48Z"/><path class="cls-18" d="M240.2,138.38c-.23-.77-.19-1.48.1-1.61s.71.4.95,1.17.2,1.48-.09,1.6S240.44,139.14,240.2,138.38Z"/><path class="cls-18" d="M241.45,137.67c-.69-.14-1.21-.54-1.15-.9s.65-.51,1.34-.37,1.21.54,1.15.89S242.14,137.81,241.45,137.67Z"/><path class="cls-3" d="M240.78,136.76a.52.52,0,0,1-.48.56.57.57,0,0,1,0-1.12A.52.52,0,0,1,240.78,136.76Z"/><path class="cls-18" d="M221.55,179.56c-.45.62-1,.94-1.24.71s-.06-.92.39-1.54,1-.94,1.24-.71S222,178.94,221.55,179.56Z"/><path class="cls-18" d="M220.4,178.66c.24.77.2,1.48-.09,1.61s-.71-.4-.95-1.17-.2-1.48.09-1.6S220.17,177.9,220.4,178.66Z"/><path class="cls-18" d="M219.16,179.37c.69.15,1.21.55,1.15.9s-.65.52-1.34.37-1.21-.54-1.15-.89S218.47,179.23,219.16,179.37Z"/><path class="cls-18" d="M219.07,181c.45-.62,1-.93,1.24-.7s.06.91-.39,1.53-1,.94-1.24.71S218.62,181.59,219.07,181Z"/><path class="cls-18" d="M220.22,181.87c-.24-.77-.2-1.49.09-1.6s.72.4,1,1.16.19,1.48-.1,1.6S220.46,182.63,220.22,181.87Z"/><path class="cls-18" d="M221.46,181.16c-.69-.14-1.2-.54-1.15-.89s.66-.52,1.35-.38,1.2.54,1.15.89S222.15,181.3,221.46,181.16Z"/><path class="cls-3" d="M220.8,180.25a.49.49,0,1,1-.49-.56A.53.53,0,0,1,220.8,180.25Z"/><path class="cls-18" d="M228.6,169.8c-.45.62-1,.94-1.24.71s-.06-.92.39-1.54,1-.94,1.24-.71S229.05,169.18,228.6,169.8Z"/><path class="cls-18" d="M227.45,168.9c.24.77.19,1.48-.09,1.61s-.72-.4-1-1.17-.19-1.48.09-1.6S227.21,168.14,227.45,168.9Z"/><path class="cls-18" d="M226.2,169.61c.7.14,1.21.55,1.16.9s-.66.51-1.35.37-1.2-.54-1.15-.89S225.52,169.47,226.2,169.61Z"/><path class="cls-18" d="M226.11,171.21c.46-.62,1-.93,1.25-.7s.06.92-.4,1.53-1,.94-1.24.71S225.66,171.83,226.11,171.21Z"/><path class="cls-18" d="M227.26,172.11c-.24-.77-.19-1.48.1-1.6s.71.39.95,1.16.2,1.48-.09,1.6S227.5,172.87,227.26,172.11Z"/><path class="cls-18" d="M228.51,171.4c-.69-.14-1.21-.54-1.15-.89s.65-.52,1.34-.38,1.2.54,1.15.89S229.19,171.54,228.51,171.4Z"/><path class="cls-3" d="M227.84,170.49a.49.49,0,1,1-.48-.56A.52.52,0,0,1,227.84,170.49Z"/><path class="cls-18" d="M235.64,160c-.45.62-1,.94-1.24.71s-.06-.92.39-1.54,1-.94,1.24-.71S236.09,159.42,235.64,160Z"/><path class="cls-18" d="M234.49,159.15c.24.76.2,1.47-.09,1.6s-.72-.4-1-1.17-.2-1.48.09-1.6S234.26,158.38,234.49,159.15Z"/><path class="cls-18" d="M233.25,159.85c.69.15,1.2.54,1.15.9s-.66.52-1.34.37-1.21-.54-1.15-.89S232.56,159.71,233.25,159.85Z"/><path class="cls-18" d="M233.16,161.45c.45-.62,1-.93,1.24-.7s.06.91-.39,1.53-1,.94-1.24.71S232.71,162.07,233.16,161.45Z"/><path class="cls-18" d="M234.31,162.35c-.24-.77-.2-1.48.09-1.6s.71.39.95,1.16.2,1.48-.09,1.6S234.54,163.11,234.31,162.35Z"/><path class="cls-18" d="M235.55,161.64c-.69-.14-1.2-.54-1.15-.89s.66-.52,1.34-.38,1.21.54,1.15.89S236.24,161.78,235.55,161.64Z"/><path class="cls-3" d="M234.89,160.73a.49.49,0,1,1-.49-.56A.53.53,0,0,1,234.89,160.73Z"/><path class="cls-18" d="M242.69,150.28c-.46.62-1,.94-1.25.71s-.06-.92.39-1.54,1-.94,1.25-.71S243.14,149.66,242.69,150.28Z"/><path class="cls-18" d="M241.54,149.39c.24.76.19,1.47-.1,1.6s-.71-.4-.95-1.16-.2-1.49.09-1.6S241.3,148.62,241.54,149.39Z"/><path class="cls-18" d="M240.29,150.09c.69.15,1.21.54,1.15.9s-.65.52-1.34.37-1.2-.54-1.15-.89S239.61,150,240.29,150.09Z"/><path class="cls-18" d="M240.2,151.69c.45-.62,1-.93,1.24-.7s.06.91-.39,1.54-1,.93-1.24.7S239.75,152.31,240.2,151.69Z"/><path class="cls-18" d="M241.35,152.59c-.24-.76-.2-1.48.09-1.6s.72.39,1,1.16.19,1.48-.09,1.6S241.59,153.35,241.35,152.59Z"/><path class="cls-18" d="M242.59,151.88c-.69-.14-1.2-.54-1.15-.89s.66-.52,1.35-.38,1.2.54,1.15.89S243.28,152,242.59,151.88Z"/><path class="cls-3" d="M241.93,151a.53.53,0,0,1-.48.56.57.57,0,0,1,0-1.12A.53.53,0,0,1,241.93,151Z"/><path class="cls-18" d="M222.7,193.77c-.45.62-1,.94-1.24.71s-.06-.92.39-1.54,1-.94,1.24-.71S223.15,193.15,222.7,193.77Z"/><path class="cls-18" d="M221.55,192.88c.24.76.2,1.48-.09,1.6s-.72-.4-1-1.16-.19-1.49.09-1.61S221.31,192.11,221.55,192.88Z"/><path class="cls-18" d="M220.31,193.58c.69.15,1.2.55,1.15.9s-.66.52-1.35.37-1.2-.54-1.15-.89S219.62,193.44,220.31,193.58Z"/><path class="cls-18" d="M220.22,195.19c.45-.63,1-.94,1.24-.71s.06.92-.39,1.54-1,.93-1.25.7S219.77,195.81,220.22,195.19Z"/><path class="cls-18" d="M221.36,196.08c-.23-.76-.19-1.48.1-1.6s.71.4.95,1.16.2,1.48-.09,1.6S221.6,196.84,221.36,196.08Z"/><path class="cls-18" d="M222.61,195.37c-.69-.14-1.21-.54-1.15-.89s.65-.52,1.34-.38,1.21.54,1.15.89S223.3,195.51,222.61,195.37Z"/><path class="cls-3" d="M221.94,194.46a.52.52,0,0,1-.48.56.57.57,0,0,1,0-1.12A.52.52,0,0,1,221.94,194.46Z"/><path class="cls-18" d="M229.74,184c-.45.62-1,.94-1.24.71s-.06-.92.39-1.54,1-.94,1.24-.71S230.19,183.39,229.74,184Z"/><path class="cls-18" d="M228.59,183.12c.24.76.2,1.48-.09,1.6s-.71-.4-.95-1.16-.2-1.48.09-1.6S228.36,182.35,228.59,183.12Z"/><path class="cls-18" d="M227.35,183.82c.69.15,1.21.55,1.15.9s-.65.52-1.34.37-1.21-.54-1.15-.89S226.66,183.68,227.35,183.82Z"/><path class="cls-18" d="M227.26,185.42c.45-.62,1-.93,1.24-.7s.06.92-.39,1.54-1,.93-1.24.7S226.81,186.05,227.26,185.42Z"/><path class="cls-18" d="M228.41,186.32c-.24-.76-.2-1.48.09-1.6s.72.4,1,1.16.19,1.48-.09,1.6S228.65,187.08,228.41,186.32Z"/><path class="cls-18" d="M229.65,185.61c-.69-.14-1.2-.54-1.15-.89s.66-.52,1.35-.38,1.2.54,1.15.89S230.34,185.75,229.65,185.61Z"/><path class="cls-3" d="M229,184.7a.49.49,0,1,1-.48-.56A.53.53,0,0,1,229,184.7Z"/><path class="cls-18" d="M236.79,174.25c-.45.62-1,.94-1.24.71s-.06-.92.39-1.54,1-.94,1.24-.71S237.24,173.63,236.79,174.25Z"/><path class="cls-18" d="M235.64,173.36c.24.76.19,1.48-.09,1.6s-.72-.4-1-1.16-.19-1.48.09-1.6S235.4,172.59,235.64,173.36Z"/><path class="cls-18" d="M234.4,174.06c.69.15,1.2.55,1.15.9s-.66.52-1.35.37-1.2-.54-1.15-.89S233.71,173.92,234.4,174.06Z"/><path class="cls-18" d="M234.3,175.67c.45-.63,1-.94,1.25-.71s.06.92-.39,1.54-1,.93-1.25.7S233.85,176.29,234.3,175.67Z"/><path class="cls-18" d="M235.45,176.56c-.24-.76-.19-1.48.1-1.6s.71.4.95,1.16.2,1.48-.09,1.6S235.69,177.32,235.45,176.56Z"/><path class="cls-18" d="M236.7,175.85c-.69-.14-1.21-.54-1.15-.89s.65-.52,1.34-.38,1.2.54,1.15.9S237.38,176,236.7,175.85Z"/><path class="cls-3" d="M236,174.94a.53.53,0,0,1-.48.56.57.57,0,0,1,0-1.12A.53.53,0,0,1,236,174.94Z"/><path class="cls-18" d="M243.83,164.49c-.45.62-1,.94-1.24.71s-.06-.92.39-1.54,1-.94,1.24-.71S244.28,163.87,243.83,164.49Z"/><path class="cls-18" d="M242.68,163.6c.24.76.2,1.48-.09,1.6s-.72-.4-1-1.16-.2-1.48.09-1.6S242.45,162.84,242.68,163.6Z"/><path class="cls-18" d="M241.44,164.3c.69.15,1.2.55,1.15.9s-.66.52-1.35.37-1.2-.54-1.15-.89S240.75,164.16,241.44,164.3Z"/><path class="cls-18" d="M241.35,165.91c.45-.63,1-.94,1.24-.71s.06.92-.39,1.54-1,.93-1.24.7S240.9,166.52,241.35,165.91Z"/><path class="cls-18" d="M242.5,166.8c-.24-.76-.2-1.48.09-1.6s.71.4.95,1.16.2,1.48-.09,1.6S242.73,167.56,242.5,166.8Z"/><path class="cls-18" d="M243.74,166.09c-.69-.14-1.2-.54-1.15-.89s.66-.52,1.34-.38,1.21.54,1.15.89S244.43,166.23,243.74,166.09Z"/><path class="cls-3" d="M243.08,165.18a.49.49,0,1,1-.49-.56A.53.53,0,0,1,243.08,165.18Z"/><path class="cls-18" d="M223.85,208c-.46.62-1,.94-1.25.71s-.06-.92.39-1.54,1-.94,1.25-.71S224.3,207.36,223.85,208Z"/><path class="cls-18" d="M222.7,207.09c.23.76.19,1.48-.1,1.6s-.71-.4-.95-1.16-.2-1.48.09-1.6S222.46,206.33,222.7,207.09Z"/><path class="cls-18" d="M221.45,207.8c.69.14,1.21.54,1.15.89s-.65.52-1.34.38-1.21-.55-1.15-.9S220.77,207.66,221.45,207.8Z"/><path class="cls-18" d="M221.36,209.4c.45-.62,1-.94,1.24-.71s.06.92-.39,1.54-1,.93-1.24.71S220.91,210,221.36,209.4Z"/><path class="cls-18" d="M222.51,210.29c-.24-.76-.19-1.48.09-1.6s.72.4,1,1.16.19,1.48-.09,1.6S222.75,211.05,222.51,210.29Z"/><path class="cls-18" d="M223.75,209.58c-.69-.14-1.2-.54-1.15-.89s.66-.52,1.35-.38,1.2.54,1.15.9S224.44,209.73,223.75,209.58Z"/><path class="cls-3" d="M223.09,208.67a.53.53,0,0,1-.48.56.57.57,0,0,1,0-1.12A.53.53,0,0,1,223.09,208.67Z"/><path class="cls-18" d="M230.89,198.22c-.45.62-1,.94-1.24.71s-.06-.92.39-1.54,1-.93,1.24-.71S231.34,197.6,230.89,198.22Z"/><path class="cls-18" d="M229.74,197.33c.24.76.2,1.48-.09,1.6s-.72-.4-1-1.16-.19-1.48.09-1.6S229.5,196.57,229.74,197.33Z"/><path class="cls-18" d="M228.5,198c.69.14,1.2.54,1.15.89s-.66.52-1.35.38-1.2-.54-1.15-.89S227.81,197.89,228.5,198Z"/><path class="cls-18" d="M228.4,199.64c.46-.62,1-.94,1.25-.71s.06.92-.39,1.54-1,.94-1.25.71S228,200.26,228.4,199.64Z"/><path class="cls-18" d="M229.55,200.53c-.23-.76-.19-1.48.1-1.6s.71.4.95,1.16.2,1.48-.09,1.6S229.79,201.29,229.55,200.53Z"/><path class="cls-18" d="M230.8,199.82c-.69-.14-1.21-.54-1.15-.89s.65-.52,1.34-.38,1.21.55,1.15.89S231.49,200,230.8,199.82Z"/><path class="cls-3" d="M230.13,198.91a.52.52,0,0,1-.48.56.57.57,0,0,1,0-1.12A.52.52,0,0,1,230.13,198.91Z"/><path class="cls-18" d="M237.93,188.46c-.45.62-1,.94-1.24.71s-.06-.92.39-1.54,1-.93,1.24-.71S238.38,187.84,237.93,188.46Z"/><path class="cls-18" d="M236.78,187.57c.24.76.2,1.48-.09,1.6s-.71-.4-.95-1.16-.2-1.48.09-1.6S236.55,186.8,236.78,187.57Z"/><path class="cls-18" d="M235.54,188.28c.69.14,1.21.54,1.15.89s-.65.52-1.34.38-1.21-.54-1.15-.9S234.85,188.13,235.54,188.28Z"/><path class="cls-18" d="M235.45,189.88c.45-.62,1-.94,1.24-.71s.06.92-.39,1.54-1,.94-1.24.71S235,190.5,235.45,189.88Z"/><path class="cls-18" d="M236.6,190.77c-.24-.76-.2-1.48.09-1.6s.72.4.95,1.16.2,1.48-.09,1.6S236.84,191.54,236.6,190.77Z"/><path class="cls-18" d="M237.84,190.06c-.69-.14-1.2-.54-1.15-.89s.66-.52,1.35-.38,1.2.55,1.15.9S238.53,190.21,237.84,190.06Z"/><path class="cls-3" d="M237.18,189.15a.49.49,0,1,1-1,0,.49.49,0,1,1,1,0Z"/><path class="cls-18" d="M245,178.7c-.45.62-1,.94-1.24.71s-.06-.92.39-1.54,1-.94,1.24-.71S245.43,178.08,245,178.7Z"/><path class="cls-18" d="M243.83,177.81c.24.76.19,1.48-.09,1.6s-.72-.4-1-1.16-.19-1.48.09-1.6S243.59,177.05,243.83,177.81Z"/><path class="cls-18" d="M242.58,178.52c.69.14,1.21.54,1.16.89s-.66.52-1.35.38-1.2-.54-1.15-.89S241.9,178.37,242.58,178.52Z"/><path class="cls-18" d="M242.49,180.12c.46-.62,1-.94,1.25-.71s.06.92-.4,1.54-1,.93-1.24.71S242,180.74,242.49,180.12Z"/><path class="cls-18" d="M243.64,181c-.24-.76-.19-1.48.1-1.6s.71.4.95,1.16.2,1.48-.09,1.6S243.88,181.77,243.64,181Z"/><path class="cls-18" d="M244.89,180.3c-.69-.14-1.21-.54-1.15-.89s.65-.52,1.34-.38,1.2.55,1.15.9S245.57,180.45,244.89,180.3Z"/><path class="cls-3" d="M244.22,179.39a.49.49,0,1,1-1,0,.49.49,0,1,1,1,0Z"/></g><path class="cls-24" d="M231,96.1l0,0c3.56-8.76,12.46-12.8,20.22-9s11.49,14,8.56,23.06l0,0c-2.48,7.36-7.71,16-9.89,20s-8.24,19.12-8.24,19.12c-3.36,9.22-7.85,11.35-15.81,7.45s-9.79-9.09-6.44-18.32c0,0,5.12-15.6,6.06-20.19S228.18,103.3,231,96.1Z"/><path class="cls-6" d="M251.25,87.12h0l-25.71,69.52.38.19c8,3.9,12.45,1.77,15.81-7.45,0,0,6.06-15.12,8.24-19.12s7.41-12.69,9.89-20l0,0C262.74,101.12,259,90.92,251.25,87.12Z"/><path class="cls-5" d="M239.73,93.52l.15.07c.16-.64.31-1.28.45-1.89.76-3.13,3.16-12.17,12.09-7.8s5,12.67,3.63,15.48c-.28.54-.57,1.12-.85,1.7l.14.07c1.79-.5.8,2.6-.15,3.36a6.59,6.59,0,0,0-1.45,1.53c-.47.61-.85.53-1.11.31-.18.4-.35.74-.48,1-.71,1.54-5.19,3.12-6.31,3.76s-2.09-.34-2.46-.54l-.55-.32s-.19-.07-.57-.24-1.69-.37-2.06-1.65-2.54-6.2-2.08-7.87l.3-1.11c-.32-.06-.63-.32-.59-1.12a7.92,7.92,0,0,0-.07-2.28C237.57,94.68,238.79,91.69,239.73,93.52Z"/><path class="cls-7" d="M251.68,84.84a2.35,2.35,0,0,0,3.17.49,3.19,3.19,0,0,0,1.27-1.57,3.64,3.64,0,0,0,.06-2.26,3.11,3.11,0,0,0-1.3-1.67,1.91,1.91,0,0,0-2,.06,2.24,2.24,0,0,0-1,1.81,1.66,1.66,0,0,0,.91,1.6,1.68,1.68,0,0,1-.28-1.48,1.34,1.34,0,0,1,.81-.86,1.08,1.08,0,0,1,1,.11,1.71,1.71,0,0,1,.67,1,2.26,2.26,0,0,1-.64,2.33A2.47,2.47,0,0,1,251.68,84.84Z"/><path class="cls-4" d="M242.57,102.78a3.35,3.35,0,0,0,1.45,4.13,2.59,2.59,0,0,0,3.56-1.68,3.36,3.36,0,0,0-1.44-4.14A2.61,2.61,0,0,0,242.57,102.78Z"/><path class="cls-24" d="M242.1,104.9a2.37,2.37,0,0,1,3.24-1.52,3,3,0,0,1,1.31,3.75,2.35,2.35,0,0,1-3.23,1.52A3,3,0,0,1,242.1,104.9Zm.9.44a1.87,1.87,0,0,0,.79,2.28,1.44,1.44,0,0,0,2-.93,1.85,1.85,0,0,0-.8-2.27A1.43,1.43,0,0,0,243,105.34Z"/><path class="cls-3" d="M243.4,103.18a2.24,2.24,0,0,0,1,2.78,1.74,1.74,0,0,0,2.39-1.13,2.26,2.26,0,0,0-1-2.79A1.76,1.76,0,0,0,243.4,103.18Z"/><path class="cls-10" d="M230,98.8l8.33,23.73,20.48-9.65c-.57,1.42-1.22,2.86-1.89,4.28l-17.56,8.28L245,141.36l-1.59,3.84-6.52-18.58-16,7.56,1.26-4,13.74-6.47-7.15-20.36C229.12,101.81,229.57,100.27,230,98.8Z"/><path class="cls-11" d="M238.37,122.53l-1.49,4.09,6.52,18.58c.47-1.15,1-2.47,1.59-3.84l-5.59-15.92L257,117.16c.06-.11.11-.22.16-.33.23-.49.45-1,.67-1.46.09-.2.18-.39.26-.59.27-.6.53-1.21.77-1.81l0-.09Z"/><path class="cls-3" d="M231.74,121.74c-.75,2.1-1.15,3.9.13,4.53s5.07-.66,5.47-1.79-1.45-5.16-2.72-5.78S232.51,119.66,231.74,121.74Z"/><path class="cls-3" d="M243.63,127.55c-.76,2.09-1.61,3.68-2.87,3.06s-3.15-4.67-2.73-5.79,4.21-2.41,5.48-1.78S244.39,125.46,243.63,127.55Z"/><path class="cls-4" d="M235.92,123.79a2.38,2.38,0,0,0,1,2.91,1.84,1.84,0,0,0,2.51-1.19,2.37,2.37,0,0,0-1-2.91A1.84,1.84,0,0,0,235.92,123.79Z"/><path class="cls-25" d="M242.72,93.63a8.37,8.37,0,0,0,1.5,1.28,5,5,0,0,0,.83.43,5.27,5.27,0,0,0,.93.23,2.13,2.13,0,0,1-1.95-.25,3.13,3.13,0,0,1-.78-.72A3,3,0,0,1,242.72,93.63Z"/><path class="cls-25" d="M249.94,97.54a8.86,8.86,0,0,0,1.53,1.13,4.73,4.73,0,0,0,.83.36,7.38,7.38,0,0,0,.9.23,2.2,2.2,0,0,1-1.9-.18,2.72,2.72,0,0,1-.8-.64A2.79,2.79,0,0,1,249.94,97.54Z"/><path class="cls-5" d="M245.43,142.38c-2.31,3.36-4.54,6.31-5.57,6.38-2.06.15-5.66,2.37-7.46,3.35s1.24,1.83,3.55,1-.92,2.57-4,3.53-4.88.12-5.41.63.32,1.7,4.33,4.35c3.71,2.45,9.31-1.39,14.16-7.72a70,70,0,0,1,5.3-5.77Z"/><path class="cls-8" d="M255.71,133.17c-.25-.14-6.2-.38-6.43-.55A168,168,0,0,1,236,147.77l8.07,9.67c7.25-7.07,12.09-12.25,15.08-16.58C256.23,138,259.2,135,255.71,133.17Z"/><path class="cls-3" d="M223.35,313.52s.14,9.19,5.47,9.52v10.33l-3.15-1.93-3.58-7.4Z"/><path class="cls-3" d="M234.3,313.52s-.14,9.19-5.48,9.52v10.33l3.19-1.12,3.55-10.14Z"/><path class="cls-3" d="M199,319.47c0,8.14,2.87,14.75,7.45,14.75s7.46-6.61,7.46-14.75-2.88-14.75-7.46-14.75S199,311.32,199,319.47Z"/><path class="cls-5" d="M198.18,196.63s-.47,24.75,2,32.1-3.11,25.33-1,40,5.07,30.17,3.4,35.78a47.42,47.42,0,0,0-1.5,18.18c.67,6.18,2.8,9.66,5.34,9.66V196.63Z"/><path class="cls-5" d="M214.68,196.63s.47,24.75-2.05,32.1,3.11,25.33,1,40-5.07,30.17-3.4,35.78a47,47,0,0,1,1.5,18.18c-.67,6.18-3.5,9.66-5.34,9.66V196.63Z"/><polygon class="cls-4" points="217.63 178.15 216.94 203.42 204.1 203.42 195.73 203.42 195.89 170.23 197.9 146.91 217.63 146.91 217.63 178.15"/><path class="cls-3" d="M202.46,146.91h15.17V134.55H203.8A84.34,84.34,0,0,1,202.46,146.91Z"/><path class="cls-3" d="M204.21,68.25s-6.05,1.51-7.63,2.11a23.32,23.32,0,0,0-4.4,1.57c-1.57.92-6,2.09-9.18,20-.26,1.44-.49,2.92-.7,4.42l0,.26c-.21,1.49-.39,3-.55,4.52,0,.05,0,.11,0,.16-.33,3.14-.56,6.32-.73,9.4,0,0,13.72-6.33,13.72-6.44l0-.54c0-.09,0-.18,0-.26,0-.26,0-.5,0-.72v-.06c0-.19.05-.68.05-.74s0-.24,0-.34,0-.1,0-.16,0-.19,0-.27a.36.36,0,0,0,0-.11c0-.1,0-.19,0-.25,0,.32,0,.69-.05,1.11s0,.64,0,1c0,.11,0,.21,0,.32,0,.46,0,1.45,0,1.45a25.35,25.35,0,0,0,1.63,8.23h0c.15.35.29.71.47,1a24.84,24.84,0,0,1,2.5,7.64h0v0c.18,1,.31,2.09.4,3.16v0c.18,2.16.23,4.4.23,6.73v3.67h17.49V82C204,82.14,204.21,68.25,204.21,68.25Z"/><path class="cls-3" d="M182.37,92.46c5.86-20.75,8.41-18.16,10-19,2.27-1.28,12-3.31,12-3.31L194.08,81.44l23.55,15.5v36.74l-17.45,5c1.65-6.42.27-16.19-3.05-22.12a19.9,19.9,0,0,1-2-11c-.42,2.13-10.28,23.44-9.33,27,.71,2.65,8.49,12,12.88,16.35l-7.39,10.37c-10-9.78-16.36-16.81-17.21-20.74C171.94,128.79,177.68,109.06,182.37,92.46Z"/><g class="cls-26"><path class="cls-18" d="M214.85,165.35c.45.62,1,.93,1.24.7s.06-.91-.39-1.53-1-.94-1.24-.71S214.4,164.73,214.85,165.35Z"/><path class="cls-18" d="M216,164.45c-.24.77-.2,1.48.09,1.6s.72-.4.95-1.16.2-1.48-.09-1.6S216.24,163.69,216,164.45Z"/><path class="cls-18" d="M217.24,165.16c-.69.14-1.2.54-1.15.89s.66.52,1.35.38,1.2-.54,1.15-.89S217.93,165,217.24,165.16Z"/><path class="cls-18" d="M217.33,166.76c-.45-.62-1-.94-1.24-.71s-.06.92.39,1.54,1,.94,1.24.71S217.78,167.38,217.33,166.76Z"/><path class="cls-18" d="M216.18,167.65c.24-.76.2-1.47-.09-1.6s-.71.4-1,1.16-.2,1.48.09,1.61S216,168.42,216.18,167.65Z"/><path class="cls-18" d="M214.94,167c.69-.14,1.21-.55,1.15-.9s-.66-.52-1.34-.37-1.21.54-1.15.89S214.25,167.09,214.94,167Z"/><path class="cls-3" d="M215.6,166a.49.49,0,1,0,1,0,.49.49,0,1,0-1,0Z"/><path class="cls-18" d="M207.81,155.59c.44.62,1,.93,1.24.7s.06-.91-.39-1.53-1-.94-1.25-.71S207.35,155,207.81,155.59Z"/><path class="cls-18" d="M209,154.69c-.23.77-.19,1.48.1,1.6s.71-.39.95-1.16.2-1.48-.09-1.6S209.19,153.93,209,154.69Z"/><path class="cls-18" d="M210.2,155.4c-.69.14-1.21.54-1.15.89s.65.52,1.34.38,1.21-.54,1.15-.89S210.88,155.26,210.2,155.4Z"/><path class="cls-18" d="M210.29,157c-.45-.62-1-.93-1.24-.71s-.06.92.39,1.54,1,.94,1.24.71S210.74,157.62,210.29,157Z"/><path class="cls-18" d="M209.14,157.89c.24-.76.2-1.48-.09-1.6s-.72.4-1,1.16-.19,1.48.09,1.61S208.9,158.66,209.14,157.89Z"/><path class="cls-18" d="M207.9,157.19c.69-.14,1.2-.54,1.15-.9s-.66-.51-1.35-.37-1.2.54-1.15.89S207.21,157.33,207.9,157.19Z"/><path class="cls-3" d="M208.56,156.28a.53.53,0,0,0,.48.56.57.57,0,0,0,0-1.12A.53.53,0,0,0,208.56,156.28Z"/><path class="cls-18" d="M200.76,145.83c.45.62,1,.93,1.24.71s.06-.92-.39-1.54-1-.94-1.24-.71S200.31,145.21,200.76,145.83Z"/><path class="cls-18" d="M201.91,144.93c-.24.77-.2,1.48.09,1.61s.72-.4,1-1.17.19-1.48-.1-1.6S202.15,144.17,201.91,144.93Z"/><path class="cls-18" d="M203.15,145.64c-.69.14-1.2.54-1.15.9s.66.51,1.35.37,1.2-.54,1.15-.89S203.84,145.5,203.15,145.64Z"/><path class="cls-18" d="M203.24,147.24c-.45-.62-1-.93-1.24-.7s-.06.91.39,1.53,1,.94,1.24.71S203.7,147.86,203.24,147.24Z"/><path class="cls-18" d="M202.09,148.14c.24-.77.2-1.48-.09-1.6s-.71.39-.95,1.15-.2,1.48.09,1.61S201.86,148.9,202.09,148.14Z"/><path class="cls-18" d="M200.85,147.43c.69-.14,1.21-.55,1.15-.89s-.65-.52-1.34-.38-1.21.54-1.15.89S200.16,147.57,200.85,147.43Z"/><path class="cls-3" d="M201.52,146.52a.53.53,0,0,0,.48.56.53.53,0,0,0,.48-.56A.53.53,0,0,0,202,146,.52.52,0,0,0,201.52,146.52Z"/><path class="cls-18" d="M193.72,136.07c.45.62,1,.94,1.24.7s.06-.91-.39-1.53-1-.94-1.24-.71S193.26,135.45,193.72,136.07Z"/><path class="cls-18" d="M194.87,135.17c-.24.77-.2,1.48.09,1.6s.71-.39.95-1.16.2-1.48-.09-1.6S195.1,134.41,194.87,135.17Z"/><path class="cls-18" d="M196.11,135.88c-.69.14-1.21.54-1.15.89s.65.52,1.34.38,1.21-.54,1.15-.89S196.8,135.74,196.11,135.88Z"/><path class="cls-18" d="M196.2,137.48c-.45-.62-1-.93-1.24-.71s-.06.92.39,1.54,1,.94,1.24.71S196.65,138.1,196.2,137.48Z"/><path class="cls-18" d="M195.05,138.38c.24-.77.2-1.48-.09-1.61s-.72.4-1,1.17-.19,1.48.1,1.6S194.81,139.14,195.05,138.38Z"/><path class="cls-18" d="M193.81,137.67c.69-.14,1.2-.54,1.15-.9s-.66-.51-1.35-.37-1.2.54-1.15.89S193.12,137.81,193.81,137.67Z"/><path class="cls-3" d="M194.47,136.76a.49.49,0,1,0,.49-.56A.53.53,0,0,0,194.47,136.76Z"/><path class="cls-18" d="M213.7,179.56c.45.62,1,.94,1.24.71s.06-.92-.39-1.54-1-.94-1.24-.71S213.25,178.94,213.7,179.56Z"/><path class="cls-18" d="M214.85,178.66c-.24.77-.19,1.48.09,1.61s.72-.4,1-1.17.2-1.48-.09-1.6S215.09,177.9,214.85,178.66Z"/><path class="cls-18" d="M216.1,179.37c-.7.15-1.21.55-1.16.9s.66.52,1.35.37,1.2-.54,1.15-.89S216.78,179.23,216.1,179.37Z"/><path class="cls-18" d="M216.19,181c-.45-.62-1-.93-1.25-.7s-.06.91.4,1.53,1,.94,1.24.71S216.64,181.59,216.19,181Z"/><path class="cls-18" d="M215,181.87c.24-.77.19-1.49-.1-1.6s-.71.4-.95,1.16-.19,1.48.09,1.6S214.8,182.63,215,181.87Z"/><path class="cls-18" d="M213.8,181.16c.68-.14,1.2-.54,1.14-.89s-.65-.52-1.34-.38-1.2.54-1.15.89S213.11,181.3,213.8,181.16Z"/><path class="cls-3" d="M214.46,180.25a.53.53,0,0,0,.48.56.57.57,0,0,0,0-1.12A.53.53,0,0,0,214.46,180.25Z"/><path class="cls-18" d="M206.66,169.8c.45.62,1,.94,1.24.71s.06-.92-.39-1.54-1-.94-1.24-.71S206.21,169.18,206.66,169.8Z"/><path class="cls-18" d="M207.81,168.9c-.24.77-.2,1.48.09,1.61s.72-.4.95-1.17.2-1.48-.09-1.6S208.05,168.14,207.81,168.9Z"/><path class="cls-18" d="M209.05,169.61c-.69.14-1.2.55-1.15.9s.66.51,1.35.37,1.2-.54,1.14-.89S209.74,169.47,209.05,169.61Z"/><path class="cls-18" d="M209.14,171.21c-.45-.62-1-.93-1.24-.7s-.06.92.39,1.53,1,.94,1.24.71S209.59,171.83,209.14,171.21Z"/><path class="cls-18" d="M208,172.11c.24-.77.2-1.48-.09-1.6s-.71.39-1,1.16-.2,1.48.09,1.6S207.76,172.87,208,172.11Z"/><path class="cls-18" d="M206.75,171.4c.69-.14,1.2-.54,1.15-.89s-.66-.52-1.34-.38-1.21.54-1.15.89S206.06,171.54,206.75,171.4Z"/><path class="cls-3" d="M207.42,170.49a.52.52,0,0,0,.48.56.57.57,0,0,0,0-1.12A.52.52,0,0,0,207.42,170.49Z"/><path class="cls-18" d="M199.61,160c.46.62,1,.94,1.25.71s.06-.92-.39-1.54-1-.94-1.25-.71S199.16,159.42,199.61,160Z"/><path class="cls-18" d="M200.76,159.15c-.23.76-.19,1.47.1,1.6s.71-.4.95-1.17.2-1.48-.09-1.6S201,158.38,200.76,159.15Z"/><path class="cls-18" d="M202,159.85c-.69.15-1.21.54-1.15.9s.65.52,1.34.37,1.2-.54,1.15-.89S202.69,159.71,202,159.85Z"/><path class="cls-18" d="M202.1,161.45c-.45-.62-1-.93-1.24-.7s-.06.91.39,1.53,1,.94,1.24.71S202.55,162.07,202.1,161.45Z"/><path class="cls-18" d="M201,162.35c.24-.77.2-1.48-.09-1.6s-.72.39-1,1.16-.19,1.48.09,1.6S200.71,163.11,201,162.35Z"/><path class="cls-18" d="M199.71,161.64c.69-.14,1.2-.54,1.15-.89s-.66-.52-1.35-.38-1.2.54-1.15.89S199,161.78,199.71,161.64Z"/><path class="cls-3" d="M200.37,160.73a.53.53,0,0,0,.48.56.57.57,0,0,0,0-1.12A.53.53,0,0,0,200.37,160.73Z"/><path class="cls-18" d="M192.57,150.28c.45.62,1,.94,1.24.71s.06-.92-.39-1.54-1-.94-1.24-.71S192.12,149.66,192.57,150.28Z"/><path class="cls-18" d="M193.72,149.39c-.24.76-.2,1.47.09,1.6s.72-.4,1-1.16.19-1.49-.1-1.6S194,148.62,193.72,149.39Z"/><path class="cls-18" d="M195,150.09c-.69.15-1.2.54-1.15.9s.66.52,1.35.37,1.2-.54,1.15-.89S195.65,150,195,150.09Z"/><path class="cls-18" d="M195.05,151.69c-.45-.62-1-.93-1.24-.7s-.06.91.39,1.54,1,.93,1.25.7S195.51,152.31,195.05,151.69Z"/><path class="cls-18" d="M193.91,152.59c.23-.76.19-1.48-.1-1.6s-.71.39-.95,1.16-.2,1.48.09,1.6S193.67,153.35,193.91,152.59Z"/><path class="cls-18" d="M192.66,151.88c.69-.14,1.21-.54,1.15-.89s-.65-.52-1.34-.38-1.21.54-1.15.89S192,152,192.66,151.88Z"/><path class="cls-3" d="M193.33,151a.52.52,0,0,0,.48.56.57.57,0,0,0,0-1.12A.52.52,0,0,0,193.33,151Z"/><path class="cls-18" d="M212.56,193.77c.45.62,1,.94,1.24.71s.06-.92-.39-1.54-1-.94-1.24-.71S212.11,193.15,212.56,193.77Z"/><path class="cls-18" d="M213.71,192.88c-.24.76-.2,1.48.09,1.6s.71-.4.95-1.16.2-1.49-.09-1.61S213.94,192.11,213.71,192.88Z"/><path class="cls-18" d="M215,193.58c-.69.15-1.21.55-1.15.9s.66.52,1.34.37,1.21-.54,1.15-.89S215.64,193.44,215,193.58Z"/><path class="cls-18" d="M215,195.19c-.45-.63-1-.94-1.24-.71s-.06.92.39,1.54,1,.93,1.24.7S215.49,195.81,215,195.19Z"/><path class="cls-18" d="M213.89,196.08c.24-.76.2-1.48-.09-1.6s-.72.4-1,1.16-.19,1.48.1,1.6S213.65,196.84,213.89,196.08Z"/><path class="cls-18" d="M212.65,195.37c.69-.14,1.2-.54,1.15-.89s-.66-.52-1.35-.38-1.2.54-1.15.89S212,195.51,212.65,195.37Z"/><path class="cls-3" d="M213.31,194.46a.49.49,0,1,0,.49-.56A.53.53,0,0,0,213.31,194.46Z"/><path class="cls-18" d="M205.51,184c.45.62,1,.94,1.25.71s.05-.92-.4-1.54-1-.94-1.24-.71S205.06,183.39,205.51,184Z"/><path class="cls-18" d="M206.66,183.12c-.24.76-.19,1.48.1,1.6s.71-.4,1-1.16.19-1.48-.09-1.6S206.9,182.35,206.66,183.12Z"/><path class="cls-18" d="M207.91,183.82c-.7.15-1.21.55-1.15.9s.65.52,1.34.37,1.2-.54,1.15-.89S208.59,183.68,207.91,183.82Z"/><path class="cls-18" d="M208,185.42c-.45-.62-1-.93-1.24-.7s-.06.92.39,1.54,1,.93,1.24.7S208.45,186.05,208,185.42Z"/><path class="cls-18" d="M206.85,186.32c.24-.76.19-1.48-.09-1.6s-.72.4-1,1.16-.2,1.48.09,1.6S206.61,187.08,206.85,186.32Z"/><path class="cls-18" d="M205.6,185.61c.69-.14,1.21-.54,1.16-.89s-.66-.52-1.35-.38-1.2.54-1.15.89S204.92,185.75,205.6,185.61Z"/><path class="cls-3" d="M206.27,184.7a.49.49,0,1,0,.48-.56A.52.52,0,0,0,206.27,184.7Z"/><path class="cls-18" d="M198.47,174.25c.45.62,1,.94,1.24.71s.06-.92-.39-1.54-1-.94-1.24-.71S198,173.63,198.47,174.25Z"/><path class="cls-18" d="M199.62,173.36c-.24.76-.2,1.48.09,1.6s.72-.4.95-1.16.2-1.48-.09-1.6S199.85,172.59,199.62,173.36Z"/><path class="cls-18" d="M200.86,174.06c-.69.15-1.2.55-1.15.9s.66.52,1.34.37,1.21-.54,1.15-.89S201.55,173.92,200.86,174.06Z"/><path class="cls-18" d="M201,175.67c-.45-.63-1-.94-1.24-.71s-.06.92.39,1.54,1,.93,1.24.7S201.4,176.29,201,175.67Z"/><path class="cls-18" d="M199.8,176.56c.24-.76.2-1.48-.09-1.6s-.71.4-1,1.16-.2,1.48.09,1.6S199.57,177.32,199.8,176.56Z"/><path class="cls-18" d="M198.56,175.85c.69-.14,1.2-.54,1.15-.89s-.66-.52-1.34-.38-1.21.54-1.15.9S197.87,176,198.56,175.85Z"/><path class="cls-3" d="M199.23,174.94a.52.52,0,0,0,.48.56.57.57,0,0,0,0-1.12A.52.52,0,0,0,199.23,174.94Z"/><path class="cls-18" d="M191.42,164.49c.46.62,1,.94,1.25.71s.06-.92-.39-1.54-1-.94-1.25-.71S191,163.87,191.42,164.49Z"/><path class="cls-18" d="M192.57,163.6c-.23.76-.19,1.48.1,1.6s.71-.4,1-1.16.2-1.48-.09-1.6S192.81,162.84,192.57,163.6Z"/><path class="cls-18" d="M193.82,164.3c-.69.15-1.21.55-1.15.9s.65.52,1.34.37,1.2-.54,1.15-.89S194.5,164.16,193.82,164.3Z"/><path class="cls-18" d="M193.91,165.91c-.45-.63-1-.94-1.24-.71s-.06.92.39,1.54,1,.93,1.24.7S194.36,166.52,193.91,165.91Z"/><path class="cls-18" d="M192.76,166.8c.24-.76.2-1.48-.09-1.6s-.72.4-1,1.16-.19,1.48.09,1.6S192.52,167.56,192.76,166.8Z"/><path class="cls-18" d="M191.52,166.09c.69-.14,1.2-.54,1.15-.89s-.66-.52-1.35-.38-1.2.54-1.15.89S190.83,166.23,191.52,166.09Z"/><path class="cls-3" d="M192.18,165.18a.53.53,0,0,0,.48.56.57.57,0,0,0,0-1.12A.53.53,0,0,0,192.18,165.18Z"/><path class="cls-18" d="M211.41,208c.45.62,1,.94,1.24.71s.06-.92-.39-1.54-1-.94-1.24-.71S211,207.36,211.41,208Z"/><path class="cls-18" d="M212.56,207.09c-.24.76-.2,1.48.09,1.6s.72-.4,1-1.16.19-1.48-.09-1.6S212.8,206.33,212.56,207.09Z"/><path class="cls-18" d="M213.8,207.8c-.69.14-1.2.54-1.15.89s.66.52,1.35.38,1.2-.55,1.15-.9S214.49,207.66,213.8,207.8Z"/><path class="cls-18" d="M213.9,209.4c-.46-.62-1-.94-1.25-.71s-.06.92.39,1.54,1,.93,1.25.71S214.35,210,213.9,209.4Z"/><path class="cls-18" d="M212.75,210.29c.23-.76.19-1.48-.1-1.6s-.71.4-1,1.16-.2,1.48.09,1.6S212.51,211.05,212.75,210.29Z"/><path class="cls-18" d="M211.5,209.58c.69-.14,1.21-.54,1.15-.89s-.65-.52-1.34-.38-1.21.54-1.15.9S210.81,209.73,211.5,209.58Z"/><path class="cls-3" d="M212.17,208.67a.52.52,0,0,0,.48.56.57.57,0,0,0,0-1.12A.52.52,0,0,0,212.17,208.67Z"/><path class="cls-18" d="M204.37,198.22c.45.62,1,.94,1.24.71s.06-.92-.39-1.54-1-.93-1.24-.71S203.92,197.6,204.37,198.22Z"/><path class="cls-18" d="M205.52,197.33c-.24.76-.2,1.48.09,1.6s.71-.4.95-1.16.2-1.48-.09-1.6S205.75,196.57,205.52,197.33Z"/><path class="cls-18" d="M206.76,198c-.69.14-1.21.54-1.15.89s.65.52,1.34.38,1.21-.54,1.15-.89S207.45,197.89,206.76,198Z"/><path class="cls-18" d="M206.85,199.64c-.45-.62-1-.94-1.24-.71s-.06.92.39,1.54,1,.94,1.24.71S207.3,200.26,206.85,199.64Z"/><path class="cls-18" d="M205.7,200.53c.24-.76.2-1.48-.09-1.6s-.72.4-1,1.16-.19,1.48.1,1.6S205.46,201.29,205.7,200.53Z"/><path class="cls-18" d="M204.46,199.82c.69-.14,1.2-.54,1.15-.89s-.66-.52-1.35-.38-1.2.55-1.15.89S203.77,200,204.46,199.82Z"/><path class="cls-3" d="M205.12,198.91a.49.49,0,1,0,.48-.56A.53.53,0,0,0,205.12,198.91Z"/><path class="cls-18" d="M197.32,188.46c.45.62,1,.94,1.24.71s.06-.92-.39-1.54-1-.93-1.24-.71S196.87,187.84,197.32,188.46Z"/><path class="cls-18" d="M198.47,187.57c-.24.76-.19,1.48.09,1.6s.72-.4,1-1.16.19-1.48-.09-1.6S198.71,186.8,198.47,187.57Z"/><path class="cls-18" d="M199.72,188.28c-.7.14-1.21.54-1.16.89s.66.52,1.35.38,1.2-.54,1.15-.9S200.4,188.13,199.72,188.28Z"/><path class="cls-18" d="M199.81,189.88c-.45-.62-1-.94-1.25-.71s-.06.92.4,1.54,1,.94,1.24.71S200.26,190.5,199.81,189.88Z"/><path class="cls-18" d="M198.66,190.77c.24-.76.19-1.48-.1-1.6s-.71.4-.95,1.16-.19,1.48.09,1.6S198.42,191.54,198.66,190.77Z"/><path class="cls-18" d="M197.42,190.06c.68-.14,1.2-.54,1.14-.89s-.65-.52-1.34-.38-1.2.55-1.15.9S196.73,190.21,197.42,190.06Z"/><path class="cls-3" d="M198.08,189.15a.53.53,0,0,0,.48.56.52.52,0,0,0,.48-.56.53.53,0,0,0-.48-.56A.53.53,0,0,0,198.08,189.15Z"/><path class="cls-18" d="M190.28,178.7c.45.62,1,.94,1.24.71s.06-.92-.39-1.54-1-.94-1.24-.71S189.83,178.08,190.28,178.7Z"/><path class="cls-18" d="M191.43,177.81c-.24.76-.2,1.48.09,1.6s.72-.4.95-1.16.2-1.48-.09-1.6S191.67,177.05,191.43,177.81Z"/><path class="cls-18" d="M192.67,178.52c-.69.14-1.2.54-1.15.89s.66.52,1.35.38,1.2-.54,1.15-.89S193.36,178.37,192.67,178.52Z"/><path class="cls-18" d="M192.76,180.12c-.45-.62-1-.94-1.24-.71s-.06.92.39,1.54,1,.93,1.24.71S193.21,180.74,192.76,180.12Z"/><path class="cls-18" d="M191.61,181c.24-.76.2-1.48-.09-1.6s-.72.4-1,1.16-.2,1.48.09,1.6S191.38,181.77,191.61,181Z"/><path class="cls-18" d="M190.37,180.3c.69-.14,1.2-.54,1.15-.89s-.66-.52-1.34-.38-1.21.55-1.15.9S189.68,180.45,190.37,180.3Z"/><path class="cls-3" d="M191,179.39a.49.49,0,1,0,1,0,.49.49,0,1,0-1,0Z"/></g><path class="cls-4" d="M204.21,68.25s-2.73.6-4.13,1.1h0s.54,17.4,17.55,17.4V82C204,82.14,204.21,68.25,204.21,68.25Z"/><path class="cls-3" d="M211.9,313.52s-.13,9.19-5.47,9.52v10.33l3.15-1.93,3.58-7.4Z"/><path class="cls-3" d="M201,313.52s.13,9.19,5.47,9.52v10.33l-3.19-1.12-3.54-10.14Z"/><path class="cls-18" d="M233.54,321.21c-.6.82-1.34,1.25-1.66.94s-.08-1.22.52-2,1.35-1.25,1.66-1S234.14,320.38,233.54,321.21Z"/><path class="cls-18" d="M232,320c.32,1,.27,2-.12,2.13s-.95-.53-1.27-1.55-.26-2,.12-2.13S231.69,319,232,320Z"/><path class="cls-18" d="M230.35,321c.92.19,1.6.72,1.53,1.19s-.87.69-1.79.5-1.61-.72-1.54-1.19S229.43,320.77,230.35,321Z"/><path class="cls-18" d="M230.23,323.09c.6-.82,1.34-1.24,1.65-.94s.08,1.23-.52,2.05-1.34,1.25-1.66.95S229.62,323.92,230.23,323.09Z"/><path class="cls-18" d="M231.76,324.29c-.32-1-.26-2,.12-2.14s1,.53,1.27,1.55.27,2-.12,2.13S232.08,325.3,231.76,324.29Z"/><path class="cls-18" d="M233.42,323.34c-.92-.19-1.61-.72-1.54-1.19s.88-.69,1.79-.5,1.61.72,1.54,1.19S234.33,323.53,233.42,323.34Z"/><path class="cls-4" d="M232.41,322.13a.57.57,0,0,1-.52.61.62.62,0,1,1,.52-.61Z"/><path class="cls-27" d="M229.18,43.35a3.9,3.9,0,1,1-3.9-4.11A4,4,0,0,1,229.18,43.35Z"/><path class="cls-28" d="M205.4,43.35a3.9,3.9,0,1,0,3.9-4.11A4,4,0,0,0,205.4,43.35Z"/><path class="cls-8" d="M231.05,68.25s9.45,1.06,21.9,3.83l-15.78-.55-2.07-1.22Z"/><path class="cls-13" d="M231.05,68.25s2.26.34,4.13.55v.55s-.54,17.4-17.55,17.4V82C231.27,82.14,231.05,68.25,231.05,68.25Z"/><path class="cls-5" d="M125.14,94c.67.54,2.84.81,6.47,1.1s8.34,3.24,5.63,2.47-5.94,1.14-3.78,2.14S140,103,142.34,103c.83,0,4.94.33,6.94,2.54,1.39-2.16,1.73-5.78,3.15-7.9-1.48-1.31-3.64-.92-4.48-1.83-6.28-6.77-9-7.48-17.63-5.71C125.67,91.09,124.48,93.42,125.14,94Z"/><path class="cls-3" d="M195.43,71.4,192.75,73c-1.14.67-24.3,27.93-25.36,27.93s-19.59-8-19.59-8l-5,12.94s25.24,12.86,27.75,12.86c.63,0,1.88-1.08,3.39-2.68,3.82-4.07,21.42-21.32,21.42-21.32C195.28,95.87,195.43,71.4,195.43,71.4Z"/><path class="cls-13" d="M196.9,117.15a20.34,20.34,0,0,0,3.68,3.2c2,1.26,2.1,1.12,2.36.74s-3.46-4.41-3.1-6.41A3,3,0,0,0,196.9,117.15Z"/><path class="cls-13" d="M203.61,113.66a.64.64,0,0,1-.71.54h0a.64.64,0,0,1-.71-.54v-2.52c0-.29.32-.53.71-.53h0c.39,0,.71.24.71.53Z"/><path class="cls-24" d="M201.52,109.23c-4.89,0-11.59,0-12.06,4a4.31,4.31,0,0,0,2.69,4.73v2.94h5v-.51c0-4.44,3.24-4.79,4.23-4.79h.18a1.23,1.23,0,0,0,1.12-1.31v-3.72A1.23,1.23,0,0,0,201.52,109.23Z"/><path class="cls-13" d="M197.89,121.12a1.81,1.81,0,0,1-1.66,1.92h-3.64a1.81,1.81,0,0,1-1.66-1.92h0a1.81,1.81,0,0,1,1.66-1.93h3.64a1.81,1.81,0,0,1,1.66,1.93Z"/><path class="cls-12" d="M200.41,129.88l-.57-5.12a3.66,3.66,0,0,0-3.35-3.89h-4.16a3.65,3.65,0,0,0-3.35,3.85l-1.66,23.64a3.65,3.65,0,0,0,3.35,3.88H199a1.61,1.61,0,0,0,.57-.1c4.27-.58,6.82-4,6.82-9.2C206.37,137.4,203.72,131.64,200.41,129.88Z"/><path class="cls-13" d="M203.2,141.34c.82,6.63-2.82,7.57-6.3,7.57-4.59,0-7.41-1.2-6.31-7.57.82-4.78,2.82-7.57,6.31-7.57S202.69,137.2,203.2,141.34Z"/><path class="cls-11" d="M203,151.19s3.41-3.82,5.34-5.51c1.77-1.54,5.73-3.13,7.8-4.9s4.34-3.63,3.93-4.57-3.33.74-4.35,1.52-2.25-.7-.1-2.24,6.2-3,6.14-4.44-6.4.62-7.56,1.83c0,0,4.19-2.91,4.88-3.2s1.5-1.06,1.21-1.73-2-.76-6.81,2.41c0,0,3.31-2.57,3.86-3.22s.74-1.14.45-1.51-1.9-.25-5.85,3.69c0,0,3-2.56,2.4-3.44s-3.91,2.31-5.94,6.27-2,3.37-2.69,4.33-7.59,5.92-7.59,5.92Z"/><path class="cls-10" d="M202.47,150.05s2.33-5.17,3.79-7.62c1.33-2.24,4.85-5.38,6.43-8s3.32-5.34,2.64-6.13-3.14,2-3.94,3.22-2.47.17-.75-2.22,5.38-5.41,4.89-6.84-6.26,3.1-7.07,4.77c0,0,3.37-4.56,4-5.12s1.21-1.65.72-2.2-2.2,0-6.16,5.07c0,0,2.59-3.88,3-4.75s.41-1.43,0-1.69-2,.49-4.82,6c0,0,2.28-3.74,1.42-4.39s-3.27,3.84-4.16,8.62-1,4.16-1.46,5.4-5.93,8.9-5.93,8.9Z"/><g class="cls-2"><path class="cls-6" d="M208.45,155.29c-.32.21-6.35,4.07-7.24-2.71s-4.31-7.67-5.77-10.22a4.57,4.57,0,0,1-.29-3.77l-.66,2a4.57,4.57,0,0,0,.29,3.77c1.46,2.54,4.87,3.45,5.77,10.23s6.92,2.9,7.24,2.7a9,9,0,0,0,3-3.83l.66-2A9,9,0,0,1,208.45,155.29Z"/><path class="cls-24" d="M198.22,134.83c2.27-1.56,5.4-1.51,6.59,1.09s.3,6.59,5,10.73-1.09,8.42-1.4,8.64-6.35,4.07-7.24-2.71-4.31-7.67-5.77-10.22,0-5.65,2.31-7.21L198,135Z"/><path class="cls-24" d="M204.93,157c-1.58.09-3.57-.58-4.06-4.31a11.87,11.87,0,0,0-3.93-8,10.44,10.44,0,0,1-1.78-2.12,4.94,4.94,0,0,1-.52-3.4,7.17,7.17,0,0,1,2.93-4.36l.26-.17a2.56,2.56,0,0,1,.22-.16,6.14,6.14,0,0,1,3.06-1.09,3.93,3.93,0,0,1,4,2.34,12.67,12.67,0,0,1,.77,2.82,11.93,11.93,0,0,0,4.17,7.78,5,5,0,0,1,2,3.95c-.1,2.76-2.84,4.93-3.39,5.33A8.59,8.59,0,0,1,204.93,157Zm-3.79-22.78a5.46,5.46,0,0,0-2.75,1l-.22.16-.25.17a6.38,6.38,0,0,0-2.61,3.86,4,4,0,0,0,.41,2.79,9.6,9.6,0,0,0,1.66,2,12.78,12.78,0,0,1,4.16,8.42c.34,2.53,1.46,3.76,3.36,3.65a7.91,7.91,0,0,0,3.39-1.23c.29-.21,3-2.26,3.07-4.69a4.23,4.23,0,0,0-1.72-3.3,12.78,12.78,0,0,1-4.42-8.23,11.41,11.41,0,0,0-.71-2.63A3.29,3.29,0,0,0,201.14,134.18Z"/></g><path class="cls-6" d="M198.44,140s0,.08,0,.12c.07.49-.39.13-.58.58l-.09,0a.62.62,0,0,1-.29-.34.65.65,0,0,1,.22-.81l.08,0s.46.22.52.32S198.37,139.85,198.44,140Z"/><path class="cls-6" d="M199.16,137.39h-.06c-.26,0,0-.28-.17-.5a.1.1,0,0,1,0,0,.29.29,0,0,1,.23-.13.32.32,0,0,1,.35.31.06.06,0,0,1,0,.06,1.36,1.36,0,0,1-.26.29S199.26,137.38,199.16,137.39Z"/><path class="cls-6" d="M200.37,140a.09.09,0,0,1-.07,0c-.25-.05,0-.28-.17-.5a.1.1,0,0,1,0-.05.38.38,0,0,1,.23-.13.34.34,0,0,1,.36.32v.06s-.2.26-.26.28A.21.21,0,0,1,200.37,140Z"/><path class="cls-6" d="M196.15,140.55h-.06c-.26,0,0-.29-.17-.5,0,0,0,0,0-.06a.31.31,0,0,1,.24-.12.33.33,0,0,1,.36.31v.06a2.26,2.26,0,0,1-.26.29A.34.34,0,0,1,196.15,140.55Z"/><path class="cls-6" d="M206.26,143.4h-.07c-.25,0,0-.28-.17-.5l0-.06a.4.4,0,0,1,.23-.12.33.33,0,0,1,.36.31v.06s-.2.27-.26.29A.33.33,0,0,1,206.26,143.4Z"/><path class="cls-6" d="M204.38,136.72h-.06c-.26-.05,0-.28-.17-.5l0-.06a.35.35,0,0,1,.23-.12.32.32,0,0,1,.36.31.06.06,0,0,1,0,.06,1.36,1.36,0,0,1-.26.29A.27.27,0,0,1,204.38,136.72Z"/><path class="cls-6" d="M198.69,135.51h-.06c-.26-.05,0-.29-.17-.5a.21.21,0,0,1,0-.06.28.28,0,0,1,.23-.12.33.33,0,0,1,.36.31v.06s-.21.26-.26.29Z"/><path class="cls-6" d="M199.67,141.68h-.07c-.25-.06,0-.29-.17-.5a.21.21,0,0,1,0-.06.28.28,0,0,1,.23-.12.33.33,0,0,1,.36.31v.06a3.06,3.06,0,0,1-.26.29Z"/><path class="cls-6" d="M198.39,137.73a.87.87,0,0,1,.05.22V138a.27.27,0,0,1-.05.29l0,.05c-.16,0-.17.4-.43.32h-.07a.56.56,0,0,1-.6-.37.64.64,0,0,1,0-.07.19.19,0,0,1,0-.07c.3-.26-.17-.6.2-.62l.05-.05.13-.08a.11.11,0,0,1,.07,0l.07,0a.51.51,0,0,1,.59.22l0,.06Z"/><path class="cls-6" d="M205.12,139.91a1,1,0,0,1,0,.22v.08a.28.28,0,0,1,0,.29l-.05,0c-.15,0-.16.41-.42.33h-.07a.55.55,0,0,1-.59-.37.36.36,0,0,1,0-.07s0-.05,0-.08c.3-.25-.17-.59.2-.61l.05-.06.13-.08.07,0,.07,0a.53.53,0,0,1,.59.22l0,.07Z"/><path class="cls-6" d="M201.41,137c.15.06-.07.37,0,.54s-.49.06-.63.13c-.2-.09-.05-.57-.07-.72l0-.06a.37.37,0,0,1,.47-.15l0,0,0,.05,0,.06c0-.07,0,.09.06,0S201.4,137,201.41,137Z"/><path class="cls-6" d="M198.68,142.2c.15.06-.07.37,0,.53s-.48.05-.62.13c-.21-.09-.06-.56-.07-.72a.33.33,0,0,0,0-.06.47.47,0,0,1,.15-.13.34.34,0,0,1,.31,0l.06,0,0,.05,0,0c0-.07,0,.1.07.06A.25.25,0,0,0,198.68,142.2Z"/><path class="cls-6" d="M203.39,137.93l0,.07s0,.05,0,.08v0a.09.09,0,0,1,0,0,.35.35,0,0,1-.11.38l-.06,0c-.1,0-.39.53-.66-.15a.24.24,0,0,0,0-.07s0,0,0-.05l0,0a.46.46,0,0,1,.25-.66.06.06,0,0,1,.05,0c.24-.09.25.23.49.2l0,.06A.21.21,0,0,1,203.39,137.93Z"/><path class="cls-6" d="M199.13,144.24l0,.07s0,.05,0,.08,0,0,0,0v0a.34.34,0,0,1-.11.38l-.06,0c-.1,0-.39.53-.66-.15l0-.07a.08.08,0,0,0,0-.05l0,0c-.11-.32,0-.56.25-.67l.05,0c.24-.09.25.23.49.2l0,.06A.21.21,0,0,1,199.13,144.24Z"/><path class="cls-6" d="M196.88,142a.11.11,0,0,1,0,.07.22.22,0,0,1,0,.08.06.06,0,0,1,0,0s0,0,0,.05a.33.33,0,0,1-.11.38.1.1,0,0,0,0,0c-.1,0-.4.53-.67-.15a.25.25,0,0,1,0-.07l0-.05,0,0c-.11-.32,0-.56.26-.67a.05.05,0,0,1,0,0c.24-.09.25.23.49.2l0,.06A.11.11,0,0,1,196.88,142Z"/><path class="cls-6" d="M202.87,135.93a.75.75,0,0,1,.06.29.22.22,0,0,1,0,.08c-.2.13,0,.35-.21.5l-.08,0c-.16-.08-.44.07-.66,0l-.05,0,0,0s0,0-.05-.05c-.31-.21.12-.44,0-.74,0,0,0,0,0-.06a.22.22,0,0,1,.05-.12.1.1,0,0,1,0-.06s0,0,.05-.06l.06,0c.12-.24.38,0,.6,0l.06,0A.73.73,0,0,1,202.87,135.93Z"/><path class="cls-6" d="M202.39,143.59l-.1,0c-.42.07-.11-.45-.49-.68l0-.11a.73.73,0,0,1,.3-.33.49.49,0,0,1,.7.27l0,.09a3.5,3.5,0,0,1-.28.6S202.54,143.51,202.39,143.59Z"/><path class="cls-6" d="M204.65,144.46a.15.15,0,0,1,0-.07c0-.3.24,0,.43-.19,0,0,0,0,0,0a.38.38,0,0,1,.1.26.35.35,0,0,1-.27.42h-.05a2.23,2.23,0,0,1-.25-.31S204.66,144.57,204.65,144.46Z"/><path class="cls-6" d="M202.42,145.83s0-.05,0-.07c0-.3.25,0,.44-.2l0,.05a.44.44,0,0,1,.11.26c0,.22-.11.41-.27.41h-.06a2.09,2.09,0,0,1-.24-.3A.36.36,0,0,1,202.42,145.83Z"/><path class="cls-6" d="M202,140.94v-.07c0-.3.25,0,.44-.2l0,0a.43.43,0,0,1,.1.27.37.37,0,0,1-.27.42h-.05a2.1,2.1,0,0,1-.25-.31A.52.52,0,0,1,202,140.94Z"/><path class="cls-6" d="M204.36,143.56a.42.42,0,0,1-.19.06h-.06a.19.19,0,0,1-.25-.05l0-.06c0-.17-.36-.2-.28-.49a.28.28,0,0,1,0-.09.68.68,0,0,1,.32-.68s0,0,.07,0l.06,0c.22.35.52-.19.53.24l0,.06a1,1,0,0,0,.07.15.31.31,0,0,0,0,.08s0,.05,0,.08a.74.74,0,0,1-.2.69l-.06,0Z"/><path class="cls-6" d="M205,147.07c-.06.17-.32-.09-.47,0-.2-.1,0-.57-.1-.74s.49,0,.62-.07l.06,0a.78.78,0,0,1,.11.18.67.67,0,0,1,0,.37.33.33,0,0,0,0,.06l0,0a.1.1,0,0,0,0,0c.06,0-.08,0-.05.07S205,147.06,205,147.07Z"/><path class="cls-6" d="M201,135.21c-.05.17-.31-.08-.46,0-.2-.09,0-.57-.1-.73s.49-.06.62-.07l0,0a.43.43,0,0,1,.12.17.59.59,0,0,1,0,.37s0,0,0,.06l0,0-.05,0c.06,0-.08,0,0,.08Z"/><path class="cls-6" d="M200.51,143.85c-.06.17-.32-.09-.46,0-.21-.1,0-.57-.11-.73.08-.24.49-.06.62-.07l.05,0a.47.47,0,0,1,.12.18.6.6,0,0,1,0,.35.16.16,0,0,1,0,.07l0,0,0,0c.06,0-.07,0,0,.07Z"/><path class="cls-6" d="M204.14,149.35a.09.09,0,0,1-.06,0l-.07,0h-.08a.24.24,0,0,1-.32-.14.21.21,0,0,0,0-.06c0-.12-.45-.46.14-.77l.06,0,0,0,0,0c.27-.12.48,0,.58.3,0,0,0,0,0,.06.07.28-.21.28-.18.56a.1.1,0,0,1-.05,0S204.16,149.35,204.14,149.35Z"/><path class="cls-6" d="M205.87,148.78a.58.58,0,0,1-.26.06h-.06c-.11-.24-.31,0-.43-.25l0-.1c.06-.18-.06-.51,0-.76a.08.08,0,0,1,0-.05.33.33,0,0,1,0-.06l0-.06c.19-.36.38.13.64-.05h.06a.18.18,0,0,1,.1.06l.06.05,0,.06a.43.43,0,0,0,0,.07c.2.15,0,.45,0,.7l0,.07A.68.68,0,0,1,205.87,148.78Z"/><path class="cls-6" d="M208.37,147.43l-.09-.05c-.36-.29.18-.43,0-.89l.09-.06a.53.53,0,0,1,.41,0,.63.63,0,0,1,.36.75.36.36,0,0,1,0,.09,2.17,2.17,0,0,1-.55.22S208.52,147.49,208.37,147.43Z"/><path class="cls-6" d="M209.52,149.84l0-.05c.21-.18.18.21.44.2,0,0,0,0,0,.07a.46.46,0,0,1-.08.28.29.29,0,0,1-.44.09l0,0a2,2,0,0,1,0-.42S209.46,149.93,209.52,149.84Z"/><path class="cls-6" d="M207.08,149.1a.1.1,0,0,1,0,0c.21-.19.17.2.43.19a.22.22,0,0,1,0,.08.39.39,0,0,1-.08.27.29.29,0,0,1-.44.09l0,0a2.93,2.93,0,0,1,0-.42S207,149.19,207.08,149.1Z"/><path class="cls-6" d="M205.24,150.05s0,0,0-.05c.21-.18.17.21.43.2,0,0,0,.05,0,.07a.4.4,0,0,1-.08.28.29.29,0,0,1-.44.09l0,0a2.94,2.94,0,0,1,0-.42A.55.55,0,0,1,205.24,150.05Z"/><path class="cls-6" d="M209.83,149l-.17-.11,0-.06a.24.24,0,0,1-.14-.23v-.07c.1-.13-.14-.42.09-.58a.16.16,0,0,1,0-.07.52.52,0,0,1,.64-.25l.06,0,.06,0c-.05.42.49.26.25.59v.08a1.24,1.24,0,0,1,0,.16s0,0,0,.08a.16.16,0,0,0,0,.07.57.57,0,0,1-.55.35h-.06Z"/><path class="cls-6" d="M208.24,152c-.14.08-.19-.31-.34-.37-.09-.23.3-.46.35-.62s.39.34.5.43a.64.64,0,0,0,0,.07.53.53,0,0,1,0,.22.44.44,0,0,1-.21.28l-.06,0h-.1c.06,0-.08,0-.08,0Z"/><path class="cls-6" d="M206.83,146.14c-.14.08-.19-.31-.33-.37-.1-.23.29-.45.34-.62s.39.35.5.44a.15.15,0,0,1,0,.07.52.52,0,0,1-.22.49l-.06,0H207c.07,0-.08,0-.07,0Z"/><path class="cls-6" d="M206.29,153l-.07,0-.06,0,0,0,0,0a.32.32,0,0,1-.16-.35.2.2,0,0,0,0-.07c.08-.08-.06-.7.55-.46l.06,0,.05,0h0a.47.47,0,0,1,.25.67.08.08,0,0,1,0,.05c-.11.26-.32,0-.46.28l-.06,0S206.3,153.06,206.29,153Z"/><path class="cls-6" d="M207.9,154a.73.73,0,0,1-.23-.16s0,0,0-.06c.05-.26-.22-.25-.17-.51l0-.11c.16-.07.26-.41.47-.52l.06,0,0,0h.07c.35-.12.19.39.5.46l0,.05a.39.39,0,0,1,.05.13v.16s0,0,0,.08c.07.26-.27.31-.39.53l-.07,0A.57.57,0,0,1,207.9,154Z"/><path class="cls-6" d="M201.5,146.48a.83.83,0,0,1-.12.27l0,.05c-.23-.05-.21.26-.44.22l-.09,0c-.07-.18-.37-.28-.48-.53v-.06a.14.14,0,0,1,0-.06.22.22,0,0,1,0-.08c-.12-.39.33-.24.37-.59l0,0a.22.22,0,0,1,.11-.05H201c.22-.09.28.31.47.43a.24.24,0,0,1,0,.08A.77.77,0,0,1,201.5,146.48Z"/><path class="cls-6" d="M201.6,152.75l-.09.05c-.41.13-.16-.43-.57-.6,0,0,0-.07,0-.11a.65.65,0,0,1,.26-.37.48.48,0,0,1,.73.16l0,.08a4.18,4.18,0,0,1-.2.64S201.74,152.66,201.6,152.75Z"/><path class="cls-6" d="M203.94,153.28a.09.09,0,0,1,0-.07c0-.3.24,0,.41-.25l.05,0a.46.46,0,0,1,.13.25.37.37,0,0,1-.22.45h-.05s-.26-.2-.28-.27A.49.49,0,0,1,203.94,153.28Z"/><path class="cls-6" d="M201.88,155v-.07c0-.31.25,0,.41-.26l.05,0a.42.42,0,0,1-.09.7h-.05s-.25-.2-.28-.27S201.9,155.08,201.88,155Z"/><path class="cls-6" d="M201.24,148.89a.17.17,0,0,1,0-.07c0-.3.25,0,.41-.26l.06,0a.46.46,0,0,1,.13.25.37.37,0,0,1-.22.45h-.05s-.26-.2-.28-.27A.49.49,0,0,1,201.24,148.89Z"/><path class="cls-6" d="M203.56,152.44a.77.77,0,0,1-.19.08h-.06a.18.18,0,0,1-.25,0s0,0-.05-.05-.37-.14-.32-.45a.19.19,0,0,1,0-.08.69.69,0,0,1,.24-.72l.06,0,.06,0c.25.3.49-.28.55.15,0,0,0,0,.06.05l.08.14a.25.25,0,0,0,0,.07.24.24,0,0,0,0,.08.73.73,0,0,1-.12.71l0,0Z"/><path class="cls-6" d="M204.55,155.82c0,.18-.32,0-.46.06-.21-.06-.1-.56-.18-.71s.48-.13.6-.17l.06,0a.32.32,0,0,1,.13.15.54.54,0,0,1,.05.37.21.21,0,0,1,0,.06l0,0,0,0s-.08.05,0,.08Z"/><path class="cls-6" d="M210.19,152.31c0,.17-.33,0-.46.05-.21-.06-.1-.55-.18-.7s.47-.13.6-.17l.06,0a.47.47,0,0,1,.13.15.51.51,0,0,1,0,.36s0,.05,0,.07l0,0-.05,0c.06-.05-.07.05,0,.08Z"/><path class="cls-6" d="M204,158.21s0,0-.06,0a.11.11,0,0,1-.06,0l0,0h0a.25.25,0,0,1-.34-.09.21.21,0,0,0,0-.06c0-.11-.5-.39.05-.78l.06,0,0,0,0,0c.26-.16.48-.1.61.22a.05.05,0,0,1,0,0c.1.27-.17.32-.11.59l-.05,0S204,158.2,204,158.21Z"/><path class="cls-6" d="M206.5,155.53a.59.59,0,0,1-.24.09h-.07c-.14-.21-.31,0-.45-.18a.36.36,0,0,1-.05-.09c.05-.19-.11-.5,0-.76a149848826727.56,149848826727.56,0,0,1,0-.12s0,0,0-.06c.15-.39.38.07.62-.15h.06a.17.17,0,0,1,.11,0l.06,0,0,.06a.13.13,0,0,1,0,.06c.22.11,0,.44.1.69l0,.07A.7.7,0,0,1,206.5,155.53Z"/><path class="cls-29" d="M231.43,35l1.89-2a42.61,42.61,0,0,0-.25-11c0-.15,0-.26,0-.33-.07-1-3.94-8.57-3.94-8.57l-11.8-.8s-.78,8,4.7,11.33a6.31,6.31,0,0,1-.07-2.79s1.76,4.62,5.06,6.53A17.7,17.7,0,0,1,226.7,25a18.8,18.8,0,0,0,2.39,4.16C231,31.77,230.76,31,231.43,35Z"/><path class="cls-29" d="M206.47,11.77c-1.2,1.52-3.33,3.12-4.21,5.2-2.72,6.43-.63,17.22-.63,17.22,4.94-5.24,5.31-7.3,5.31-7.3a8,8,0,0,1-1.1,3.39c3-2.11,5.57-6.42,5.57-6.42a3.21,3.21,0,0,0,.37,3.35c0-2.33,2.64-3.64,4.44-6.35s1.15-7.11,1.15-7.11l1.4-6.13a2.47,2.47,0,0,0-.39,0C215.81,8.6,210.18,10,206.47,11.77Z"/><path class="cls-8" d="M217.37,7.26s-19.66,0-16.16,25.26c0,0,.18-19.5,16.16-19.22,16-.28,16.17,19.22,16.17,19.22C237,7.21,217.37,7.26,217.37,7.26Z"/><path class="cls-29" d="M205.77,29.14l-1.94-.44-2.56,3.36c.09.57.16,1,.22,1.39.44,1.26,1.12,3.29,1.43,4.57C202.92,38,203.44,32.49,205.77,29.14Z"/><path class="cls-29" d="M231,28.7l-1.94.44C231.43,32.49,232,38,232,38c.26-1.05.76-2.61,1.17-3.83h0s.17-.88.37-2.26Z"/><path class="cls-9" d="M201.21,32.52s.18-19.5,16.16-19.22v-6S197.71,6.26,201.21,32.52Z"/><path class="cls-30" d="M131,93.48c.63-.07,1.77,2.29,3.42,4.3a2.77,2.77,0,0,0,4.26.37C137.11,92.07,131,93.48,131,93.48Z"/><path class="cls-29" d="M138.88,96.05c-.47-.09-.92.34-1,1l-.81,5.48a1.1,1.1,0,0,0,.68,1.3c.47.09.92-.34,1-1l.81-5.48A1.09,1.09,0,0,0,138.88,96.05Z"/><path class="cls-11" d="M142,99.47c-1.88-.56-2.88.38-3.7.8-.65-.71-1.33-2-3.27-2.18-2.39-.24-4.43,2.07-5,5.76-.27,1.84-.37,9.28,6.16,10.57s8.57-5.77,8.84-7.61C145.56,103.12,144.29,100.17,142,99.47Z"/><path class="cls-11" d="M141.59,100.87a1.87,1.87,0,0,0-.34-.08,2.85,2.85,0,0,0-2.25.53l-.46.27-.52.26-.4-.44c-.13-.14-.25-.29-.36-.43a3.22,3.22,0,0,0-2-1.38l-.35,0c-1.85-.19-3.39,1.64-3.81,4.54,0,.08-1,7.65,5.26,8.89s7.49-6.29,7.5-6.36C144.32,103.72,143.39,101.41,141.59,100.87Z"/><path class="cls-31" d="M121.36,102.41c2.24.55,3.94,1.6,3.8,2.34s-2,.89-4.29.33-3.94-1.59-3.81-2.33S119.12,101.86,121.36,102.41Z"/><path class="cls-30" d="M122.55,103.2c1.53.38,2.69,1.09,2.6,1.6s-1.41.61-2.94.23-2.69-1.09-2.6-1.59S121,102.83,122.55,103.2Z"/><path class="cls-31" d="M125.09,98.36c1,3.4,1,6.41.23,6.73s-2.29-2.19-3.24-5.59-1.06-6.41-.22-6.72S124.14,95,125.09,98.36Z"/><path class="cls-30" d="M125.17,100.73c.62,2.2.69,4.15.15,4.36s-1.49-1.42-2.1-3.63-.69-4.15-.15-4.36S124.55,98.52,125.17,100.73Z"/><path class="cls-31" d="M127.06,100.26c-1.53,2-2.38,4-1.9,4.49s2.12-.69,3.65-2.66,2.38-4,1.89-4.48S128.59,98.29,127.06,100.26Z"/><path class="cls-30" d="M126.6,101.68c-1,1.34-1.63,2.71-1.3,3.06s1.45-.47,2.49-1.81,1.63-2.72,1.29-3.06S127.64,100.33,126.6,101.68Z"/><path class="cls-31" d="M125,98.9c-.57,3.17-.41,5.88.36,6.07s1.88-2.22,2.46-5.38.41-5.88-.36-6.06S125.55,95.74,125,98.9Z"/><path class="cls-30" d="M125.09,101.35c-.35,1.94-.25,3.62.23,3.74s1.15-1.37,1.5-3.32.26-3.62-.21-3.74S125.45,99.4,125.09,101.35Z"/><path class="cls-31" d="M122.53,99.82c2.07,2.16,3.32,4.47,2.79,5.15s-2.63-.52-4.71-2.68-3.32-4.46-2.79-5.14S120.46,97.66,122.53,99.82Z"/><path class="cls-30" d="M123.59,101.91c1.28,1.33,2,2.76,1.73,3.18s-1.63-.32-2.91-1.65-2-2.76-1.72-3.18S122.32,100.58,123.59,101.91Z"/><path class="cls-10" d="M129.4,107.65c1.54,5.46,1.17,10.92-.16,11.42s-4.4-3.66-5.93-9.12.4-5.34,1.73-5.84S127.87,102.18,129.4,107.65Z"/><g class="cls-32"><path class="cls-11" d="M123.38,107.66a17.25,17.25,0,0,1,4.81-1.81,14.36,14.36,0,0,1-2.36,1.09A14,14,0,0,1,123.38,107.66Z"/></g><g class="cls-32"><path class="cls-11" d="M124.06,109.17a13.16,13.16,0,0,1,2.12-1,11.46,11.46,0,0,1,2.22-.63,12.77,12.77,0,0,1-2.12,1A12,12,0,0,1,124.06,109.17Z"/></g><g class="cls-32"><path class="cls-11" d="M124.73,110.69a9.77,9.77,0,0,1,1.9-.92,9.27,9.27,0,0,1,2-.55,10.38,10.38,0,0,1-1.9.92A10.57,10.57,0,0,1,124.73,110.69Z"/></g><g class="cls-32"><path class="cls-11" d="M125.37,112.21a9.31,9.31,0,0,1,1.7-.85,8,8,0,0,1,1.81-.47,8.44,8.44,0,0,1-1.7.85A8,8,0,0,1,125.37,112.21Z"/></g><g class="cls-32"><path class="cls-11" d="M126,113.74a7.43,7.43,0,0,1,1.54-.78,6.39,6.39,0,0,1,1.63-.41,6.7,6.7,0,0,1-1.53.78A6.57,6.57,0,0,1,126,113.74Z"/></g><g class="cls-32"><path class="cls-11" d="M126.6,115.28a5.3,5.3,0,0,1,1.37-.72,4.93,4.93,0,0,1,1.47-.35,5.57,5.57,0,0,1-1.36.72A5.33,5.33,0,0,1,126.6,115.28Z"/></g><g class="cls-32"><path class="cls-11" d="M127.19,116.82a4.79,4.79,0,0,1,1.23-.67,4.28,4.28,0,0,1,1.33-.29,4.48,4.48,0,0,1-1.23.67A4.22,4.22,0,0,1,127.19,116.82Z"/></g><path class="cls-5" d="M134.91,128.32c-6.91,0-12.54-8.13-12.54-18.12,0-9.71,5.28-16.76,12.54-16.76s12.54,7,12.54,16.76C147.45,120.19,141.83,128.32,134.91,128.32Zm0-32.18c-6.18,0-10.67,5.91-10.67,14.06,0,8.5,4.79,15.42,10.67,15.42s10.67-6.92,10.67-15.42C145.58,102.05,141.1,96.14,134.91,96.14Z"/><g class="cls-32"><path class="cls-33" d="M134.91,128.32c-6.91,0-12.54-8.13-12.54-18.12,0-9.71,5.28-16.76,12.54-16.76s12.54,7,12.54,16.76C147.45,120.19,141.83,128.32,134.91,128.32Zm0-32.18c-6.18,0-10.67,5.91-10.67,14.06,0,8.5,4.79,15.42,10.67,15.42s10.67-6.92,10.67-15.42C145.58,102.05,141.1,96.14,134.91,96.14Z"/></g><polygon class="cls-24" points="155.45 157.75 114.38 157.75 118.78 110.2 151.04 110.2 155.45 157.75"/><path class="cls-31" d="M145.77,93.23c1.76,2.85,2.62,5.63,1.92,6.21s-2.69-1.26-4.45-4.11-2.61-5.64-1.91-6.22S144,90.38,145.77,93.23Z"/><path class="cls-30" d="M146.32,95.23c1.2,2,1.79,3.85,1.31,4.25s-1.84-.86-3-2.81-1.78-3.85-1.31-4.24S145.12,93.29,146.32,95.23Z"/><path class="cls-31" d="M152.54,93.15c-1.69,4.3-3.92,7.34-5,6.78s-.54-4.49,1.15-8.8,3.91-7.32,5-6.77S154.22,88.85,152.54,93.15Z"/><path class="cls-30" d="M150.79,95.53c-1.1,2.79-2.54,4.76-3.22,4.4s-.35-2.91.75-5.7,2.53-4.76,3.22-4.4S151.88,92.75,150.79,95.53Z"/><path class="cls-31" d="M153,97c-3,.34-5.37,1.42-5.29,2.41s2.58,1.53,5.6,1.18,5.38-1.41,5.29-2.4S156,96.7,153,97Z"/><path class="cls-30" d="M151.44,97.94c-2.05.23-3.67,1-3.61,1.64s1.76,1,3.82.81,3.67-1,3.62-1.65S153.5,97.7,151.44,97.94Z"/><path class="cls-31" d="M152,93.55c-3,2.47-4.93,5.29-4.32,6.28s3.53-.22,6.53-2.71,4.93-5.29,4.33-6.28S155,91.06,152,93.55Z"/><path class="cls-30" d="M150.24,96.06c-1.85,1.53-3.05,3.26-2.67,3.87s2.18-.14,4-1.67,3-3.26,2.67-3.87S152.08,94.53,150.24,96.06Z"/><path class="cls-31" d="M148.92,91.92c.35,4.25-.21,7.79-1.25,7.91s-2.18-3.24-2.54-7.49.21-7.79,1.25-7.9S148.56,87.67,148.92,91.92Z"/><path class="cls-30" d="M148.33,95.06c.23,2.62-.12,4.8-.76,4.87s-1.34-2-1.56-4.61.13-4.81.77-4.88S148.12,92.44,148.33,95.06Z"/><path class="cls-10" d="M149.58,106.66c-2.71,6.92-7.27,11.85-9,11s-1.47-8.11,1.25-15,4.51-4.78,6.19-3.89S152.3,99.74,149.58,106.66Z"/><g class="cls-32"><path class="cls-11" d="M143.69,100.44a20.31,20.31,0,0,1,3.14,1.37,21.27,21.27,0,0,1,2.95,1.84,19.79,19.79,0,0,1-3.13-1.37A22,22,0,0,1,143.69,100.44Z"/></g><g class="cls-32"><path class="cls-11" d="M143.21,102.62a17.59,17.59,0,0,1,2.83,1.21,16.79,16.79,0,0,1,2.64,1.68,16,16,0,0,1-2.83-1.21A17.26,17.26,0,0,1,143.21,102.62Z"/></g><g class="cls-32"><path class="cls-11" d="M142.69,104.79a13.56,13.56,0,0,1,2.56,1.06,14.53,14.53,0,0,1,2.37,1.54,13.07,13.07,0,0,1-2.56-1.07A14.71,14.71,0,0,1,142.69,104.79Z"/></g><g class="cls-32"><path class="cls-11" d="M142.14,106.94a10.74,10.74,0,0,1,2.31.93,11.56,11.56,0,0,1,2.13,1.41,10.57,10.57,0,0,1-2.31-.94A11.5,11.5,0,0,1,142.14,106.94Z"/></g><g class="cls-32"><path class="cls-11" d="M141.57,109.07a10.22,10.22,0,0,1,4,2.11,8.34,8.34,0,0,1-2.09-.82A9.37,9.37,0,0,1,141.57,109.07Z"/></g><g class="cls-32"><path class="cls-11" d="M141,111.2a7.29,7.29,0,0,1,1.89.71,8,8,0,0,1,1.71,1.18,6.75,6.75,0,0,1-1.89-.71A7.69,7.69,0,0,1,141,111.2Z"/></g><g class="cls-32"><path class="cls-11" d="M140.36,113.32a5.73,5.73,0,0,1,1.71.61A6.6,6.6,0,0,1,143.6,115a5.65,5.65,0,0,1-1.71-.62A6.55,6.55,0,0,1,140.36,113.32Z"/></g><polygon class="cls-6" points="134.91 157.75 155.45 157.75 151.04 110.26 134.91 110.26 134.91 157.75"/><path class="cls-5" d="M189.83,142.38c2.3,3.36,4.53,6.31,5.57,6.38,2.06.15,5.65,2.37,7.46,3.35s-1.24,1.83-3.55,1,.92,2.57,4,3.53,4.88.12,5.41.63-.31,1.7-4.32,4.35c-3.72,2.45-9.32-1.39-14.16-7.72a68.71,68.71,0,0,0-5.31-5.77Z"/><path class="cls-3" d="M179.55,134.07c.25-.15,6.2-.38,6.43-.56a165.24,165.24,0,0,0,13.33,15.16l-8.07,10.62a119.06,119.06,0,0,1-15.08-17.54C179,138.93,176.06,135.94,179.55,134.07Z"/><path class="cls-4" d="M149.44,307.71s-3.09,8.46-8.14,6.45l-3.34,9.6,3.55-.43,5.71-5.32Z"/><path class="cls-4" d="M139.29,303s-2.84,8.58,2,11.19l-3.34,9.6-2.59-2.43,0-10.94Z"/><path class="cls-34" d="M.53,200C-2,182.87,4.19,167.7,26.9,166.51c18.28-1,33,4,35.52,21.17S53.17,220.57,36.08,224,3.08,217.17.53,200Z"/><polygon class="cls-34" points="54.88 175.49 85.78 171.58 60.75 191.62 54.88 175.49"/><path class="cls-4" d="M10.77,196.87a2.26,2.26,0,0,1-1,.46,4.89,4.89,0,0,1-1.21.15,3.58,3.58,0,0,1-1.42-.25A2.88,2.88,0,0,1,6,196.38a4.23,4.23,0,0,1-.83-1.55,7.75,7.75,0,0,1-.33-2.32,7.2,7.2,0,0,1,.32-2.39A4.46,4.46,0,0,1,6,188.56a3.23,3.23,0,0,1,1.2-.85,3.73,3.73,0,0,1,1.33-.28,6,6,0,0,1,1.21.1,3.72,3.72,0,0,1,.81.25l-.3,1.61a2.26,2.26,0,0,0-.65-.22,5,5,0,0,0-.91,0,1.85,1.85,0,0,0-1.58.83,4.28,4.28,0,0,0-.58,2.54,6.26,6.26,0,0,0,.16,1.36,3.36,3.36,0,0,0,.44,1.05,2.12,2.12,0,0,0,.73.67,2.09,2.09,0,0,0,1,.23,2.83,2.83,0,0,0,.9-.14,2.27,2.27,0,0,0,.64-.33Z"/><path class="cls-4" d="M17.05,197.18l-5.26.07-.1-9.66,1.63,0,.08,8L17,195.5Z"/><path class="cls-4" d="M17.8,187.51l4.94-.07,0,1.69-3.31,0,0,2.25,3,0,0,1.69-3,0,0,2.37,3.37-.05v1.69l-5,.06Z"/><path class="cls-4" d="M28.19,194.9l-2.56,0L25,197.08l-1.63,0,2.9-9.77,1.21,0,3.09,9.7-1.72,0ZM26,193.41l1.79,0-.64-2.14-.27-1.52h-.06l-.23,1.54Z"/><path class="cls-4" d="M33.32,191.93l-.67-1.51h-.06l.21,1.52.05,5-1.55,0-.1-9.74h1.19l3.21,5.11.64,1.47h.06l-.21-1.47L36,187.27l1.55,0,.1,9.73-1.19,0Z"/><path class="cls-4" d="M39.18,187.23l1.63,0,.1,9.66-1.63,0Z"/><path class="cls-4" d="M44.52,191.79l-.67-1.51h-.06l.21,1.51,0,5-1.55,0-.09-9.73,1.19,0,3.2,5.11.64,1.47h.06l-.2-1.47,0-5.08,1.54,0,.1,9.73H47.7Z"/><path class="cls-4" d="M53.2,191.67l3.11,0,0,4.31a3,3,0,0,1-1.19.72,4.76,4.76,0,0,1-1.37.24,3.78,3.78,0,0,1-1.48-.27,3.14,3.14,0,0,1-1.2-.89,4.77,4.77,0,0,1-.8-1.56,7.83,7.83,0,0,1-.3-2.26,7,7,0,0,1,.31-2.33A4.38,4.38,0,0,1,51.2,188a3.37,3.37,0,0,1,1.23-.89,3.84,3.84,0,0,1,1.4-.28,6,6,0,0,1,1.26.1,5,5,0,0,1,.86.26l-.31,1.59a3.28,3.28,0,0,0-.67-.21,4.31,4.31,0,0,0-.94-.06,2.39,2.39,0,0,0-.94.19,1.83,1.83,0,0,0-.74.6,3,3,0,0,0-.47,1,6.92,6.92,0,0,0,0,3,3,3,0,0,0,.47,1,1.94,1.94,0,0,0,.7.59,1.82,1.82,0,0,0,.86.18,1.8,1.8,0,0,0,.6-.1,1.26,1.26,0,0,0,.5-.27L55,193l-1.8-.2Z"/><polygon class="cls-34" points="68.47 310.07 90.34 309.34 72.41 320.93 63.87 312.02 68.47 310.07"/><path class="cls-34" d="M77.79,335.47c4.86-10.06,2.34-22.17-9.82-29S40.74,302,32.15,310c-9,8.34-2.38,19.08,12.94,27.78C59.22,345.74,73.16,345.05,77.79,335.47Z"/><path class="cls-4" d="M70.23,329.59l-.94,1,0,0,1-.67,2.87-1.32.4.22-.1,2.89-.24,1.1,0,0,.62-1.2,2.12-2.9,1.19.67L73.21,335l-1.14-.63.17-3.5.16-.8,0,0-.76.5-3.46,1.62L67,331.57,71.1,326l1.25.69Z"/><path class="cls-4" d="M68.17,328.29A4.35,4.35,0,0,1,65.9,330a3.22,3.22,0,0,1-2.55-.37,3.15,3.15,0,0,1-1-.87,2.05,2.05,0,0,1-.41-1.06,2.52,2.52,0,0,1,.17-1.19,4.93,4.93,0,0,1,.7-1.28A4.39,4.39,0,0,1,65,323.52a3.25,3.25,0,0,1,2.55.37,3.21,3.21,0,0,1,1,.87,2.18,2.18,0,0,1,.41,1.06,2.86,2.86,0,0,1-.17,1.2A5.44,5.44,0,0,1,68.17,328.29Zm-1.31-.73a4.54,4.54,0,0,0,.49-.82,2.07,2.07,0,0,0,.19-.75,1.08,1.08,0,0,0-.14-.64,1.24,1.24,0,0,0-.52-.49,1.56,1.56,0,0,0-1.36-.12A3.34,3.34,0,0,0,64.08,326a4.58,4.58,0,0,0-.48.8,2.21,2.21,0,0,0-.2.75,1.2,1.2,0,0,0,.12.65,1.39,1.39,0,0,0,.54.5,1.54,1.54,0,0,0,1.37.11A3.33,3.33,0,0,0,66.86,327.56Z"/><path class="cls-4" d="M59.88,327.5c-.28-.1-.59-.23-.91-.37s-.64-.31-.94-.48a7,7,0,0,1-.9-.6,2.49,2.49,0,0,1-.67-.75,1.77,1.77,0,0,1-.21-.91,2.12,2.12,0,0,1,.45-1.08,2.42,2.42,0,0,1,1.85-1.05,2.79,2.79,0,0,1,1,.11,4.28,4.28,0,0,1,1,.4l.15.08.2.13.21.13.14.1,1.4-1.92,1.25.7Zm-1.27-1.84.36.18.28.12,1.32-1.81-.09-.07-.15-.1a.51.51,0,0,0-.16-.09l-.11-.07a3.32,3.32,0,0,0-.51-.23,1.78,1.78,0,0,0-.55-.1,1.25,1.25,0,0,0-.52.13,1.4,1.4,0,0,0-.48.44.94.94,0,0,0-.21.49.83.83,0,0,0,.09.44,1.29,1.29,0,0,0,.3.37A3.3,3.3,0,0,0,58.61,325.66Z"/><path class="cls-4" d="M54.68,324.59c-.29-.1-.59-.23-.92-.37s-.63-.31-.94-.48a8.8,8.8,0,0,1-.9-.6,2.59,2.59,0,0,1-.66-.75,1.77,1.77,0,0,1-.21-.91,2.12,2.12,0,0,1,.45-1.08,2.42,2.42,0,0,1,1.85-1,2.81,2.81,0,0,1,1,.11,4.67,4.67,0,0,1,1,.4l.14.08.21.13.21.13.13.1,1.41-1.92,1.24.7Zm-1.27-1.84.35.18.29.12,1.32-1.81-.1-.07a.71.71,0,0,0-.14-.1L55,321l-.11-.06a3.43,3.43,0,0,0-.52-.23,1.71,1.71,0,0,0-.54-.1,1.21,1.21,0,0,0-.52.13,1.4,1.4,0,0,0-.48.44.94.94,0,0,0-.21.49.83.83,0,0,0,.09.44,1,1,0,0,0,.3.37A2.74,2.74,0,0,0,53.41,322.75Z"/><path class="cls-4" d="M49.31,321.66,48.06,321l4.08-5.57,1.24.7Z"/><path class="cls-4" d="M47.21,316.73l-.14,1.16,0,0,.49-1,2.13-2.9,1.18.66-4.11,5.6-.9-.51-.24-4.31.14-1.12-.05,0-.48.94-2.14,2.92L42,317.55l4.1-5.6.91.51Z"/><path class="cls-4" d="M40.57,313l-2.37-1.33L40,309.21a3.36,3.36,0,0,1,1.21.11,5.12,5.12,0,0,1,1.15.46,3.88,3.88,0,0,1,1,.8,2.24,2.24,0,0,1,.52,1,2.61,2.61,0,0,1-.06,1.23,5.09,5.09,0,0,1-2,2.62,3.49,3.49,0,0,1-1.34.52,3.59,3.59,0,0,1-1.31,0A4,4,0,0,1,38,315.5a6,6,0,0,1-.91-.6c-.24-.21-.42-.38-.55-.52l.93-.78a2.34,2.34,0,0,0,.42.41,4,4,0,0,0,.68.45,3.26,3.26,0,0,0,.8.3,2,2,0,0,0,.81,0,2.46,2.46,0,0,0,.82-.39,4.13,4.13,0,0,0,.78-.82,3.17,3.17,0,0,0,.5-.93,1.76,1.76,0,0,0,.09-.8,1.37,1.37,0,0,0-.28-.64,1.92,1.92,0,0,0-.57-.48,4.4,4.4,0,0,0-.5-.21,1.49,1.49,0,0,0-.5-.05l-.77,1.05,1.28.89Z"/><path class="cls-35" d="M98.91,203.9l4.45-.62,2.29,35.35c.12,1.8-.79,3.39-2,3.56h0c-1.23.18-2.32-1.14-2.43-2.94Z"/><polygon class="cls-36" points="97.4 200.91 104.46 199.93 104.67 203.1 97.6 204.09 97.4 200.91"/><path class="cls-36" d="M100.76,197.86c3.84-.54,6.66-5.54,6.29-11.17l-13.9,1.94C93.51,194.26,96.92,198.39,100.76,197.86Z"/><polygon class="cls-37" points="98.56 197.55 102.89 196.94 103.09 200.12 98.76 200.72 98.56 197.55"/><polygon class="cls-38" points="104.02 179.09 106.24 178.78 106.23 186.81 105.06 186.97 104.02 179.09"/><polygon class="cls-38" points="101.8 179.4 104.02 179.09 104.01 187.12 102.84 187.28 101.8 179.4"/><polygon class="cls-38" points="99.59 179.71 101.8 179.4 101.8 187.43 100.62 187.59 99.59 179.71"/><polygon class="cls-38" points="97.37 180.01 99.59 179.71 99.58 187.73 98.41 187.9 97.37 180.01"/><polygon class="cls-38" points="95.15 180.32 97.37 180.01 97.36 188.04 96.19 188.21 95.15 180.32"/><polygon class="cls-38" points="92.94 180.63 95.15 180.32 95.15 188.35 93.97 188.52 92.94 180.63"/><path class="cls-39" d="M113.87,226.47c.74-4,.8-10.48,1.15-13s2-3.33,3.87-8.57-1.82-9.63-1.82-9.63L114.64,194l-2.43-1.23s-4.74.14-5.48,5.94.24,7.92-.56,10.24-3.48,7.5-4.57,11.3-4.21,18.2-4.73,20.12-.94,3.7,5.41,6.18c6,3.78,6.46,2,6.86,0S113.12,230.45,113.87,226.47Z"/><path class="cls-39" d="M113.87,226.47c.74-4,.8-10.48,1.15-13s2-3.33,3.87-8.57-1.82-9.63-1.82-9.63L114.64,194l-2.43-1.23s-4.74.14-5.48,5.94.24,7.92-.56,10.24-3.48,7.5-4.57,11.3-4.21,18.2-4.73,20.12-.94,3.7,5.41,6.18c6,3.78,6.46,2,6.86,0S113.12,230.45,113.87,226.47Z"/><path class="cls-36" d="M98.91,231.51l12.35,6.24c1.06-4.39,2.2-9.15,2.6-11.23l-12.27-6.21C101,222.31,99.92,227.09,98.91,231.51Z"/><polygon class="cls-36" points="117.74 192.6 112.83 190.12 112.21 192.78 117.12 195.26 117.74 192.6"/><polygon class="cls-37" points="116.83 190.1 114.61 188.98 114.18 190.8 116.4 191.92 116.83 190.1"/><polygon class="cls-36" points="117.32 186.99 115.53 186.09 114 189 117.29 190.66 117.32 186.99"/><path class="cls-39" d="M74.51,196.5A1.65,1.65,0,0,0,72,197.87c-.4,2.44,2,2.62,2.47,4.1s-.23,2.1.12,4.14,1.18.34,1.64,3.31-2.32,10.66-1.9,13.65,4.9,21.32,5.78,22.82,2,1.88,6.74-.7c0,0,5-2.23,6.52-3.56s1.32-3.44.73-5.09-4.51-20.8-5.69-22.63-8.3-20-10.78-19.11S74.51,196.5,74.51,196.5Z"/><polygon class="cls-40" points="79.97 193.98 70.89 198.56 70.03 194.92 79.11 190.34 79.97 193.98"/><polygon class="cls-41" points="76.98 191.41 72.16 193.84 71.31 190.2 76.13 187.77 76.98 191.41"/><path class="cls-40" d="M77.34,182.49a1.82,1.82,0,0,1,.61,2.6c-1,1.84-2.71,4.52-5.11,5.74a8,8,0,0,1-6.44.09,1.83,1.83,0,0,1-.61-2.6c1-1.84,2.71-4.52,5.12-5.73A8,8,0,0,1,77.34,182.49Z"/><polygon class="cls-40" points="66.71 190.76 65.06 191.6 64.48 189.15 66.14 188.31 66.71 190.76"/><path class="cls-40" d="M66.64,199.81c.6.28,4-3.55,3.45-9.21,0,0-1.75-.68-1.74,0C68.52,197.93,65.47,199.28,66.64,199.81Z"/><path class="cls-40" d="M78.3,240l14.8-7.47c-.84-3.67-2-9-3-13.07l-15,7.54C75.93,230.6,77.21,235.87,78.3,240Z"/><polygon class="cls-36" points="90.09 225.11 86.23 194.16 90.83 192.93 94.69 223.88 90.09 225.11"/><polygon class="cls-38" points="81.62 199.2 81.19 195.82 86.37 195.25 86.59 197.04 81.62 199.2"/><polygon class="cls-38" points="82.04 202.57 81.62 199.2 86.79 198.63 87.01 200.41 82.04 202.57"/><polygon class="cls-38" points="82.46 205.94 82.04 202.57 87.21 202 87.43 203.78 82.46 205.94"/><polygon class="cls-38" points="82.88 209.31 82.46 205.94 87.63 205.37 87.85 207.16 82.88 209.31"/><polygon class="cls-38" points="83.3 212.69 82.88 209.31 88.05 208.75 88.27 210.53 83.3 212.69"/><polygon class="cls-38" points="83.72 216.06 83.3 212.69 88.47 212.12 88.69 213.9 83.72 216.06"/><polygon class="cls-38" points="84.14 219.43 83.72 216.06 88.89 215.49 89.11 217.28 84.14 219.43"/><polygon class="cls-38" points="84.56 222.8 84.14 219.43 89.31 218.86 89.54 220.65 84.56 222.8"/><polygon class="cls-38" points="84.98 226.18 84.56 222.8 89.73 222.23 89.96 224.02 84.98 226.18"/><path class="cls-36" d="M98.68,221.33a1.44,1.44,0,0,0,.78-1.6l-2.3-20.54,0-.26c-.24-1.94-1.5-3.22-2.82-2.87h0l-3,.8.47,3.77,1.62-.43c.75-.2,1.47.52,1.6,1.62l2.56,18.41c.11.75.6,1.24,1.11,1.1Z"/><path class="cls-40" d="M110.15,298.27H81.61c-1.33,0-2.45-1.48-2.59-3.42L74.6,231.79h42.56l-4.42,63.06C112.6,296.79,111.49,298.27,110.15,298.27Z"/><path class="cls-41" d="M74.89,236a3.41,3.41,0,0,0,.84.12H116a3.34,3.34,0,0,0,.84-.12l.29-4.17H74.6Z"/><rect class="cls-40" x="71.18" y="219.39" width="49.4" height="13.35" rx="6.67" ry="6.67"/><path class="cls-42" d="M120.58,226.07c0,20-11.06,36.23-24.7,36.23s-24.7-16.22-24.7-36.23"/><path class="cls-35" d="M107.88,255a1.42,1.42,0,0,0-1.91-.1,16,16,0,0,1-20.12.05,1.47,1.47,0,0,0-.88-.32,1.52,1.52,0,0,0-1,.43,3.28,3.28,0,0,0-.93,2.43v2.14a3.19,3.19,0,0,0,1.1,2.58,19.65,19.65,0,0,0,23.59-.05,3.17,3.17,0,0,0,1.11-2.58v-2.14A3.31,3.31,0,0,0,107.88,255Z"/><rect class="cls-43" x="120.31" y="259.75" width="20.5" height="13.23"/><rect class="cls-36" x="120.31" y="272.98" width="20.5" height="5.05"/><ellipse class="cls-44" cx="123.85" cy="265.31" rx="1.9" ry="2.79"/><ellipse class="cls-44" cx="136.67" cy="266.36" rx="1.9" ry="2.79"/><ellipse class="cls-44" cx="129.07" cy="269.84" rx="1.25" ry="1.84"/><path class="cls-44" d="M128.65,260.82c0,1.54.85,2.79,1.91,2.79s1.9-1.25,1.9-2.79a3.69,3.69,0,0,0-.15-1.07H128.8A3.69,3.69,0,0,0,128.65,260.82Z"/><rect class="cls-40" x="117.16" y="278.03" width="20.5" height="13.23"/><rect class="cls-36" x="117.16" y="291.26" width="20.5" height="5.05"/><ellipse class="cls-41" cx="120.71" cy="283.6" rx="1.9" ry="2.79"/><ellipse class="cls-41" cx="133.52" cy="284.64" rx="1.9" ry="2.79"/><ellipse class="cls-41" cx="125.92" cy="288.12" rx="1.25" ry="1.84"/><path class="cls-41" d="M125.51,279.1c0,1.55.85,2.8,1.9,2.8s1.9-1.25,1.9-2.8a4.07,4.07,0,0,0-.14-1.07h-3.52A4.07,4.07,0,0,0,125.51,279.1Z"/><ellipse class="cls-45" cx="128.78" cy="256.42" rx="5.23" ry="7.68"/><ellipse class="cls-45" cx="137.25" cy="258.56" rx="5.23" ry="7.68"/><ellipse class="cls-46" cx="123.54" cy="260.26" rx="4.25" ry="6.24"/><ellipse class="cls-46" cx="134.5" cy="258.56" rx="4.25" ry="6.24"/><ellipse class="cls-46" cx="119.29" cy="248.74" rx="2.44" ry="3.58"/><ellipse class="cls-46" cx="134.5" cy="245.16" rx="2.44" ry="3.58"/><path class="cls-36" d="M61.42,244.21s1.85-2.11,2.8.11-1.38,3.58-1.49,5.27.71,2,.84,4.16-1.09.93-.85,4.09,4.76,9.38,5,12.54.1,23.52-.43,25.44-1.53,2.85-6.82,2.66c0,0-5.46.29-7.27-.26s-2.1-2.74-1.9-4.67-.36-22.8.38-25.2S55.3,244.48,58,244.09,61.42,244.21,61.42,244.21Z"/><rect class="cls-47" x="55.43" y="240.42" width="10.04" height="4.02" transform="translate(120.9 484.87) rotate(180)"/><rect class="cls-48" x="57.79" y="236.4" width="5.33" height="4.02" transform="translate(120.9 476.82) rotate(180)"/><path class="cls-47" d="M55.37,231.78a2.06,2.06,0,0,0,0,2.88c1.38,1.33,3.72,3.12,6.38,3.12s5-1.79,6.39-3.12a2.08,2.08,0,0,0,0-2.88c-1.39-1.33-3.73-3.11-6.39-3.11S56.75,230.45,55.37,231.78Z"/><rect class="cls-47" x="67.79" y="231.95" width="1.83" height="2.71" transform="translate(137.41 466.61) rotate(180)"/><path class="cls-47" d="M70,243.57c-.53.57-4.79-1.51-5.55-7.39,0,0,1.58-1.54,1.71-.9C67.66,242.64,71,242.46,70,243.57Z"/><path class="cls-47" d="M67.74,289.05H51.38c0-4-.1-9.93,0-14.44H67.87C67.91,278.63,67.86,284.48,67.74,289.05Z"/><path class="cls-34" d="M102.65,87.13c-3.5,10.87-12.36,21-23.93,21s-19.87-10.06-23.18-21C51.79,74.72,64,69,78.72,67.84,91.86,66.81,106.85,74.11,102.65,87.13Z"/><polygon class="cls-34" points="95.38 98.04 105.68 97.44 99.67 87.13 95.38 98.04"/><path class="cls-4" d="M59,83.32a6.74,6.74,0,0,1,.74-.12,7.32,7.32,0,0,1,.81,0,4,4,0,0,1,.84.08,1.88,1.88,0,0,1,.77.32,1.72,1.72,0,0,1,.55.66,2.5,2.5,0,0,1,.21,1.11,2.69,2.69,0,0,1-.18,1,2.1,2.1,0,0,1-.49.69,2,2,0,0,1-.7.4,2.74,2.74,0,0,1-.81.12h-.51l-.13,0v2.25H59Zm1.64.94h-.31l-.23,0v2.12l.1,0h.38a2.1,2.1,0,0,0,.43,0,1,1,0,0,0,.38-.17,1,1,0,0,0,.27-.35,1.42,1.42,0,0,0,.1-.59,1.23,1.23,0,0,0-.09-.51.94.94,0,0,0-.26-.32.86.86,0,0,0-.36-.17A1.84,1.84,0,0,0,60.62,84.26Z"/><path class="cls-4" d="M66.65,83.25h1v4.23a3.54,3.54,0,0,1-.15,1.09,2,2,0,0,1-.4.75,1.47,1.47,0,0,1-.63.44,2.16,2.16,0,0,1-.81.14c-1.43,0-2.15-.75-2.15-2.27V83.25h1.11v4.13a3,3,0,0,0,.06.65,1,1,0,0,0,.19.43.62.62,0,0,0,.32.23,1.25,1.25,0,0,0,.45.07.83.83,0,0,0,.73-.32,1.91,1.91,0,0,0,.23-1.06Z"/><path class="cls-4" d="M68.64,83.32l.4-.07.43,0,.41,0h.37a4,4,0,0,1,.78.08,2,2,0,0,1,.69.29,1.5,1.5,0,0,1,.48.57,2,2,0,0,1,.18.9,2.47,2.47,0,0,1-.32,1.31,1.73,1.73,0,0,1-.86.7l.39.29,1.29,2.49H71.61l-1.28-2.56-.58-.12v2.68H68.64Zm1.69,1H70a1.2,1.2,0,0,0-.25,0v1.9h.46A1.1,1.1,0,0,0,71,86a1,1,0,0,0,.27-.81.9.9,0,0,0-.23-.65A.86.86,0,0,0,70.33,84.3Z"/><path class="cls-4" d="M77.05,89.52a1.45,1.45,0,0,1-.66.31,3.75,3.75,0,0,1-.82.09,2.56,2.56,0,0,1-1-.18,2.06,2.06,0,0,1-.8-.59,2.9,2.9,0,0,1-.55-1.05,5.21,5.21,0,0,1-.21-1.58,5,5,0,0,1,.23-1.61,3,3,0,0,1,.6-1,2.22,2.22,0,0,1,.81-.57,2.66,2.66,0,0,1,.91-.17,3.86,3.86,0,0,1,.82.08,2.77,2.77,0,0,1,.55.17l-.22,1.09a1.34,1.34,0,0,0-.44-.15,3.53,3.53,0,0,0-.62,0,1.29,1.29,0,0,0-1.07.55,2.92,2.92,0,0,0-.41,1.72,3.82,3.82,0,0,0,.1.92,2.08,2.08,0,0,0,.29.71,1.43,1.43,0,0,0,.49.46,1.39,1.39,0,0,0,.68.16,2.17,2.17,0,0,0,.62-.08,1.74,1.74,0,0,0,.43-.22Z"/><path class="cls-4" d="M80.9,87.05H78.84v2.74H77.73V83.25h1.11v2.66H80.9V83.25H82v6.54H80.9Z"/><path class="cls-4" d="M85.76,88.34H84l-.43,1.45H82.5l2-6.59h.81l2,6.59H86.21Zm-1.45-1h1.21l-.42-1.46-.17-1h0l-.17,1Z"/><path class="cls-4" d="M90.29,88a.64.64,0,0,0-.19-.49,1.78,1.78,0,0,0-.48-.34L89,86.89a3.12,3.12,0,0,1-.62-.4,2,2,0,0,1-.47-.59,1.89,1.89,0,0,1-.19-.91,2.12,2.12,0,0,1,.14-.83,1.49,1.49,0,0,1,.39-.58,1.64,1.64,0,0,1,.6-.35,2.65,2.65,0,0,1,.77-.11,4,4,0,0,1,.93.1,2.17,2.17,0,0,1,.72.28l-.35,1.08a1.76,1.76,0,0,0-.53-.24,2.7,2.7,0,0,0-.77-.11.87.87,0,0,0-.59.18.6.6,0,0,0-.21.48.64.64,0,0,0,.19.46,2.29,2.29,0,0,0,.48.35l.62.33a3.12,3.12,0,0,1,.62.4,2.14,2.14,0,0,1,.48.59,1.94,1.94,0,0,1,.18.88,2.3,2.3,0,0,1-.15.9,1.6,1.6,0,0,1-.41.63,1.64,1.64,0,0,1-.66.37,2.75,2.75,0,0,1-.84.12,3.75,3.75,0,0,1-1.06-.13,3,3,0,0,1-.68-.26l.35-1.09.23.12.32.12a2.34,2.34,0,0,0,.38.09,1.75,1.75,0,0,0,.4,0,1.28,1.28,0,0,0,.76-.19A.68.68,0,0,0,90.29,88Z"/><path class="cls-4" d="M92.13,83.25h3.34v1.14H93.23v1.52h2v1.14h-2v1.6h2.28v1.14H92.13Z"/><path class="cls-4" d="M98.77,88a.64.64,0,0,0-.19-.49,1.78,1.78,0,0,0-.48-.34l-.62-.32a3.12,3.12,0,0,1-.62-.4,2,2,0,0,1-.47-.59A1.89,1.89,0,0,1,96.2,85a2.33,2.33,0,0,1,.13-.83,1.62,1.62,0,0,1,.4-.58,1.56,1.56,0,0,1,.6-.35,2.65,2.65,0,0,1,.77-.11,4,4,0,0,1,.93.1,2,2,0,0,1,.71.28l-.34,1.08a1.76,1.76,0,0,0-.53-.24,2.76,2.76,0,0,0-.77-.11.85.85,0,0,0-.59.18.6.6,0,0,0-.21.48.64.64,0,0,0,.19.46,2.29,2.29,0,0,0,.48.35l.62.33a3.12,3.12,0,0,1,.62.4,2,2,0,0,1,.47.59,1.82,1.82,0,0,1,.19.88,2.5,2.5,0,0,1-.15.9,1.6,1.6,0,0,1-.41.63,1.64,1.64,0,0,1-.66.37,2.75,2.75,0,0,1-.84.12,3.75,3.75,0,0,1-1.06-.13,2.84,2.84,0,0,1-.68-.26l.35-1.09.23.12.32.12a2.34,2.34,0,0,0,.38.09,1.75,1.75,0,0,0,.4,0,1.28,1.28,0,0,0,.76-.19A.68.68,0,0,0,98.77,88Z"/><path class="cls-34" d="M313.64,130.29A18.21,18.21,0,0,0,336.08,145a20.92,20.92,0,0,0,15.72-23.64c-1.85-10.58-13.5-17.14-24-14.66S311.78,119.72,313.64,130.29Z"/><polygon class="cls-34" points="315.9 126.33 301.82 136.01 322.69 138.13 315.9 126.33"/><path class="cls-4" d="M321.39,127h2.26v3.12a2,2,0,0,1-.87.51,3.23,3.23,0,0,1-1,.17,2.72,2.72,0,0,1-1.07-.21,2.12,2.12,0,0,1-.86-.66,3.05,3.05,0,0,1-.57-1.14,5.68,5.68,0,0,1-.21-1.64,5.21,5.21,0,0,1,.24-1.69,3.39,3.39,0,0,1,.65-1.13,2.41,2.41,0,0,1,.91-.63,2.76,2.76,0,0,1,1-.2,4.12,4.12,0,0,1,.91.09,3.72,3.72,0,0,1,.63.19l-.25,1.15a2.08,2.08,0,0,0-.48-.15,3.23,3.23,0,0,0-.68-.06,1.93,1.93,0,0,0-.69.13,1.45,1.45,0,0,0-.54.43,2.17,2.17,0,0,0-.35.75,4.56,4.56,0,0,0-.13,1.13,4.37,4.37,0,0,0,.12,1.09,2.37,2.37,0,0,0,.34.75,1.37,1.37,0,0,0,1.13.57,1.72,1.72,0,0,0,.44-.06,1,1,0,0,0,.36-.2V128l-1.31-.16Z"/><path class="cls-4" d="M327.51,129.1h-1.86l-.46,1.56H324l2.18-7.07h.88l2.17,7.07H328ZM326,128h1.3l-.45-1.56-.18-1.11h-.05l-.18,1.12Z"/><path class="cls-4" d="M334.45,127l.13-1.4h-.05l-.37,1.13-1.29,2.61h-.38l-1.36-2.62-.38-1.12h0l.17,1.39v3.65h-1.13v-7h1.09l1.61,3.21.29.8h0l.26-.82,1.53-3.19h1.07v7h-1.18Z"/><path class="cls-4" d="M336.67,123.64h3.59v1.22h-2.4v1.64H340v1.22h-2.18v1.71h2.44v1.23h-3.63Z"/><path class="cls-4" d="M343.8,128.77a.69.69,0,0,0-.21-.52,2.1,2.1,0,0,0-.51-.37l-.66-.34a3.18,3.18,0,0,1-.67-.43,2.28,2.28,0,0,1-.51-.63,2.16,2.16,0,0,1-.2-1,2.58,2.58,0,0,1,.14-.88,1.74,1.74,0,0,1,.42-.63,1.67,1.67,0,0,1,.65-.37,2.68,2.68,0,0,1,.83-.12,4.49,4.49,0,0,1,1,.1,2.63,2.63,0,0,1,.77.31l-.37,1.15a1.93,1.93,0,0,0-.57-.25,2.71,2.71,0,0,0-.82-.12,1,1,0,0,0-.64.19.67.67,0,0,0-.22.51.66.66,0,0,0,.21.5,2.12,2.12,0,0,0,.51.38l.66.35a3.64,3.64,0,0,1,.67.43,2.28,2.28,0,0,1,.51.63,2,2,0,0,1,.2.94,2.6,2.6,0,0,1-.16,1,1.88,1.88,0,0,1-.45.67,1.63,1.63,0,0,1-.7.4,2.83,2.83,0,0,1-.9.14,4.23,4.23,0,0,1-1.14-.14,3,3,0,0,1-.73-.29l.38-1.17a1.14,1.14,0,0,0,.25.13,2.2,2.2,0,0,0,.34.13,2.34,2.34,0,0,0,.4.1,2.12,2.12,0,0,0,.44,0,1.37,1.37,0,0,0,.8-.2A.74.74,0,0,0,343.8,128.77Z"/><path class="cls-34" d="M357.17,34.58C359,21.46,352.44,10,336.8,8.28c-14.8-1.63-25.15,4.37-27,17.49a25.41,25.41,0,0,0,20.38,28.16A22.72,22.72,0,0,0,357.17,34.58Z"/><polygon class="cls-34" points="318.02 44.43 311.96 59.74 328.5 50 318.02 44.43"/><path class="cls-4" d="M315.82,26.49H320v1.44h-2.83v2h2.6v1.44h-2.6v3.34h-1.39Z"/><path class="cls-4" d="M321.13,26.49h1.39v8.26h-1.39Z"/><path class="cls-4" d="M328.94,27.93h-2.07v6.82h-1.4V27.93h-2.08V26.49h5.55Z"/><path class="cls-4" d="M331.44,30.44l-.56-1.29h-.06l.17,1.29v4.31h-1.32V26.43h1l2.7,4.4.54,1.26H334l-.16-1.26V26.49h1.32v8.32h-1Z"/><path class="cls-4" d="M336.35,26.49h4.22v1.44h-2.83v1.92h2.58v1.44h-2.58v2h2.88v1.44h-4.27Z"/><path class="cls-4" d="M344.73,32.53a.81.81,0,0,0-.23-.61,2.44,2.44,0,0,0-.61-.43l-.78-.4a4,4,0,0,1-.78-.51,2.48,2.48,0,0,1-.6-.75,2.41,2.41,0,0,1-.24-1.14,3,3,0,0,1,.17-1.05,1.95,1.95,0,0,1,1.25-1.17,3.36,3.36,0,0,1,1-.14,5.52,5.52,0,0,1,1.17.12,2.62,2.62,0,0,1,.91.36l-.44,1.36a2.36,2.36,0,0,0-.67-.3,3.34,3.34,0,0,0-1-.14,1.12,1.12,0,0,0-.75.23.76.76,0,0,0-.26.6.81.81,0,0,0,.24.59,2.89,2.89,0,0,0,.6.43c.24.14.5.27.79.42a4,4,0,0,1,.78.51,2.57,2.57,0,0,1,.6.74,2.34,2.34,0,0,1,.24,1.11,2.94,2.94,0,0,1-.19,1.13,2,2,0,0,1-.53.8,2.15,2.15,0,0,1-.82.47,3.59,3.59,0,0,1-1.07.15,5,5,0,0,1-1.34-.16,3.57,3.57,0,0,1-.85-.33l.44-1.38a1.92,1.92,0,0,0,.29.15,3.19,3.19,0,0,0,.41.16l.47.11a2.84,2.84,0,0,0,.51,0,1.59,1.59,0,0,0,.95-.24A.86.86,0,0,0,344.73,32.53Z"/><path class="cls-4" d="M350.13,32.53a.82.82,0,0,0-.24-.61,2.57,2.57,0,0,0-.6-.43l-.79-.4a4,4,0,0,1-.78-.51,2.48,2.48,0,0,1-.6-.75,2.41,2.41,0,0,1-.24-1.14,3,3,0,0,1,.17-1.05,1.9,1.9,0,0,1,.5-.73,1.86,1.86,0,0,1,.76-.44,3.24,3.24,0,0,1,1-.14,5.39,5.39,0,0,1,1.17.12,2.62,2.62,0,0,1,.91.36l-.44,1.36a2.23,2.23,0,0,0-.67-.3,3.34,3.34,0,0,0-1-.14,1.09,1.09,0,0,0-.74.23.73.73,0,0,0-.26.6.81.81,0,0,0,.24.59,2.44,2.44,0,0,0,.6.43c.24.14.5.27.78.42a4,4,0,0,1,.78.51,2.57,2.57,0,0,1,.6.74,2.34,2.34,0,0,1,.24,1.11,2.94,2.94,0,0,1-.19,1.13,2,2,0,0,1-.53.8,2.08,2.08,0,0,1-.82.47,3.57,3.57,0,0,1-1.06.15,5,5,0,0,1-1.35-.16,3.75,3.75,0,0,1-.85-.33l.45-1.38a1.54,1.54,0,0,0,.29.15,3,3,0,0,0,.4.16l.47.11a3,3,0,0,0,.52,0,1.61,1.61,0,0,0,.95-.24A.86.86,0,0,0,350.13,32.53Z"/></g></g></g></svg>